<?xml version="1.0" standalone="no"?>
<!DOCTYPE svg PUBLIC "-//W3C//DTD SVG 1.1//EN" "http://www.w3.org/Graphics/SVG/1.1/DTD/svg11.dtd" >
<svg xmlns="http://www.w3.org/2000/svg">
<metadata></metadata>
<defs>
<font id="korpo_sansregular" horiz-adv-x="1171" >
<font-face units-per-em="2048" ascent="1536" descent="-512" />
<missing-glyph horiz-adv-x="475" />
<glyph horiz-adv-x="0" />
<glyph horiz-adv-x="682" />
<glyph horiz-adv-x="0" />
<glyph horiz-adv-x="0" />
<glyph unicode="&#xd;" horiz-adv-x="475" />
<glyph unicode=" "  horiz-adv-x="475" />
<glyph unicode="&#x09;" horiz-adv-x="475" />
<glyph unicode="&#xa0;" horiz-adv-x="475" />
<glyph unicode="!" horiz-adv-x="479" d="M73 180q11 41 50 76q115 105 223 0q54 -50 55 -108.5t-53 -114.5q-114 -115 -227 -2q-32 32 -45.5 70t-2.5 79zM94 1401l273 33l22 -95l-51 -944h-186l-39 68z" />
<glyph unicode="&#x22;" horiz-adv-x="827" d="M8 1313v90l250 328l227 -27v-129l-303 -293zM446 1313v90l250 328l228 -27v-129l-303 -293z" />
<glyph unicode="#" horiz-adv-x="1366" d="M-29 274v228h213l80 370h-186v228h233l62 280h235v-80l-43 -200h285l61 280h236v-80l-43 -200h172v-228h-219l-78 -370h160v-228h-209l-58 -274h-239v72l43 202h-283l-57 -274h-242v72l43 202h-166zM440 502h283l80 370h-285z" />
<glyph unicode="$" horiz-adv-x="1112" d="M31 174l168 152q55 -53 143 -82t188 -29q117 0 189 57q34 24 55 58q5 25 5 47.5t-4 40t-14 33.5t-21 27.5t-29 23t-34 19.5t-39 16.5t-41.5 14t-45.5 13.5q-51 14 -96 29.5t-98.5 39.5t-95.5 51t-82 64.5t-65 80.5t-36.5 99t-3.5 118q34 309 354 350v145h254v-156 q197 -40 338 -178l-174 -147q-53 58 -132.5 82t-193.5 24q-59 0 -127 -22q-23 -9 -41 -23q-22 -48 -30 -85.5t6 -66.5t27 -47t57.5 -38.5t71 -30.5t92.5 -31q8 -3 12 -4q47 -16 71.5 -24t69 -25.5t69 -30.5t61.5 -34.5t58 -42.5t46 -50.5t38 -61.5t22 -72.5t9 -86.5 q0 -151 -94.5 -258t-255.5 -139v-158h-254v148q-239 26 -397 190z" />
<glyph unicode="%" horiz-adv-x="1744" d="M43 1083q0 111 24.5 183.5t73.5 109t104.5 49.5t135.5 13q81 0 137 -13t105 -49.5t73.5 -109t24.5 -183.5q0 -75 -11 -132t-33.5 -95t-51 -63t-69 -38.5t-81.5 -18.5t-94 -5q-64 0 -110 7t-91.5 29t-73.5 60t-45.5 102.5t-17.5 153.5zM180 0v88l1075 1346h254v-97 l-1071 -1337h-258zM289 1083q0 -69 17 -100t75 -31q41 0 70 11q26 52 26 120q0 69 -19 102.5t-77 33.5q-8 0 -16 -1t-17 -3t-14 -3l-21 -6q-24 -38 -24 -123zM985 334q0 89 17.5 153.5t45.5 103t73.5 60.5t92 29.5t109.5 7.5q64 0 111 -7.5t92.5 -29.5t73.5 -60.5t45.5 -103 t17.5 -153.5q0 -75 -11 -132t-33.5 -95t-51 -63t-69 -38.5t-81.5 -18.5t-94 -5q-64 0 -110 7t-91.5 29t-73.5 60t-45.5 102.5t-17.5 153.5zM1231 334q0 -69 17 -100t75 -31q43 0 70 10q26 52 26 121q0 68 -19 101.5t-77 33.5q-5 0 -47 -6l-21 -6q-24 -38 -24 -123z" />
<glyph unicode="&#x26;" horiz-adv-x="1380" d="M33 332q0 147 61 258.5t170 183.5q-106 160 -106 297q0 75 23 136t62.5 102.5t94.5 70t117.5 41.5t132.5 13q176 0 273 -96t97 -265q0 -49 -11 -91t-34.5 -77t-48.5 -62.5t-66 -55t-74 -46.5t-83 -45l254 -280q14 38 20.5 104t6.5 232h243q0 -201 -13 -306t-60 -190 q60 -37 176 -55v-217q-120 0 -202 21.5t-159 70.5q-168 -92 -420 -92q-223 0 -338.5 89t-115.5 259zM293 346q0 -63 59.5 -96t151.5 -33q134 0 207 29q-177 192 -299 340q-119 -99 -119 -240zM408 1065q0 -82 81 -180q49 23 81 40t68 41.5t54.5 51t18.5 55.5 q0 65 -44.5 104.5t-111.5 39.5q-41 0 -86 -15l-29 -14q-32 -36 -32 -123z" />
<glyph unicode="'" horiz-adv-x="378" d="M8 1313v90l250 328l227 -27v-129l-303 -293z" />
<glyph unicode="(" horiz-adv-x="559" d="M31 700q0 115 2.5 189.5t12.5 171t29 157t54 126t85 102t125 60.5t171 24v-219q-50 0 -87 -16.5t-61.5 -54t-40 -83.5t-23.5 -122t-10.5 -151t-2.5 -186q0 -94 2 -160t7.5 -134t15.5 -112t26.5 -84.5t40.5 -63t57 -35.5t76 -13v-217q-96 0 -171 23t-125 59t-85 100 t-54 124t-29 155.5t-12.5 169.5t-2.5 190z" />
<glyph unicode=")" horiz-adv-x="563" d="M31 96q43 0 76 13t57 35.5t40.5 63t26.5 84.5t15.5 112t7.5 134t2 160q0 111 -2.5 186t-10.5 151t-23.5 122t-40 83.5t-61.5 54t-87 16.5v219q96 0 171 -24t125 -60.5t85 -102t54 -126t29 -157t12.5 -171t2.5 -189.5q0 -116 -2.5 -190t-12.5 -169.5t-29 -155.5t-54 -124 t-85 -100t-125 -59t-171 -23v217z" />
<glyph unicode="*" horiz-adv-x="710" d="M31 1554l63 109l19 -10l176 -117l-15 211v20h127v-20l-12 -211l176 117l17 10l63 -109l-16 -10l-191 -94l191 -94l16 -10l-63 -111l-17 10l-176 119l12 -213v-18h-127v18l15 213l-176 -119l-19 -10l-61 111l16 10l189 94l-191 94z" />
<glyph unicode="+" horiz-adv-x="1052" d="M90 545v227h311v307h228v-307h311v-227h-311v-314h-228v314h-311z" />
<glyph unicode="," horiz-adv-x="403" d="M37 156q0 61 57 116.5t119 55.5q60 0 113.5 -57t58.5 -119v-117l-154 -275l-184 33v82l51 160q-61 64 -61 121z" />
<glyph unicode="-" horiz-adv-x="1044" d="M100 573v228h848v-228h-848z" />
<glyph unicode="." horiz-adv-x="442" d="M54 180q11 41 50 76q115 106 224 0q54 -50 55 -108.5t-53 -114.5q-115 -115 -228 -2q-32 32 -45.5 70t-2.5 79z" />
<glyph unicode="/" horiz-adv-x="776" d="M-27 -23v80l519 1479h241v-88l-512 -1471h-248z" />
<glyph unicode="0" horiz-adv-x="1187" d="M61 686q0 171 19 293t57 205.5t101 132.5t143 69.5t192 20.5q111 0 191.5 -21t143.5 -70t101.5 -131.5t58 -203t19.5 -287.5q0 -213 -28.5 -352t-94 -220t-158 -113t-233.5 -32q-111 0 -190.5 20.5t-143 68.5t-101.5 130t-57.5 202.5t-19.5 287.5zM317 684 q0 -61 1.5 -104t7.5 -96t16.5 -88.5t29.5 -72.5t45.5 -59t66 -35.5t89.5 -13.5q45 0 127 21q45 14 62 22q69 168 69 438q0 61 -1.5 105t-7.5 96.5t-17 88.5t-30 73t-46 59t-66.5 35.5t-89.5 13.5t-127 -22q-22 -7 -59 -23q-70 -171 -70 -438z" />
<glyph unicode="1" horiz-adv-x="614" d="M8 1317l260 63h211v-1380h-256v1135h-180z" />
<glyph unicode="2" horiz-adv-x="1024" d="M49 199q78 88 156.5 177.5t111.5 127t63.5 71t51.5 54.5q7 7 21 22q35 36 54 56.5t52.5 61t52 69t39 70t26.5 76t2.5 74.5t-22.5 77q-3 2 -36 16q-54 16 -132 16q-58 0 -115 -18t-92 -37.5t-92 -56.5l-133 159q166 193 432 193q88 0 151 -8t122 -31.5t95 -64.5 t57.5 -108.5t21.5 -162.5q0 -143 -73 -267.5t-232 -297.5l-217 -240h538l-20 -227h-873z" />
<glyph unicode="3" horiz-adv-x="1005" d="M23 88l118 178q61 -24 126.5 -36t100.5 -13.5t91 -1.5q227 0 227 182q0 98 -43 158q-29 11 -58 17.5t-73 8.5t-62 2.5t-79 0.5l-13 229q76 0 137.5 18t106.5 56t57 97t-12 142q-7 7 -23 15.5t-57.5 17t-93.5 8.5q-84 0 -137.5 -21t-112.5 -65l-192 121q171 201 442 201 q73 0 126 -5t105.5 -18.5t87.5 -39.5t63 -66.5t41 -101t13 -140.5q0 -212 -108 -307q141 -103 141 -328q0 -216 -128.5 -318t-354.5 -102q-139 0 -232.5 27t-203.5 84z" />
<glyph unicode="4" horiz-adv-x="993" d="M18 596l306 784h243v-88l-252 -651h252v352l254 35v-387h158v-199l-158 -12v-430h-254v412h-501z" />
<glyph unicode="5" horiz-adv-x="1103" d="M113 82l90 192q85 -28 151.5 -41.5t100 -15.5t92.5 -2q61 0 105 14.5t67 35t36 55t16 62t3 67.5q0 67 -20 129q-10 26 -21 43q-31 17 -68 27t-63.5 14.5t-74 2.5t-66 -3.5t-76 -8.5t-70.5 -8l-186 57l45 678h791l14 -227h-580l-20 -266q82 16 194 16q225 0 342 -116 t117 -338q0 -115 -24 -199t-64 -136t-103.5 -83t-133 -42.5t-160.5 -11.5q-142 0 -237.5 25.5t-196.5 79.5z" />
<glyph unicode="6" horiz-adv-x="1107" d="M47 686q0 171 19 293t56 205.5t99.5 132t142 69.5t191.5 21q133 0 228.5 -46t201.5 -155l-168 -137q-56 59 -112 78.5t-164 19.5q-79 0 -129 -26q-26 -10 -41 -25q-15 -11 -25 -41q-30 -84 -37 -229q63 18 205 18q233 0 352 -81.5t119 -241.5q0 -106 -8.5 -187.5 t-23.5 -141.5t-42.5 -101.5t-58.5 -68t-78 -40.5t-96 -19.5t-117 -5.5q-99 0 -170.5 12.5t-131 44t-98 82.5t-65 131t-38 187t-11.5 252zM303 592q2 -98 10.5 -162t25 -108t48 -66.5t71.5 -31.5t103 -9q46 0 96 16q4 2 19 8t22 9q18 60 25.5 122t7.5 171q0 82 -217 82 q-48 0 -65 -1t-53.5 -7.5t-92.5 -22.5z" />
<glyph unicode="7" horiz-adv-x="1034" d="M47 1153l19 227h903l10 -188q-89 -195 -296.5 -584.5t-307.5 -607.5h-234v111q78 180 265.5 521t267.5 521h-627z" />
<glyph unicode="8" horiz-adv-x="1028" d="M20 348q0 132 51.5 220.5t186.5 172.5q-64 49 -98.5 86.5t-56 94t-21.5 133.5q0 88 39.5 158t102.5 111t135.5 62t146.5 21q206 0 319 -91t113 -263q0 -83 -45.5 -151t-142.5 -144q117 -74 182 -156.5t65 -189.5q0 -187 -134 -311t-361 -124q-82 0 -153 12.5t-132.5 41 t-104.5 71t-67.5 105.5t-24.5 141zM285 377q7 -162 227 -162q100 0 172 41q43 55 43 143q0 58 -54 105t-173 112q-39 -21 -65 -36.5t-58.5 -40t-51.5 -47t-31 -53t-9 -62.5zM334 1055q0 -56 35.5 -94.5t130.5 -86.5q176 86 176 168q0 125 -168 125q-75 0 -123 -18l-19 -18 q-32 -36 -32 -76z" />
<glyph unicode="9" horiz-adv-x="1087" d="M72 174l164 135q71 -60 124 -77t150 -17q92 0 154 16q17 6 38 19q7 21 9 39q4 25 14 207q-81 -19 -209 -19q-225 0 -334.5 95t-109.5 262q0 113 7.5 193.5t27.5 147.5t51.5 109t83 70.5t119 40.5t161.5 12q85 0 147 -6t111.5 -26t82 -41.5t56.5 -69.5t36.5 -91.5 t19.5 -126.5t8.5 -156t1.5 -196q0 -91 -2 -159t-7.5 -134t-14 -113t-23.5 -92t-34.5 -74.5t-47.5 -56t-62 -41.5t-79.5 -26.5t-98 -16t-118.5 -4.5q-134 0 -227 44t-199 153zM330 819q0 -60 38 -80t148 -20q48 0 67.5 1t56 6.5t89.5 18.5q-1 78 -3 129.5t-7 99t-10.5 75.5 t-18 52t-25.5 35t-36 19t-46.5 10t-60.5 2q-34 0 -106 -14q-14 -5 -49 -14q-15 -56 -20.5 -80t-11 -85.5t-5.5 -154.5z" />
<glyph unicode=":" horiz-adv-x="462" d="M54 180q11 41 50 76q115 106 224 0q54 -50 55 -108.5t-53 -114.5q-115 -115 -228 -2q-32 32 -45.5 70t-2.5 79zM54 759.5q11 41.5 50 76.5q115 106 224 0q54 -50 55 -109t-53 -115q-115 -115 -228 -2q-32 32 -45.5 70t-2.5 79.5z" />
<glyph unicode=";" horiz-adv-x="462" d="M49 156q0 61 57 116.5t119 55.5q60 0 113.5 -57t58.5 -119v-117l-153 -275l-185 33v82l52 160q-32 34 -47 61t-15 60zM54 759.5q11 41.5 50 76.5q115 106 224 0q54 -50 55 -109t-53 -115q-115 -115 -228 -2q-32 32 -45.5 70t-2.5 79.5z" />
<glyph unicode="&#x3c;" horiz-adv-x="937" d="M41 524v168l674 408h127v-264l-469 -228l469 -227v-264h-127z" />
<glyph unicode="=" horiz-adv-x="1036" d="M80 377v215h850v-215h-850zM80 768v215h850v-215h-850z" />
<glyph unicode="&#x3e;" horiz-adv-x="876" d="M41 117v264l469 227l-469 228v264h127l674 -408v-168l-674 -407h-127z" />
<glyph unicode="?" horiz-adv-x="964" d="M14 1028l19 213q164 193 416 193q86 0 150 -9.5t121.5 -35t94 -68.5t57.5 -113t21 -166q0 -73 -35.5 -146.5t-86.5 -134.5t-102 -120t-86.5 -123t-35.5 -123h-187l-41 66v39q0 51 33 108.5t80 110t94 104t80 108.5t33 107q0 52 -18 105l-13 10q-14 10 -29 18t-50 15.5 t-80 7.5q-25 0 -46 -1.5t-40.5 -7t-30.5 -8t-28.5 -13t-21.5 -12.5t-23 -15.5t-21 -14.5q-22 -87 -31 -135zM288 180q11 41 50 76q115 105 223 0q54 -50 55 -108.5t-53 -114.5q-115 -115 -227 -2q-32 32 -45.5 70t-2.5 79z" />
<glyph unicode="@" horiz-adv-x="1794" d="M57 410q-2 150 33.5 288.5t100.5 249.5t157 202.5t201 153t233 95t252 33.5q117 0 221 -27.5t183.5 -76t143.5 -114t104 -143t61 -161.5t18.5 -172t-26.5 -171q-25 -87 -78 -169t-127.5 -149.5t-176.5 -107t-212 -35.5q-47 2 -133 27l106 250h-26q-61 -127 -170.5 -210 t-212.5 -83q-127 0 -189.5 66t-62.5 215q0 66 4 84q39 310 163.5 477.5t325.5 167.5q151 0 355 -94l-84 -734q83 26 148 76.5t103.5 115.5t58.5 140t18 151.5t-23 149.5q-50 159 -190 257t-328 98q-114 0 -216 -34t-180.5 -93t-141 -138.5t-102.5 -171t-60.5 -189 t-18.5 -194.5q2 -117 31.5 -211.5t79.5 -159t120 -109t150 -65t172 -22.5q136 -4 302.5 42t321.5 116l56 -119q-165 -91 -356.5 -151t-350.5 -60q-122 -2 -232 23.5t-205 81.5t-165 138t-111.5 201.5t-44.5 264.5zM684 389q0 -135 80 -135q34 0 71 24.5t77 77.5t76.5 129.5 t70 188t57.5 244.5q-110 32 -172 32q-82 0 -129 -30q-1 -2 -11 -29.5t-20.5 -57.5t-25 -74t-27 -90t-23.5 -94t-17.5 -97t-6.5 -89z" />
<glyph unicode="A" horiz-adv-x="1189" d="M6 0q207 779 344 1171l-127 19v190h541q100 -253 198.5 -584.5t221.5 -795.5h-264q-7 30 -101 397l-45 -10h-358l-51 -10q-44 -160 -95 -377h-264zM428 604l45 10h238l45 11l20 -70q-77 260 -170 545h-20q-82 -241 -158 -496z" />
<glyph unicode="B" horiz-adv-x="1146" d="M76 0v1380h319q220 0 310 -17q175 -32 237 -153q41 -81 41 -206q0 -156 -72 -246q160 -85 160 -336q0 -104 -25.5 -180t-68.5 -122.5t-111.5 -73.5t-142.5 -36.5t-174 -9.5h-473zM330 227h186q135 0 209 19q36 9 49 20q13 9 21 29q22 51 22 127q0 41 -7.5 69t-24 44 t-30 23t-36.5 15h-348l-41 -10v-336zM330 791l43 10h284q26 18 49 66.5t23 133.5q0 37 -6.5 62.5t-26 42.5t-40 26.5t-65.5 14t-84 5.5t-112 1h-65v-362z" />
<glyph unicode="C" horiz-adv-x="1216" d="M31 682q0 128 16.5 231.5t45 177.5t73.5 129t95.5 89t116.5 54.5t131 28t146 7.5q140 0 254 -46t215 -151l-166 -147q-54 59 -125 83.5t-178 24.5q-99 0 -186 -26q-43 -12 -78 -27q-12 -19 -25 -46.5t-33 -82.5t-33 -134.5t-13 -166.5q0 -66 3 -115t12.5 -100t26 -86.5 t44 -68.5t66 -52.5t93 -31t123.5 -11.5q136 0 277 49q54 18 110 49l101 -190q-217 -146 -488 -146q-82 0 -146 6.5t-131 26t-117 51.5t-95 85.5t-73.5 127t-45 176.5t-16.5 232z" />
<glyph unicode="D" horiz-adv-x="1247" d="M74 0v1380h454q70 0 125.5 -5t115 -17.5t105 -36t89.5 -59t75 -88t55 -121.5t36 -161.5t12 -205.5q0 -101 -9.5 -185t-26 -149t-44 -116.5t-58 -88t-72.5 -63.5t-84 -43t-96.5 -25t-105.5 -12.5t-115 -3.5h-456zM328 227h166q136 0 233 29q31 9 59 29l-2 -6q36 55 52 98 q51 135 51 307q0 66 -3 115t-12.5 100.5t-25.5 87.5t-43 69.5t-64.5 53.5t-90.5 31.5t-120 11.5h-200v-926z" />
<glyph unicode="E" horiz-adv-x="1099" d="M102 0v1380h869v-227h-615v-362l43 10h437v-228h-437l-43 -10v-336h615v-227h-869z" />
<glyph unicode="F" horiz-adv-x="1064" d="M106 0v1380h869v-227h-615v-362l43 10h437v-228h-437l-43 -10v-563h-254z" />
<glyph unicode="G" horiz-adv-x="1323" d="M70 686q0 128 16.5 231.5t45 177t73.5 128t95 88t116.5 53.5t131.5 27.5t146 7.5q140 0 255 -46t216 -151l-168 -147q-54 59 -125 83.5t-178 24.5q-99 0 -186 -26q-44 -12 -78 -27q-12 -20 -24.5 -46t-33 -80.5t-33.5 -133.5t-13 -166q0 -66 3 -115t12.5 -100.5t26 -87.5 t44 -69.5t66 -53.5t93 -31.5t123.5 -11.5q113 0 219 27v307l-176 20v191h430v-621q-116 -94 -232.5 -128t-240.5 -34q-81 0 -145.5 7t-131.5 26.5t-117 52t-95 86.5t-73.5 127.5t-45 177t-16.5 232.5z" />
<glyph unicode="H" horiz-adv-x="1300" d="M84 0v1380h254v-589l37 10h497l39 10v569h256v-1380h-256v584l-34 -11h-498l-41 -10v-563h-254z" />
<glyph unicode="I" horiz-adv-x="460" d="M92 0v1380h254v-1380h-254z" />
<glyph unicode="J" horiz-adv-x="718" d="M8 37l49 235q67 -28 154 -45q37 -9 68 -12q22 77 22 223v942h254v-942q0 -174 -29 -276t-84 -143.5t-145 -41.5q-78 0 -289 60z" />
<glyph unicode="K" horiz-adv-x="1208" d="M104 0v1380h256v-692l95 86l366 606h219v-106l-299 -504q93 -193 213 -377.5t183 -263.5v-129h-224q-41 50 -106 147q-142 217 -234 398q-169 -150 -213 -187v-358h-256z" />
<glyph unicode="L" horiz-adv-x="923" d="M98 0v1384h254v-1157h553v-227h-807z" />
<glyph unicode="M" horiz-adv-x="1710" d="M94 0v1380h373l338 -938h10q48 134 104.5 287t127 345t112.5 306h363v-1380h-254v983h-11q-28 -76 -122 -341.5t-187 -520.5h-278q-105 278 -199.5 546t-112.5 316h-10v-983h-254z" />
<glyph unicode="N" horiz-adv-x="1327" d="M74 0v1380h358q307 -694 449 -1001h10v1001h254v-1380h-357q-110 257 -448 983h-10v-983h-256z" />
<glyph unicode="O" horiz-adv-x="1415" d="M37 686q0 128 17 231.5t46.5 177t75.5 128t97 88t118 53.5t132.5 27.5t146.5 7.5q79 0 143.5 -7.5t131 -27.5t117.5 -53.5t96.5 -88t75.5 -128t47 -177t17 -231.5q0 -129 -17 -232.5t-45.5 -177t-74 -127.5t-96 -86.5t-117.5 -52t-132 -26.5t-146 -7t-146 7t-133 26.5 t-118.5 52t-96.5 86.5t-75.5 127.5t-46.5 177t-17 232.5zM293 684q0 -93 7.5 -158t30.5 -127.5t63.5 -100t109.5 -60.5t166 -23q144 0 254 57q5 5 15.5 20t29.5 52t35 82t28 114t12 144q0 91 -8 157.5t-31.5 130.5t-64 103.5t-108.5 63.5t-162 24q-91 0 -193 -28 q-37 -9 -84 -27q-21 -35 -40 -80.5t-39.5 -142t-20.5 -201.5z" />
<glyph unicode="P" horiz-adv-x="1099" d="M74 0l2 1380h344q218 0 308 -16q189 -32 261 -162q53 -95 53 -252q0 -246 -124.5 -354.5t-387.5 -108.5h-159l-41 -8v-479h-256zM330 707l35 8h165q70 0 148 20q35 9 57 23q4 0 15.5 17.5t24.5 65.5t13 109q0 46 -9 79t-30.5 55.5t-48 36t-72 20.5t-91.5 9.5t-117 2.5 h-90v-446z" />
<glyph unicode="Q" horiz-adv-x="1384" d="M29 686q0 128 17 231.5t46.5 177.5t75 129t97 89t118.5 54.5t132.5 28t146.5 7.5q79 0 143.5 -7.5t131 -28t117.5 -54.5t96.5 -89t75.5 -129t47 -177.5t17 -231.5q0 -154 -23.5 -270.5t-64 -192.5t-102.5 -127t-131.5 -75.5t-159.5 -34.5l86 -35l47 -23l201 29l74 -131 q-160 -117 -297 -117q-95 0 -251 89t-266 184v26q-68 21 -122.5 53t-102.5 86.5t-80 127t-50.5 177t-18.5 234.5zM285 684q0 -93 7.5 -158t30.5 -127.5t63.5 -100t109.5 -60.5t166 -23q143 0 253 57q5 5 16 20t30 52t35 82t28 114t12 144q0 92 -8 159t-31.5 131.5t-64 104.5 t-108.5 64t-162 24q-91 0 -193 -28q-37 -9 -84 -27q-100 -176 -100 -428z" />
<glyph unicode="R" horiz-adv-x="1189" d="M88 0v1380h346q216 0 307 -16q190 -33 262 -164q52 -95 52 -250q0 -185 -66.5 -288.5t-208.5 -145.5q94 -166 254 -391v-125h-205q-49 58 -102 135q-126 176 -217 352h-125l-43 -10v-477h-254zM342 705l41 10h160q71 0 149 20q36 9 58 23q5 0 16 17.5t23 65t12 109.5 q0 46 -8.5 79t-30 55.5t-48 36t-72 20.5t-91.5 9.5t-117 2.5h-92v-448z" />
<glyph unicode="S" horiz-adv-x="1112" d="M31 174l168 152q55 -53 143 -82t188 -29q117 0 189 57q34 24 55 58q5 25 5 47.5t-4 40t-14 33.5t-21 27.5t-29 23t-34 19.5t-39 16.5t-41.5 14t-45.5 13.5q-51 14 -96 29.5t-98.5 39.5t-95.5 51t-82 64.5t-65 80.5q-24 43 -36 99q-7 33 -7 68q0 24 3 50q41 356 446 356 q305 -3 500 -195l-174 -147q-53 58 -132.5 82t-193.5 24q-59 0 -127 -22q-23 -9 -41 -23q-22 -48 -30 -86q-3 -14 -3 -26q0 -22 9 -40q14 -29 27 -47t57.5 -38.5t71 -30.5t92.5 -31q8 -3 12 -4q47 -16 71.5 -24t69 -25.5t69 -30.5t61.5 -34.5t58 -42.5t46 -50.5t38 -61.5 t22 -72.5t9 -86.5q0 -186 -139.5 -300t-362.5 -114q-310 0 -499 197z" />
<glyph unicode="T" horiz-adv-x="1019" d="M-4 1153v227h995v-227h-373v-1153h-253v1153h-369z" />
<glyph unicode="U" horiz-adv-x="1339" d="M96 569v811h254v-811q0 -44 0.5 -71t3.5 -62.5t9 -57t16.5 -47.5t25.5 -41.5t37 -31.5t51 -24t67 -13.5t85 -5.5q71 0 146 27q26 7 57 26q76 152 76 418v694h254v-694q0 -171 -21.5 -293.5t-61.5 -203.5t-107 -127.5t-148 -65.5t-195 -19q-127 0 -216.5 18.5t-155 59 t-103.5 111t-56 168t-18 235.5z" />
<glyph unicode="V" horiz-adv-x="1251" d="M23 1380h264q118 -520 325 -1132q214 645 324 1132h264q-123 -464 -221.5 -795.5t-198.5 -584.5h-305l-43 31q-93 235 -188.5 558t-220.5 791z" />
<glyph unicode="W" horiz-adv-x="1789" d="M-20 1380h264q131 -559 325 -1130q117 349 187 600q-77 269 -142 530h265q118 -520 325 -1132q214 645 324 1132h264q-123 -464 -221.5 -795.5t-198.5 -584.5h-336q-52 124 -79 199.5t-70 216.5q-79 -234 -150 -416h-336q-99 251 -195 574t-226 806z" />
<glyph unicode="X" horiz-adv-x="1224" d="M-18 1380h288q36 -69 80.5 -147.5t75.5 -132t81.5 -138t72.5 -122.5q222 362 321 540h281q-181 -336 -381 -663q74 -135 206 -382t179 -335h-287l-317 571l-318 -571h-276q102 193 189 360.5t123 237t65 119.5q-153 236 -383 663z" />
<glyph unicode="Y" horiz-adv-x="1167" d="M-29 1380h279q133 -291 321 -651q182 342 326 651h264q-100 -231 -239 -509t-222 -427v-444h-254v444q-91 168 -237 453.5t-238 482.5z" />
<glyph unicode="Z" horiz-adv-x="1089" d="M18 195q109 134 221 292t246 356.5t213 309.5h-661l20 227h959l12 -194q-131 -160 -346 -489.5t-320 -469.5h685l-19 -227h-997z" />
<glyph unicode="[" horiz-adv-x="483" d="M43 -121v1657h395v-219h-141v-1221h141v-217h-395z" />
<glyph unicode="\" horiz-adv-x="776" d="M-27 1448v88h242l518 -1479v-80h-248z" />
<glyph unicode="]" horiz-adv-x="473" d="M43 96h141v1223h-141v217h395v-1657h-395v217z" />
<glyph unicode="^" horiz-adv-x="976" d="M-12 926v131l397 471h154l397 -471v-131h-254l-221 331l-221 -331h-252z" />
<glyph unicode="_" horiz-adv-x="923" d="M25 0v215h849v-215h-849z" />
<glyph unicode="`" horiz-adv-x="538" d="M8 1798v129l228 27l249 -328v-90l-174 -31z" />
<glyph unicode="a" horiz-adv-x="1093" d="M39 315q0 59 26.5 113t67.5 92t87 63.5t89 34.5l393 29q-4 141 -39.5 189.5t-130.5 48.5q-85 0 -163 -11t-219 -51l-54 176q92 50 192 75.5t244 25.5q69 0 124 -8t97.5 -26t73.5 -42t53 -61.5t35.5 -77.5t21 -98t10.5 -115t3 -135v-537h-248v35q-104 -58 -233 -58 q-219 0 -324.5 75t-105.5 263zM287 315q0 -72 45.5 -96t136.5 -24q78 0 131.5 17.5t101.5 63.5v150l-376 -29q-39 -33 -39 -82z" />
<glyph unicode="b" d="M121 70v1466h248v-510q108 74 256 74q80 0 142 -15t117.5 -53t92 -100.5t57.5 -162t21 -232.5q0 -102 -11.5 -182.5t-32 -139t-53.5 -101t-70.5 -68.5t-88 -42t-101 -21.5t-114.5 -5.5q-163 0 -264.5 22.5t-198.5 70.5zM369 205q82 -10 215 -10q96 0 157 34 q11 20 23.5 51t26.5 103.5t14 153.5q0 65 -3 110t-13.5 93.5t-29.5 77.5t-52.5 48t-81.5 19q-88 0 -143.5 -28.5t-112.5 -94.5v-557z" />
<glyph unicode="c" horiz-adv-x="1091" d="M53 537q0 101 13 182.5t35 139.5t56.5 101t73.5 69.5t90.5 42.5t102 22t113.5 6q249 0 434 -103l-76 -190q-188 78 -358 78q-51 0 -125 -19l-43 -18q-66 -132 -66 -311q0 -69 4 -115t17.5 -93t38.5 -73.5t68.5 -43.5t105.5 -17q53 0 92 3t112.5 21t153.5 51l76 -190 q-185 -103 -434 -103q-63 0 -113.5 5.5t-102 21.5t-90.5 42t-73.5 69t-56.5 100.5t-35 139t-13 182.5z" />
<glyph unicode="d" horiz-adv-x="1140" d="M59 537q0 101 11.5 181.5t32 139t53 101.5t69.5 70t87 43t100 22t114 6q120 0 217 -31v467h248v-1536h-248v31q-90 -54 -213 -54q-75 0 -132 8.5t-113.5 30t-95.5 61.5t-69.5 101t-45.5 151t-15 208zM305 537q0 -70 3.5 -115t16 -92.5t36.5 -74t66 -43.5t103 -17 q70 0 118.5 19t94.5 62v590q-74 19 -213 19q-38 0 -112 -19l-45 -18q0 -1 -6.5 -14.5t-11.5 -25.5t-13 -33t-13.5 -45t-11.5 -53.5t-9 -65.5t-3 -74z" />
<glyph unicode="e" horiz-adv-x="1140" d="M53 537q0 101 13 182.5t35 139.5t56.5 101t73.5 69.5t90.5 42.5t102 22t113.5 6q67 0 115 -3.5t101 -16.5t89.5 -35.5t71 -61.5t55 -94t33 -134.5t12.5 -181.5l-31 -133l-639 -41l-35 -6q15 -94 67 -146t161 -52q53 0 92 3t113 21t155 51l74 -190q-178 -103 -434 -103 q-63 0 -113.5 5.5t-102 21.5t-90.5 42t-73.5 69t-56.5 100.5t-35 139t-13 182.5zM307 616l29 5l434 28q-4 63 -15 103.5t-36.5 72t-70 46t-111.5 14.5q-113 0 -181 -49q-13 -16 -24 -48q-25 -62 -25 -172z" />
<glyph unicode="f" horiz-adv-x="733" d="M8 887v192h154q0 113 12 194.5t33.5 132t56.5 80t74 40t94 10.5q111 0 311 -84l-51 -215q-139 53 -268 63q-10 -35 -14 -221h235v-215h-235v-864h-248v868z" />
<glyph unicode="g" horiz-adv-x="1220" d="M41 -180q0 162 88 286q-82 65 -82 168v6q0 105 100 201q-30 76 -30 226q0 49 7.5 93t24.5 90t49 82.5t77 66t113 45.5t153 16q157 0 280 -56l25 56l328 -21v-192l-189 -19q21 -72 21 -174q0 -54 -14 -104t-48 -99.5t-86 -85.5t-133.5 -58.5t-183.5 -22.5q-143 0 -236 26 l-53 -78q43 -18 107.5 -28.5t130 -12.5t139.5 -7t140 -11.5t127.5 -27t106 -51.5t71 -87t26.5 -133q0 -173 -154 -265.5t-436 -92.5q-76 0 -142.5 8t-127.5 27.5t-104.5 49.5t-69 75.5t-25.5 103.5zM287 -137q0 -76 229 -76q139 5 234.5 33.5t95.5 85.5q0 18 -11.5 32.5 t-33 24.5t-48.5 17.5t-63 12.5t-71 9t-77 8q-15 1 -22 2q-144 14 -190 21q-43 -77 -43 -170zM367 713q0 -101 37.5 -136.5t136.5 -35.5q78 0 139 22q33 9 59 23q19 57 19 114q0 104 -54.5 144.5t-162.5 40.5q-113 0 -154 -31q-20 -60 -20 -141z" />
<glyph unicode="h" horiz-adv-x="1165" d="M109 0v1536h247v-494q104 58 238 58q81 0 141 -10.5t117.5 -40.5t93.5 -81t58 -137t22 -204v-627h-248v627q0 49 -3.5 84t-14.5 70t-31 56t-54 34.5t-81 13.5q-79 0 -135 -19t-103 -63v-803h-247z" />
<glyph unicode="i" horiz-adv-x="497" d="M33 831v248h350v-1079h-248v831h-102zM63 1400q11 42 50 77q58 52 113.5 52.5t109.5 -52.5q55 -51 56 -111q0 -58 -54 -113q-58 -58 -115 -58q-56 0 -112 56q-31 32 -45 70q-7 21 -8 43q0 17 5 36z" />
<glyph unicode="j" horiz-adv-x="581" d="M-96 -344l49 229q64 -27 147 -43q37 -9 68 -12q20 70 20 217v784h-102v248h350v-1032q0 -170 -28.5 -269t-82 -139t-141.5 -40q-89 0 -280 57zM114 1400q11 42 50 77q58 53 113.5 53t109.5 -53q55 -51 55 -111q0 -58 -53 -113q-58 -58 -115 -58q-56 0 -112 56 q-32 32 -46 70q-7 21 -7 43q0 18 5 36z" />
<glyph unicode="k" horiz-adv-x="1071" d="M82 0v1536h248v-885l102 49l324 379h202v-114l-284 -347q49 -121 120 -238t112.5 -171t78.5 -96v-113h-209q-43 32 -96 94q-113 142 -205 367l-145 -78v-383h-248z" />
<glyph unicode="l" horiz-adv-x="425" d="M76 0v1536h248v-1536h-248z" />
<glyph unicode="m" horiz-adv-x="1865" d="M135 0v1079h248v-43q97 64 229 64q122 0 208.5 -28.5t142.5 -102.5q138 131 325 131q80 0 140 -9.5t118 -38.5t95.5 -77.5t60 -130t22.5 -193.5v-651h-247v651q0 114 -40 171t-149 57q-158 0 -248 -93q11 -72 11 -135v-651h-248v657q0 108 -57 165t-146 57 q-118 0 -217 -86v-793h-248z" />
<glyph unicode="n" horiz-adv-x="1204" d="M147 0v1079h248v-45q107 66 234 66q80 0 139.5 -9.5t117.5 -38.5t95 -77.5t59.5 -130t22.5 -193.5v-651h-248v657q0 109 -41 165.5t-145 56.5q-78 0 -132.5 -19t-101.5 -63v-797h-248z" />
<glyph unicode="o" horiz-adv-x="1120" d="M68 537q0 141 24 243t64 163t104 97t131 48t158 12q89 0 155.5 -12t130.5 -48t104.5 -97t65.5 -163t25 -243q0 -102 -12.5 -183t-33.5 -139.5t-55 -101t-72.5 -68.5t-90 -41.5t-102 -21t-115.5 -5.5q-64 0 -114.5 5.5t-102.5 21t-90 41.5t-72 69t-55.5 101t-34 139 t-12.5 183zM315 537q0 -69 4 -115t17.5 -93t38.5 -73.5t68.5 -43.5t105.5 -17q103 0 168 36q21 30 44 110.5t23 195.5q0 68 -4.5 115.5t-18.5 94.5t-39 75t-68.5 45.5t-104.5 17.5q-52 0 -117 -21l-53 -18q-9 -12 -22 -45t-27.5 -107t-14.5 -157z" />
<glyph unicode="p" horiz-adv-x="1177" d="M123 -399v1478h246v-43q94 64 217 64q74 0 131 -8.5t112.5 -30.5t95 -63t70 -102.5t45.5 -152t15 -208.5q0 -102 -12 -183t-32.5 -139t-53.5 -100.5t-70 -68t-87.5 -41t-100 -21t-113.5 -5.5q-38 0 -76 3q-79 4 -141 18v-397h-246zM369 205q78 -10 217 -10q100 0 153 32 q11 16 23.5 45t27.5 103t15 160q0 60 -2 97.5t-8.5 82t-21 70.5t-38.5 49.5t-61 34t-88 10.5q-68 0 -117 -21t-100 -65v-588z" />
<glyph unicode="q" horiz-adv-x="1175" d="M66 532q0 145 22 248t58.5 164.5t98 97t126 47t155.5 11.5q163 0 264.5 -21.5t208.5 -66.5v-1411h-247v454q-98 -78 -250 -78q-80 0 -142.5 14t-119.5 51.5t-94 99t-58.5 160t-21.5 230.5zM313 535q0 -67 3.5 -113.5t15 -93.5t31.5 -75t55 -45.5t84 -17.5q82 0 137.5 29 t112.5 94v549q-16 2 -60 9t-82.5 10.5t-85.5 3.5q-54 0 -106 -21l-37 -18q-12 -18 -24 -44t-28 -101t-16 -166z" />
<glyph unicode="r" horiz-adv-x="780" d="M88 0v1079h248v-82q61 62 110.5 82.5t108.5 20.5q81 0 188 -39l-20 -246h-88q-35 27 -62.5 38t-68.5 11q-52 0 -87 -22.5t-81 -73.5v-768h-248z" />
<glyph unicode="s" horiz-adv-x="983" d="M63 74l41 200q228 -81 357 -81q107 0 166 36q6 19 7 36.5t-2 31t-12.5 27t-18 22.5t-25.5 19t-28 16t-32 14t-32.5 12t-33.5 11t-30 10q-32 11 -58 22t-56 24.5t-53 27.5t-48.5 32t-43 36.5t-35.5 41.5t-27 47.5t-17 54.5t-6 62t6 70q16 86 72.5 145t132 84t166.5 25 q94 0 200 -30t189 -71l-39 -206q-202 84 -336 84q-51 0 -80 -8.5t-57 -28.5q-10 -31 -4.5 -54t20 -40t39 -29.5t51.5 -22.5t58 -20q9 -3 14 -4q36 -13 63.5 -23.5t61 -25.5t58.5 -29t52.5 -32.5t47.5 -38t38.5 -43t29.5 -51t18 -58.5q6 -27 6 -58v-9q-1 -36 -9 -77 q-16 -86 -77.5 -144t-143 -82t-180.5 -24q-102 0 -214.5 28t-195.5 71z" />
<glyph unicode="t" horiz-adv-x="739" d="M23 887v192h153v92l43 209h205v-301h207v-215h-207v-528q0 -75 37 -108t149 -33v-195q-65 0 -98 1t-88 7t-83 18.5t-65.5 36.5t-55.5 59.5t-31 89.5t-13 124v532z" />
<glyph unicode="u" horiz-adv-x="1206" d="M106 416v663h248v-661q2 -45 7 -77t17.5 -62.5t33 -49t54.5 -30t81 -11.5q117 0 229 101v790h248v-1079h-248v35q-104 -58 -229 -58q-81 0 -139.5 8.5t-116.5 35.5t-94.5 74t-61 127.5t-29.5 193.5z" />
<glyph unicode="v" horiz-adv-x="1107" d="M-2 1079h260q118 -423 258 -821h14q83 222 254 821h256q-116 -418 -189 -646.5t-167 -432.5h-322q-182 421 -364 1079z" />
<glyph unicode="w" horiz-adv-x="1710" d="M-18 1079h258q18 -63 52 -183t48 -168.5t39 -132.5t40.5 -130t36 -102.5t40.5 -104.5h18q64 155 150 457q-44 144 -97 364h254q18 -63 52 -183t48 -168.5t39 -132.5t40.5 -130t36 -102.5t40.5 -104.5h17q109 279 254 821h260q-106 -379 -185.5 -620.5t-175.5 -458.5h-323 q-46 99 -129 311q-8 -20 -129 -311h-326q-52 107 -94.5 215t-92.5 269.5t-76.5 256t-94.5 338.5z" />
<glyph unicode="x" horiz-adv-x="1183" d="M12 0v84q176 196 369 459q-63 76 -174.5 225t-161.5 211v100h236q61 -78 274 -370q27 36 82.5 111.5t103 138t93.5 120.5h223v-98q-123 -180 -316 -438q207 -279 359 -461v-82h-273l-268 371l-276 -371h-271z" />
<glyph unicode="y" horiz-adv-x="1030" d="M-29 1079h256q29 -98 77.5 -263t69 -233.5t51 -161t58.5 -163.5h21q37 95 78 223t73 237t103 361h256q-112 -402 -215 -692.5t-324 -785.5h-270q29 58 64.5 134t72 157t49.5 108h-61q-90 192 -167.5 431t-191.5 648z" />
<glyph unicode="z" horiz-adv-x="1032" d="M43 182q95 87 187 199t198.5 254.5t171.5 220.5h-520l12 223h830l14 -186q-70 -67 -143.5 -158.5t-127 -169.5t-127 -175.5t-139.5 -168.5h547l-12 -221h-877z" />
<glyph unicode="{" horiz-adv-x="792" d="M-8 596v227h65q77 0 115.5 39t38.5 133q0 99 7 170t26 135.5t52.5 105.5t86.5 72t128 44.5t177 13.5v-219q-33 0 -60 -4t-48 -13.5t-37.5 -19.5t-28.5 -27.5t-20.5 -31.5t-13.5 -38.5t-8.5 -41.5t-4.5 -46.5t-1.5 -48t-0.5 -51.5q0 -193 -90 -290q90 -94 90 -285 q0 -136 21 -204.5t66.5 -94t135.5 -25.5v-217q-102 0 -177 13.5t-128 44.5t-86.5 72t-52.5 105.5t-26 135.5t-7 170q0 94 -38 132.5t-116 43.5h-65z" />
<glyph unicode="|" horiz-adv-x="440" d="M57 -291v1942h254v-1942h-254z" />
<glyph unicode="}" horiz-adv-x="747" d="M20 96q90 0 136 25.5t67 94.5t21 204q0 191 90 285q-90 97 -90 290q0 36 -0.5 57t-2.5 53t-6 50.5t-11.5 44t-19 40.5t-28.5 31.5t-38.5 25t-51.5 14.5t-66 6v219q87 0 155 -11t118.5 -31t86 -54t58.5 -75t36.5 -100t18.5 -122t5 -148q0 -94 38 -133t115 -39h66v-227h-66 q-78 -5 -115.5 -43.5t-37.5 -132.5q0 -85 -5 -148t-18.5 -122t-36.5 -100t-58.5 -75t-86 -54t-118.5 -31t-155 -11v217z" />
<glyph unicode="~" horiz-adv-x="1021" d="M-2 549q54 248 272 248q88 0 232.5 -46t206.5 -53q26 16 71 88l199 -71q-94 -244 -289 -244q-84 0 -226 43.5t-204 50.5q-34 -21 -70 -88z" />
<glyph unicode="&#xa1;" horiz-adv-x="479" d="M73 1200.5q-11 41.5 2.5 79.5t45.5 70q113 112 227 -2q54 -56 53 -115t-55 -109q-108 -105 -223 0q-39 35 -50 76.5zM94 -20l19 938l39 67h186l51 -944l-22 -94z" />
<glyph unicode="&#xa2;" horiz-adv-x="929" d="M39 551q0 125 18 219.5t49.5 156t81 101.5t104.5 59.5t128 28.5v135h254v-135q91 -9 190 -37l-45 -205q-153 29 -284 29q-91 0 -175 -41q-65 -106 -65 -311q0 -71 4 -118.5t18 -95.5t39.5 -75.5t70 -45t108.5 -17.5q160 0 280 24l53 -198q-102 -32 -194 -41v-131h-254 v131q-73 9 -128 28.5t-104.5 60t-81 102.5t-49.5 156.5t-18 219.5z" />
<glyph unicode="&#xa3;" horiz-adv-x="1097" d="M31 0v195l153 12v352l-153 -8v227l153 8v144q0 74 7 135t18 107t31 82t41 60.5t52.5 42t60.5 27t71.5 15t77.5 7t86 1.5q276 0 442 -205l-192 -119q-56 42 -111 63t-139 21q-122 0 -170 -34q-21 -113 -21 -224v-121h219l140 13v-228l-133 -12h-226v-334h617v-227h-1024z " />
<glyph unicode="&#xa4;" horiz-adv-x="1372" d="M109 111l114 114q-104 137 -104 324q0 182 104 323l-114 115l120 121l115 -115q146 107 324 107q174 0 323 -107l115 115l121 -121l-115 -115q107 -149 107 -323q0 -177 -107 -326l115 -114l-121 -119l-115 114q-141 -104 -323 -104q-181 0 -326 104l-115 -114zM285 549 q0 -160 111.5 -271.5t271.5 -111.5q159 0 272 112t113 271q0 158 -113.5 271.5t-271.5 113.5q-159 0 -271 -113t-112 -272z" />
<glyph unicode="&#xa5;" horiz-adv-x="1167" d="M-29 1380h279q133 -291 321 -651q182 342 326 651h264q-177 -395 -332 -692h160v-227h-289v-111h289v-227h-289v-123h-254v123h-307v227h307v111h-307v227h176q-221 432 -344 692z" />
<glyph unicode="&#xa6;" horiz-adv-x="450" d="M106 -311v665h170v-665h-170zM106 999v666h170v-666h-170z" />
<glyph unicode="&#xa7;" horiz-adv-x="1189" d="M109 -209l106 96q101 -98 338 -98q140 0 244 74q46 34 80 74q10 42 12 77t-6.5 62.5t-21 49.5t-36 40t-45 31.5t-55.5 26.5t-60.5 22t-66.5 21q-5 1 -8 2t-7 2.5t-8 2.5q-85 27 -137.5 47t-123 59t-108 82.5t-61.5 111.5t-14 151q24 202 191 285q-103 56 -155 140 t-36 210q20 165 134.5 250.5t307.5 85.5q145 -2 253.5 -38t191.5 -118l-107 -90q-48 53 -127.5 74.5t-210.5 21.5q-80 0 -165 -33q-44 -18 -68 -32q-31 -56 -42 -104.5t-7 -83t27 -65t46.5 -49.5t66 -39t71.5 -30t75 -25q8 -3 12.5 -4.5t11.5 -3.5t13 -4q42 -14 64 -21.5 t62.5 -22.5t63 -26t57 -28.5t54.5 -34t46 -39t40.5 -47t29 -54t20.5 -63.5t6 -73q0 -106 -53 -187.5t-148 -134.5q96 -52 148.5 -126t52.5 -187q0 -176 -143.5 -285t-360.5 -109q-296 0 -444 156zM293 656.5q3 -34.5 31 -67t51.5 -51.5t76.5 -42t84 -33.5t96 -31.5 q2 -1 3 -1q96 17 182 82q43 31 60 59q12 48 11.5 87t-10 67.5t-30.5 52.5t-44.5 40.5t-58.5 31.5t-67 26t-75 24q-24 7 -36 11q-86 -3 -161 -32q-41 -17 -66 -33q-31 -57 -40.5 -106t-6.5 -83.5z" />
<glyph unicode="&#xa8;" horiz-adv-x="860" d="M4 1710q0 61 57 116.5t119 55.5q58 0 115 -55.5t57 -116.5t-57 -118.5t-119 -57.5q-58 0 -115 57.5t-57 118.5zM453 1710q0 61 57 116.5t119 55.5q58 0 115 -55.5t57 -116.5t-57 -118.5t-119 -57.5q-58 0 -115 57.5t-57 118.5z" />
<glyph unicode="&#xab;" horiz-adv-x="1542" d="M66 524v168l544 408h127v-264l-340 -228l340 -227v-264h-127zM690 524v168l674 408h127v-264l-469 -228l469 -227v-264h-127z" />
<glyph unicode="&#xad;" horiz-adv-x="1036" d="M100 573v228h848v-228h-848z" />
<glyph unicode="&#xae;" horiz-adv-x="1705" />
<glyph unicode="&#xaf;" horiz-adv-x="708" d="M0 1536v227h684v-227h-684z" />
<glyph unicode="&#xb0;" horiz-adv-x="620" d="M57 1403q0 80 18.5 133t55.5 79.5t79.5 36t104.5 9.5q61 0 103 -9.5t79 -36t55.5 -79.5t18.5 -133q0 -81 -18 -134t-55 -80t-79.5 -36.5t-105.5 -9.5q-61 0 -103 9.5t-79 36t-55.5 80t-18.5 134.5zM250 1403q0 -39 11.5 -54.5t51.5 -15.5q29 0 35 2l12 4l11 15 q10 17 10 49q0 38 -12 52.5t-54 14.5q-14 0 -34 -4q-2 -1 -5 -1.5t-5 -1t-3 -1.5q-8 -8 -10 -14q-8 -13 -8 -45z" />
<glyph unicode="&#xb4;" horiz-adv-x="403" d="M8 1536v90l250 328l227 -27v-129l-303 -293z" />
<glyph unicode="&#xb5;" horiz-adv-x="1214" d="M115 -512v1591h247v-782q46 -46 99.5 -64t134.5 -18q105 0 145.5 55t40.5 166v643h248v-639q0 -94 -14.5 -165.5t-44 -119t-66 -79t-89 -48t-103 -22.5t-117.5 -6q-139 0 -234 59v-571h-247z" />
<glyph unicode="&#xb6;" horiz-adv-x="1052" d="M55 920q0 122 35.5 213t99.5 143.5t144.5 78t179.5 25.5h475v-106l-153 -23v-1282q0 -66 -5 -119t-19 -104.5t-36.5 -87.5t-59 -61.5t-85.5 -33t-117.5 4t-153.5 43.5l31 147q120 -45 238 -45q37 43 37 260v1278h-152v-790q-99 0 -179.5 25.5t-144.5 78.5t-99.5 143 t-35.5 212z" />
<glyph unicode="&#xb7;" horiz-adv-x="372" d="M24 702q11 41 50 76q115 105 223 0q54 -50 55 -108.5t-53 -114.5q-115 -115 -227 -2q-32 32 -45.5 70t-2.5 79z" />
<glyph unicode="&#xb8;" horiz-adv-x="460" d="M35 -104l37 217h239l-37 -172q42 -31 60.5 -48.5t34.5 -54t16 -88.5q0 -103 -95 -181.5t-253 -78.5v258q59 0 83.5 9.5t24.5 35.5q0 72 -110 72v31z" />
<glyph unicode="&#xba;" d="M68 537q0 141 24 243t64 163t104 97t131 48t158 12q89 0 155.5 -12t130.5 -48t104.5 -97t65.5 -163t25 -243q0 -102 -12.5 -183t-33.5 -139.5t-55 -101t-72.5 -68.5t-90 -41.5t-102 -21t-115.5 -5.5q-64 0 -114.5 5.5t-102.5 21t-90 41.5t-72 69t-55.5 101t-34 139 t-12.5 183zM315 537q0 -69 4 -115t17.5 -93t38.5 -73.5t68.5 -43.5t105.5 -17q103 0 168 36q21 30 44 110.5t23 195.5q0 68 -4.5 115.5t-18.5 94.5t-39 75t-68.5 45.5t-104.5 17.5q-52 0 -117 -21l-53 -18q-9 -12 -22 -45t-27.5 -107t-14.5 -157z" />
<glyph unicode="&#xbb;" horiz-adv-x="1566" d="M66 117v264l469 227l-469 228v264h127l673 -408v-168l-673 -407h-127zM819 117v264l340 227l-340 228v264h127l545 -408v-168l-545 -407h-127z" />
<glyph unicode="&#xbf;" horiz-adv-x="964" d="M14 324l193 41q9 -52 31 -136q3 -2 18.5 -13t19.5 -13.5t19 -11t23 -11.5t24 -8.5t30.5 -7.5t34.5 -4t42 -2q121 0 172 51q18 52 18 104q0 50 -33 107t-80 109l-94 104t-80 110t-33 109v39l41 65h187q0 -59 35.5 -123t86.5 -123t102 -120t86.5 -134.5t35.5 -146.5 q0 -96 -21 -166t-57.5 -113t-94.5 -68.5t-121.5 -34.5t-149.5 -9q-252 0 -416 193zM288 1172q-11 41 2.5 79t45.5 70q112 113 227 -2q54 -56 53 -114.5t-55 -108.5q-108 -105 -223 0q-39 35 -50 76z" />
<glyph unicode="&#xc0;" horiz-adv-x="1228" d="M6 0q207 779 344 1171l-127 19v190h541q100 -253 198.5 -584.5t221.5 -795.5h-264q-7 30 -101 397l-45 -10h-358l-51 -10q-44 -160 -95 -377h-264zM418 1798v129l227 27l250 -328v-90l-174 -31zM428 604l45 10h238l45 11l20 -70q-77 260 -170 545h-20q-82 -241 -158 -496 z" />
<glyph unicode="&#xc1;" horiz-adv-x="1228" d="M6 0q207 779 344 1171l-127 19v190h541q100 -253 198.5 -584.5t221.5 -795.5h-264q-7 30 -101 397l-45 -10h-358l-51 -10q-44 -160 -95 -377h-264zM418 1536v90l250 328l227 -27v-129l-303 -293zM428 604l45 10h238l45 11l20 -70q-77 260 -170 545h-20 q-82 -241 -158 -496z" />
<glyph unicode="&#xc2;" horiz-adv-x="1228" d="M6 0q207 779 344 1171l-127 19v190h541q100 -253 198.5 -584.5t221.5 -795.5h-264q-7 30 -101 397l-45 -10h-358l-51 -10q-44 -160 -95 -377h-264zM231 1536v133l320 289l133 -27l289 -262v-133l-228 -27l-143 187l-143 -187zM428 604l45 10h238l45 11l20 -70 q-77 260 -170 545h-20q-82 -241 -158 -496z" />
<glyph unicode="&#xc3;" horiz-adv-x="1228" d="M6 0q207 779 344 1171l-127 19v190h541q100 -253 198.5 -584.5t221.5 -795.5h-264q-7 30 -101 397l-45 -10h-358l-51 -10q-44 -160 -95 -377h-264zM106 1614q43 246 238 246q71 0 218 -44t190 -51q23 10 63 86l184 -75q-39 -132 -104.5 -186t-157.5 -54 q-74 0 -220.5 43.5t-170.5 48.5q-23 -19 -61 -88zM428 604l45 10h238l45 11l20 -70q-77 260 -170 545h-20q-82 -241 -158 -496z" />
<glyph unicode="&#xc4;" horiz-adv-x="1228" d="M6 0q207 779 344 1171l-127 19v190h541q100 -253 198.5 -584.5t221.5 -795.5h-264q-7 30 -101 397l-45 -10h-358l-51 -10q-44 -160 -95 -377h-264zM182 1710q0 61 57 116.5t119 55.5q58 0 115 -55.5t57 -116.5t-57 -118.5t-119 -57.5q-58 0 -115 57.5t-57 118.5zM428 604 l45 10h238l45 11l20 -70q-77 260 -170 545h-20q-82 -241 -158 -496zM631 1710q0 61 57 116.5t119 55.5q58 0 115 -55.5t57 -116.5t-57 -118.5t-119 -57.5q-58 0 -115 57.5t-57 118.5z" />
<glyph unicode="&#xc5;" horiz-adv-x="1228" d="M6 0q78 291 123 455.5t111.5 384.5t124.5 377q-52 68 -52 210q0 73 14.5 126t38.5 84t63 49t78.5 24t94.5 6q54 0 93.5 -6t78 -24t62.5 -49t38.5 -84t14.5 -126q0 -155 -60 -221q150 -423 355 -1206h-264q-7 30 -101 397l-45 -10h-358l-51 -10q-44 -160 -95 -377h-264z M428 604l45 10h238l45 11l20 -70q-77 260 -170 545h-20q-82 -241 -158 -496zM549 1427q0 -34 9 -47.5t42 -13.5q36 0 45.5 10t9.5 51q0 32 -10 46t-43 14q-35 0 -44 -10.5t-9 -49.5z" />
<glyph unicode="&#xc6;" horiz-adv-x="1757" d="M-6 0q207 779 344 1171l-127 19v190h1399l24 -227h-649q8 -55 25.5 -169t27.5 -189l62 6h420l20 -228h-424l-47 -6l51 -340h576l20 -227h-823l-55 387h-435l-51 -10q-41 -151 -94 -377h-264zM418 604l43 10h346l-6 56q-10 73 -34 230.5t-36 252.5h-141 q-106 -323 -172 -549z" />
<glyph unicode="&#xc7;" horiz-adv-x="1216" d="M31 682q0 128 16.5 231.5t45 177.5t73.5 129t95.5 89t116.5 54.5t131 28t146 7.5q140 0 254 -46t215 -151l-166 -147q-54 59 -125 83.5t-178 24.5q-99 0 -186 -26q-43 -12 -78 -27q-12 -19 -25 -46.5t-33 -82.5t-33 -134.5t-13 -166.5q0 -66 3 -115t12.5 -100t26 -86.5 t44 -68.5t66 -52.5t93 -31t123.5 -11.5q136 0 277 49q54 18 110 49l101 -190q-167 -112 -373 -137l-8 -45q31 -23 46 -36t32.5 -36t24.5 -51t7 -68q0 -103 -95 -181.5t-253 -78.5v258q59 0 84 9.5t25 35.5q0 72 -111 72v31l15 86q-94 7 -166 29t-138 71t-109 125t-68 196 t-25 279z" />
<glyph unicode="&#xc8;" horiz-adv-x="1099" d="M102 0v1380h869v-227h-615v-362l43 10h437v-228h-437l-43 -10v-336h615v-227h-869zM352 1798v129l228 27l249 -328v-90l-174 -31z" />
<glyph unicode="&#xc9;" horiz-adv-x="1099" d="M102 0v1380h869v-227h-615v-362l43 10h437v-228h-437l-43 -10v-336h615v-227h-869zM352 1536v90l250 328l227 -27v-129l-303 -293z" />
<glyph unicode="&#xca;" horiz-adv-x="1099" d="M102 0v1380h869v-227h-615v-362l43 10h437v-228h-437l-43 -10v-336h615v-227h-869zM166 1536v133l319 289l133 -27l289 -262v-133l-227 -27l-143 187l-144 -187z" />
<glyph unicode="&#xcb;" horiz-adv-x="1099" d="M102 0v1380h869v-227h-615v-362l43 10h437v-228h-437l-43 -10v-336h615v-227h-869zM119 1710q0 61 57 116.5t119 55.5q58 0 115 -55.5t57 -116.5t-57 -118.5t-119 -57.5q-58 0 -115 57.5t-57 118.5zM567 1710q0 61 57 116.5t119 55.5q58 0 115 -55.5t57 -116.5 t-57 -118.5t-119 -57.5q-58 0 -115 57.5t-57 118.5z" />
<glyph unicode="&#xcc;" horiz-adv-x="460" d="M33 1798v129l227 27l250 -328v-90l-174 -31zM92 0v1380h254v-1380h-254z" />
<glyph unicode="&#xcd;" horiz-adv-x="460" d="M33 1536v90l250 328l227 -27v-129l-303 -293zM92 0v1380h254v-1380h-254z" />
<glyph unicode="&#xce;" horiz-adv-x="460" d="M-152 1536v133l320 289l133 -27l289 -262v-133l-228 -27l-143 187l-143 -187zM92 0v1380h254v-1380h-254z" />
<glyph unicode="&#xcf;" horiz-adv-x="460" d="M-201 1710q0 61 57 116.5t119 55.5q58 0 115 -55.5t57 -116.5t-57 -118.5t-119 -57.5q-58 0 -115 57.5t-57 118.5zM92 0v1380h254v-1380h-254zM248 1710q0 61 57 116.5t119 55.5q58 0 115 -55.5t57 -116.5t-57 -118.5t-119 -57.5q-58 0 -115 57.5t-57 118.5z" />
<glyph unicode="&#xd0;" horiz-adv-x="1277" d="M-29 573v228h101v579h456q80 0 142.5 -6t128.5 -24.5t114.5 -50t93 -84t72 -124.5t44 -174t16.5 -231q0 -101 -9.5 -185t-26 -149t-44 -116.5t-58 -88t-72.5 -63.5t-83.5 -43t-96 -25t-105 -12.5t-114.5 -3.5h-458v573h-101zM328 227h164q136 0 233 29q35 10 61 29l-4 -6 q36 55 52 98q51 135 51 307q0 66 -3 115t-12.5 100.5t-25.5 87.5t-42.5 69.5t-64 53.5t-90 31.5t-119.5 11.5h-200v-352h200v-228h-200v-346z" />
<glyph unicode="&#xd1;" horiz-adv-x="1327" d="M74 0v1380h358q307 -694 449 -1001h10v1001h254v-1380h-357q-110 257 -448 983h-10v-983h-256zM190 1614q43 246 238 246q71 0 218 -44t190 -51q23 10 63 86l184 -75q-39 -132 -104.5 -186t-157.5 -54q-74 0 -220.5 43.5t-170.5 48.5q-23 -19 -61 -88z" />
<glyph unicode="&#xd2;" horiz-adv-x="1415" d="M37 686q0 128 17 231.5t46.5 177t75.5 128t97 88t118 53.5t132.5 27.5t146.5 7.5q79 0 143.5 -7.5t131 -27.5t117.5 -53.5t96.5 -88t75.5 -128t47 -177t17 -231.5q0 -129 -17 -232.5t-45.5 -177t-74 -127.5t-96 -86.5t-117.5 -52t-132 -26.5t-146 -7t-146 7t-133 26.5 t-118.5 52t-96.5 86.5t-75.5 127.5t-46.5 177t-17 232.5zM293 684q0 -93 7.5 -158t30.5 -127.5t63.5 -100t109.5 -60.5t166 -23q144 0 254 57q5 5 15.5 20t29.5 52t35 82t28 114t12 144q0 91 -8 157.5t-31.5 130.5t-64 103.5t-108.5 63.5t-162 24q-91 0 -193 -28 q-37 -9 -84 -27q-21 -35 -40 -80.5t-39.5 -142t-20.5 -201.5zM510 1798v129l227 27l250 -328v-90l-174 -31z" />
<glyph unicode="&#xd3;" horiz-adv-x="1415" d="M37 686q0 128 17 231.5t46.5 177t75.5 128t97 88t118 53.5t132.5 27.5t146.5 7.5q79 0 143.5 -7.5t131 -27.5t117.5 -53.5t96.5 -88t75.5 -128t47 -177t17 -231.5q0 -129 -17 -232.5t-45.5 -177t-74 -127.5t-96 -86.5t-117.5 -52t-132 -26.5t-146 -7t-146 7t-133 26.5 t-118.5 52t-96.5 86.5t-75.5 127.5t-46.5 177t-17 232.5zM293 684q0 -93 7.5 -158t30.5 -127.5t63.5 -100t109.5 -60.5t166 -23q144 0 254 57q5 5 15.5 20t29.5 52t35 82t28 114t12 144q0 91 -8 157.5t-31.5 130.5t-64 103.5t-108.5 63.5t-162 24q-91 0 -193 -28 q-37 -9 -84 -27q-21 -35 -40 -80.5t-39.5 -142t-20.5 -201.5zM510 1536v90l250 328l227 -27v-129l-303 -293z" />
<glyph unicode="&#xd4;" horiz-adv-x="1415" d="M37 686q0 128 17 231.5t46.5 177t75.5 128t97 88t118 53.5t132.5 27.5t146.5 7.5q79 0 143.5 -7.5t131 -27.5t117.5 -53.5t96.5 -88t75.5 -128t47 -177t17 -231.5q0 -129 -17 -232.5t-45.5 -177t-74 -127.5t-96 -86.5t-117.5 -52t-132 -26.5t-146 -7t-146 7t-133 26.5 t-118.5 52t-96.5 86.5t-75.5 127.5t-46.5 177t-17 232.5zM293 684q0 -93 7.5 -158t30.5 -127.5t63.5 -100t109.5 -60.5t166 -23q144 0 254 57q5 5 15.5 20t29.5 52t35 82t28 114t12 144q0 91 -8 157.5t-31.5 130.5t-64 103.5t-108.5 63.5t-162 24q-91 0 -193 -28 q-37 -9 -84 -27q-21 -35 -40 -80.5t-39.5 -142t-20.5 -201.5zM324 1536v133l319 289l133 -27l289 -262v-133l-227 -27l-144 187l-143 -187z" />
<glyph unicode="&#xd5;" horiz-adv-x="1415" d="M37 686q0 128 17 231.5t46.5 177t75.5 128t97 88t118 53.5t132.5 27.5t146.5 7.5q79 0 143.5 -7.5t131 -27.5t117.5 -53.5t96.5 -88t75.5 -128t47 -177t17 -231.5q0 -129 -17 -232.5t-45.5 -177t-74 -127.5t-96 -86.5t-117.5 -52t-132 -26.5t-146 -7t-146 7t-133 26.5 t-118.5 52t-96.5 86.5t-75.5 127.5t-46.5 177t-17 232.5zM236 1614q43 246 237 246q71 0 218 -44t190 -51q23 10 63 86l184 -75q-39 -132 -104.5 -186t-157.5 -54q-74 0 -220.5 43.5t-170.5 48.5q-23 -19 -61 -88zM293 684q0 -93 7.5 -158t30.5 -127.5t63.5 -100 t109.5 -60.5t166 -23q144 0 254 57q5 5 15.5 20t29.5 52t35 82t28 114t12 144q0 91 -8 157.5t-31.5 130.5t-64 103.5t-108.5 63.5t-162 24q-91 0 -193 -28q-37 -9 -84 -27q-21 -35 -40 -80.5t-39.5 -142t-20.5 -201.5z" />
<glyph unicode="&#xd6;" horiz-adv-x="1415" d="M37 686q0 128 17 231.5t46.5 177t75.5 128t97 88t118 53.5t132.5 27.5t146.5 7.5q79 0 143.5 -7.5t131 -27.5t117.5 -53.5t96.5 -88t75.5 -128t47 -177t17 -231.5q0 -129 -17 -232.5t-45.5 -177t-74 -127.5t-96 -86.5t-117.5 -52t-132 -26.5t-146 -7t-146 7t-133 26.5 t-118.5 52t-96.5 86.5t-75.5 127.5t-46.5 177t-17 232.5zM276 1710q0 61 57.5 116.5t119.5 55.5q58 0 115 -55.5t57 -116.5t-57 -118.5t-119 -57.5q-58 0 -115.5 57.5t-57.5 118.5zM293 684q0 -93 7.5 -158t30.5 -127.5t63.5 -100t109.5 -60.5t166 -23q144 0 254 57 q5 5 15.5 20t29.5 52t35 82t28 114t12 144q0 91 -8 157.5t-31.5 130.5t-64 103.5t-108.5 63.5t-162 24q-91 0 -193 -28q-37 -9 -84 -27q-21 -35 -40 -80.5t-39.5 -142t-20.5 -201.5zM725 1710q0 61 57 116.5t119 55.5q58 0 115 -55.5t57 -116.5t-57 -118.5t-119 -57.5 q-58 0 -115 57.5t-57 118.5z" />
<glyph unicode="&#xd7;" horiz-adv-x="897" d="M70 403l219 220l-219 221l159 162l222 -222l219 220l161 -160l-221 -221l221 -220l-161 -159l-219 219l-222 -221z" />
<glyph unicode="&#xd8;" horiz-adv-x="1415" d="M37 686q0 128 17 231.5t46.5 177t75.5 128t97 88t118 53.5t132.5 27.5t146.5 7.5q83 0 106 -4l27 75h241v-88l-18 -51q132 -71 202 -223t70 -422q0 -129 -17 -232.5t-45.5 -177t-74 -127.5t-96 -86.5t-117.5 -52t-132 -26.5t-146 -7q-57 0 -125 7l-23 -64h-248v80l19 51 q-124 68 -190 220t-66 415zM293 684q0 -137 19.5 -227.5t72.5 -147.5l307 854h-22q-91 0 -193 -28q-37 -9 -84 -27q-21 -35 -40 -80.5t-39.5 -142t-20.5 -201.5zM627 215h43q144 0 254 57q5 5 15.5 20t29.5 52t35 82t28 114t12 144q0 143 -23 239.5t-85 155.5z" />
<glyph unicode="&#xd9;" horiz-adv-x="1339" d="M96 569v811h254v-811q0 -44 0.5 -71t3.5 -62.5t9 -57t16.5 -47.5t25.5 -41.5t37 -31.5t51 -24t67 -13.5t85 -5.5q71 0 146 27q26 7 57 26q76 152 76 418v694h254v-694q0 -171 -21.5 -293.5t-61.5 -203.5t-107 -127.5t-148 -65.5t-195 -19q-127 0 -216.5 18.5t-155 59 t-103.5 111t-56 168t-18 235.5zM473 1798v129l227 27l250 -328v-90l-174 -31z" />
<glyph unicode="&#xda;" horiz-adv-x="1339" d="M96 569v811h254v-811q0 -44 0.5 -71t3.5 -62.5t9 -57t16.5 -47.5t25.5 -41.5t37 -31.5t51 -24t67 -13.5t85 -5.5q71 0 146 27q26 7 57 26q76 152 76 418v694h254v-694q0 -171 -21.5 -293.5t-61.5 -203.5t-107 -127.5t-148 -65.5t-195 -19q-127 0 -216.5 18.5t-155 59 t-103.5 111t-56 168t-18 235.5zM473 1536v90l250 328l227 -27v-129l-303 -293z" />
<glyph unicode="&#xdb;" horiz-adv-x="1339" d="M96 569v811h254v-811q0 -44 0.5 -71t3.5 -62.5t9 -57t16.5 -47.5t25.5 -41.5t37 -31.5t51 -24t67 -13.5t85 -5.5q71 0 146 27q26 7 57 26q76 152 76 418v694h254v-694q0 -171 -21.5 -293.5t-61.5 -203.5t-107 -127.5t-148 -65.5t-195 -19q-127 0 -216.5 18.5t-155 59 t-103.5 111t-56 168t-18 235.5zM287 1536v133l319 289l133 -27l289 -262v-133l-227 -27l-144 187l-143 -187z" />
<glyph unicode="&#xdc;" horiz-adv-x="1339" d="M96 569v811h254v-811q0 -44 0.5 -71t3.5 -62.5t9 -57t16.5 -47.5t25.5 -41.5t37 -31.5t51 -24t67 -13.5t85 -5.5q71 0 146 27q26 7 57 26q76 152 76 418v694h254v-694q0 -171 -21.5 -293.5t-61.5 -203.5t-107 -127.5t-148 -65.5t-195 -19q-127 0 -216.5 18.5t-155 59 t-103.5 111t-56 168t-18 235.5zM238 1710q0 61 57 116.5t119 55.5q58 0 115 -55.5t57 -116.5t-57 -118.5t-119 -57.5q-58 0 -115 57.5t-57 118.5zM686 1710q0 61 57 116.5t119 55.5q58 0 115 -55.5t57 -116.5t-57 -118.5t-119 -57.5q-58 0 -115 57.5t-57 118.5z" />
<glyph unicode="&#xdd;" horiz-adv-x="1167" d="M-29 1380h279q133 -291 321 -651q182 342 326 651h264q-100 -231 -239 -509t-222 -427v-444h-254v444q-91 168 -237 453.5t-238 482.5zM387 1536v90l250 328l227 -27v-129l-303 -293z" />
<glyph unicode="&#xde;" horiz-adv-x="1112" d="M74 0l2 1380h254v-196h90q76 0 136.5 -4t127 -17t117 -34.5t97.5 -58t77.5 -86.5t48.5 -121.5t18 -160.5q0 -495 -512 -495h-159l-41 -4v-203h-256zM330 430q28 4 35 4h165q72 0 146 19q37 11 57 20q55 93 55 229q0 140 -86 197t-282 57h-90v-526z" />
<glyph unicode="&#xdf;" horiz-adv-x="1148" d="M115 0v1079q6 233 73 345t197 112q65 0 130 -11.5t139 -43.5t134 -81t108 -131.5t67 -187.5l-172 -233q116 -59 190 -162t74 -242q0 -112 -20.5 -196t-54.5 -135t-85.5 -82t-107 -42.5t-125.5 -11.5q-129 12 -209 56l2 223q57 -30 104 -44.5t60.5 -15.5t42.5 -1 q71 0 105.5 62t39.5 159q0 50 -13.5 90.5t-46 77t-94.5 60.5t-151 34v184l192 254q-30 83 -114.5 132.5t-196.5 54.5q-19 -120 -21 -275v-1028h-247z" />
<glyph unicode="&#xe0;" horiz-adv-x="1093" d="M39 315q0 59 26.5 113t67.5 92t87 63.5t89 34.5l393 29q-4 141 -39.5 189.5t-130.5 48.5q-85 0 -163 -11t-219 -51l-54 176q92 50 192 75.5t244 25.5q69 0 124 -8t97.5 -26t73.5 -42t53 -61.5t35.5 -77.5t21 -98t10.5 -115t3 -135v-537h-248v35q-104 -58 -233 -58 q-219 0 -324.5 75t-105.5 263zM272 1575v129l228 27l250 -328v-90l-175 -31zM287 315q0 -72 45.5 -96t136.5 -24q78 0 131.5 17.5t101.5 63.5v150l-376 -29q-39 -33 -39 -82z" />
<glyph unicode="&#xe1;" horiz-adv-x="1093" d="M39 315q0 59 26.5 113t67.5 92t87 63.5t89 34.5l393 29q-4 141 -39.5 189.5t-130.5 48.5q-85 0 -163 -11t-219 -51l-54 176q92 50 192 75.5t244 25.5q69 0 124 -8t97.5 -26t73.5 -42t53 -61.5t35.5 -77.5t21 -98t10.5 -115t3 -135v-537h-248v35q-104 -58 -233 -58 q-219 0 -324.5 75t-105.5 263zM287 315q0 -72 45.5 -96t136.5 -24q78 0 131.5 17.5t101.5 63.5v150l-376 -29q-39 -33 -39 -82zM410 1305v90l249 327l228 -26v-129l-303 -293z" />
<glyph unicode="&#xe2;" horiz-adv-x="1093" d="M39 315q0 59 26.5 113t67.5 92t87 63.5t89 34.5l393 29q-4 141 -39.5 189.5t-130.5 48.5q-85 0 -163 -11t-219 -51l-54 176q92 50 192 75.5t244 25.5q69 0 124 -8t97.5 -26t73.5 -42t53 -61.5t35.5 -77.5t21 -98t10.5 -115t3 -135v-537h-248v35q-104 -58 -233 -58 q-219 0 -324.5 75t-105.5 263zM164 1305v133l319 288l133 -26l289 -262v-133l-227 -27l-143 186l-144 -186zM287 315q0 -72 45.5 -96t136.5 -24q78 0 131.5 17.5t101.5 63.5v150l-376 -29q-39 -33 -39 -82z" />
<glyph unicode="&#xe3;" horiz-adv-x="1093" d="M39 315q0 59 26.5 113t67.5 92t87 63.5t89 34.5l393 29q-4 141 -39.5 189.5t-130.5 48.5q-85 0 -163 -11t-219 -51l-54 176q92 50 192 75.5t244 25.5q69 0 124 -8t97.5 -26t73.5 -42t53 -61.5t35.5 -77.5t21 -98t10.5 -115t3 -135v-537h-248v35q-104 -58 -233 -58 q-219 0 -324.5 75t-105.5 263zM74 1346q43 245 237 245q71 0 218.5 -43.5t189.5 -50.5q23 10 63 86l185 -76q-39 -132 -104.5 -185.5t-157.5 -53.5q-74 0 -221.5 43.5t-170.5 48.5q-23 -19 -61 -88zM287 315q0 -72 45.5 -96t136.5 -24q78 0 131.5 17.5t101.5 63.5v150 l-376 -29q-39 -33 -39 -82z" />
<glyph unicode="&#xe4;" horiz-adv-x="1093" d="M39 315q0 59 26.5 113t67.5 92t87 63.5t89 34.5l393 29q-4 141 -39.5 189.5t-130.5 48.5q-85 0 -163 -11t-219 -51l-54 176q92 50 192 75.5t244 25.5q69 0 124 -8t97.5 -26t73.5 -42t53 -61.5t35.5 -77.5t21 -98t10.5 -115t3 -135v-537h-248v35q-104 -58 -233 -58 q-219 0 -324.5 75t-105.5 263zM115 1458q0 61 57 116.5t119 55.5q58 0 115 -55.5t57 -116.5t-57 -118.5t-119 -57.5q-58 0 -115 57.5t-57 118.5zM287 315q0 -72 45.5 -96t136.5 -24q78 0 131.5 17.5t101.5 63.5v150l-376 -29q-39 -33 -39 -82zM563 1458q0 61 57 116.5 t119 55.5q58 0 115 -55.5t57 -116.5t-57 -118.5t-119 -57.5q-58 0 -115 57.5t-57 118.5z" />
<glyph unicode="&#xe5;" horiz-adv-x="1071" d="M16 315q0 77 45.5 145t106 107t119.5 51l393 29q-4 141 -39.5 189.5t-130.5 48.5q-86 0 -164 -11t-219 -51l-53 176q92 50 192 75.5t244 25.5q69 0 124 -8t97.5 -26t73.5 -42t53 -61.5t35.5 -77.5t21 -98t10.5 -115t3 -135v-537h-248v35q-104 -58 -234 -58 q-219 0 -324.5 75t-105.5 263zM238 1473q0 73 14.5 125.5t38.5 84t62.5 49t78 23.5t94.5 6q45 0 79 -4t68 -15t58 -31.5t43.5 -51.5t29 -78t9.5 -108q0 -75 -14.5 -128.5t-38 -84.5t-62 -49t-78.5 -23.5t-96 -5.5q-55 0 -93.5 5.5t-77.5 23.5t-62.5 49t-38 84.5t-14.5 128.5 zM264 315q0 -72 45.5 -96t136.5 -24q78 0 132 17.5t102 63.5v150l-377 -29q-39 -33 -39 -82zM473 1473q0 -34 9 -48t42 -14q36 0 46 10.5t10 51.5q0 32 -10.5 45.5t-43.5 13.5q-35 0 -44 -10t-9 -49z" />
<glyph unicode="&#xe6;" horiz-adv-x="1802" d="M57 338q0 47 17.5 89t45.5 72.5t64.5 54.5t72.5 38.5t71 21.5l391 31q0 41 -3 72.5t-13.5 64.5t-28.5 54.5t-50 35t-75 13.5q-85 0 -162.5 -11t-218.5 -51l-53 176q88 51 187.5 76t246.5 25q221 0 315 -101q111 101 338 101q67 0 115 -3.5t101 -16.5t89.5 -35.5t71 -61.5 t55 -94t33 -134.5t12.5 -181.5l-30 -133l-639 -41l-35 -6q15 -95 67 -146.5t160 -51.5q53 0 92.5 3t113.5 21t155 51l73 -190q-178 -103 -434 -103q-131 0 -224.5 30.5t-156.5 111.5q-81 -76 -157 -109t-179 -33q-214 0 -321 85t-107 276zM303 338q0 -74 49 -108.5 t133 -34.5q76 0 134 23t122 81q-14 48 -20 123l-379 -29q-39 -23 -39 -55zM973 616l28 5l435 34q-4 63 -14.5 102.5t-35.5 70.5t-69.5 44t-114.5 13q-108 0 -180 -43q-16 -23 -25 -56q-24 -67 -24 -170z" />
<glyph unicode="&#xe7;" horiz-adv-x="1091" d="M53 537q0 101 13 182.5t35 139.5t56.5 101t73.5 69.5t90.5 42.5t102 22t113.5 6q249 0 434 -103l-76 -190q-188 78 -358 78q-51 0 -125 -19l-43 -18q-66 -132 -66 -311q0 -69 4 -115t17.5 -93t38.5 -73.5t68.5 -43.5t105.5 -17q53 0 92 3t112.5 21t153.5 51l76 -190 q-131 -75 -295 -94l-8 -45q31 -23 46 -36t32.5 -36t24.5 -51t7 -68q0 -103 -95 -181.5t-253 -78.5v258q59 0 84 9.5t25 35.5q0 72 -111 72v31l14 86q-73 7 -128.5 25.5t-106 57.5t-83.5 99t-52 154t-19 219z" />
<glyph unicode="&#xe8;" horiz-adv-x="1140" d="M53 537q0 101 13 182.5t35 139.5t56.5 101t73.5 69.5t90.5 42.5t102 22t113.5 6q67 0 115 -3.5t101 -16.5t89.5 -35.5t71 -61.5t55 -94t33 -134.5t12.5 -181.5l-31 -133l-639 -41l-35 -6q15 -94 67 -146t161 -52q53 0 92 3t113 21t155 51l74 -190q-178 -103 -434 -103 q-63 0 -113.5 5.5t-102 21.5t-90.5 42t-73.5 69t-56.5 100.5t-35 139t-13 182.5zM307 616l29 5l434 28q-4 63 -15 103.5t-36.5 72t-70 46t-111.5 14.5q-113 0 -181 -49q-13 -16 -24 -48q-25 -62 -25 -172zM332 1575v129l227 27l250 -328v-90l-174 -31z" />
<glyph unicode="&#xe9;" horiz-adv-x="1140" d="M53 537q0 101 13 182.5t35 139.5t56.5 101t73.5 69.5t90.5 42.5t102 22t113.5 6q67 0 115 -3.5t101 -16.5t89.5 -35.5t71 -61.5t55 -94t33 -134.5t12.5 -181.5l-31 -133l-639 -41l-35 -6q15 -94 67 -146t161 -52q53 0 92 3t113 21t155 51l74 -190q-178 -103 -434 -103 q-63 0 -113.5 5.5t-102 21.5t-90.5 42t-73.5 69t-56.5 100.5t-35 139t-13 182.5zM307 616l29 5l434 28q-4 63 -15 103.5t-36.5 72t-70 46t-111.5 14.5q-113 0 -181 -49q-13 -16 -24 -48q-25 -62 -25 -172zM391 1313v90l250 328l227 -27v-129l-303 -293z" />
<glyph unicode="&#xea;" horiz-adv-x="1140" d="M53 537q0 101 13 182.5t35 139.5t56.5 101t73.5 69.5t90.5 42.5t102 22t113.5 6q67 0 115 -3.5t101 -16.5t89.5 -35.5t71 -61.5t55 -94t33 -134.5t12.5 -181.5l-31 -133l-639 -41l-35 -6q15 -94 67 -146t161 -52q53 0 92 3t113 21t155 51l74 -190q-178 -103 -434 -103 q-63 0 -113.5 5.5t-102 21.5t-90.5 42t-73.5 69t-56.5 100.5t-35 139t-13 182.5zM186 1309v133l320 289l133 -27l289 -262v-133l-228 -27l-143 186l-143 -186zM307 616l29 5l434 28q-4 63 -15 103.5t-36.5 72t-70 46t-111.5 14.5q-113 0 -181 -49q-13 -16 -24 -48 q-25 -62 -25 -172z" />
<glyph unicode="&#xeb;" horiz-adv-x="1140" d="M53 537q0 101 13 182.5t35 139.5t56.5 101t73.5 69.5t90.5 42.5t102 22t113.5 6q67 0 115 -3.5t101 -16.5t89.5 -35.5t71 -61.5t55 -94t33 -134.5t12.5 -181.5l-31 -133l-639 -41l-35 -6q15 -94 67 -146t161 -52q53 0 92 3t113 21t155 51l74 -190q-178 -103 -434 -103 q-63 0 -113.5 5.5t-102 21.5t-90.5 42t-73.5 69t-56.5 100.5t-35 139t-13 182.5zM131 1458q0 61 57 116.5t119 55.5q58 0 115 -55.5t57 -116.5t-57 -118.5t-119 -57.5q-58 0 -115 57.5t-57 118.5zM307 616l29 5l434 28q-4 63 -15 103.5t-36.5 72t-70 46t-111.5 14.5 q-113 0 -181 -49q-13 -16 -24 -48q-25 -62 -25 -172zM580 1458q0 61 57 116.5t119 55.5q58 0 115 -55.5t57 -116.5t-57 -118.5t-119 -57.5q-58 0 -115 57.5t-57 118.5z" />
<glyph unicode="&#xec;" horiz-adv-x="497" d="M4 1575v129l227 27l250 -328v-90l-174 -31zM33 831v248h350v-1079h-248v831h-102z" />
<glyph unicode="&#xed;" horiz-adv-x="497" d="M33 831v248h350v-1079h-248v831h-102zM145 1313v90l250 328l228 -27v-129l-304 -293z" />
<glyph unicode="&#xee;" horiz-adv-x="589" d="M-96 1309v133l319 289l133 -27l289 -262v-133l-227 -27l-144 186l-143 -186zM70 831v248h350v-1079h-248v831h-102z" />
<glyph unicode="&#xef;" horiz-adv-x="659" d="M-102 1458q0 61 57 116.5t119 55.5q58 0 115 -55.5t57 -116.5t-57 -118.5t-119 -57.5q-58 0 -115 57.5t-57 118.5zM113 831v248h350v-1079h-248v831h-102zM346 1458q0 61 57 116.5t119 55.5q58 0 115 -55.5t57 -116.5t-57 -118.5t-119 -57.5q-58 0 -115 57.5t-57 118.5z " />
<glyph unicode="&#xf0;" horiz-adv-x="1087" d="M57 537q0 141 23.5 243t62 163t101 97t128.5 48t156 12q72 0 211 -27q-9 98 -67 164l-58 -109l-168 84l52 127q-77 20 -133 27l24 199q158 -23 199 -37l67 125l185 -101l-56 -108q51 -33 89.5 -74.5t60 -83t34.5 -91t17 -91t4 -90.5v-1014h-248v31q-90 -54 -213 -54 q-74 0 -131 8.5t-113 30t-95.5 61.5t-70.5 100.5t-46 151t-15 208.5zM303 537q0 -70 3.5 -115.5t16.5 -92.5t37 -73.5t66 -43.5t102 -17q70 0 118.5 19t94.5 62v590q-231 50 -368 -18q-70 -121 -70 -311z" />
<glyph unicode="&#xf1;" horiz-adv-x="1224" d="M139 1360q43 246 238 246q71 0 217.5 -44t189.5 -51q24 10 64 86l184 -75q-39 -132 -104.5 -186t-157.5 -54q-74 0 -220.5 43.5t-170.5 48.5q-25 -20 -62 -88zM147 0v1079h248v-45q107 66 234 66q80 0 139.5 -9.5t117.5 -38.5t95 -77.5t59.5 -130t22.5 -193.5v-651h-248 v657q0 109 -41 165.5t-145 56.5q-78 0 -132.5 -19t-101.5 -63v-797h-248z" />
<glyph unicode="&#xf2;" d="M68 537q0 141 24 243t64 163t104 97t131 48t158 12q89 0 155.5 -12t130.5 -48t104.5 -97t65.5 -163t25 -243q0 -102 -12.5 -183t-33.5 -139.5t-55 -101t-72.5 -68.5t-90 -41.5t-102 -21t-115.5 -5.5q-64 0 -114.5 5.5t-102.5 21t-90 41.5t-72 69t-55.5 101t-34 139 t-12.5 183zM315 537q0 -69 4 -115t17.5 -93t38.5 -73.5t68.5 -43.5t105.5 -17q103 0 168 36q21 30 44 110.5t23 195.5q0 68 -4.5 115.5t-18.5 94.5t-39 75t-68.5 45.5t-104.5 17.5q-52 0 -117 -21l-53 -18q-9 -12 -22 -45t-27.5 -107t-14.5 -157zM375 1575v129l227 27 l250 -328v-90l-174 -31z" />
<glyph unicode="&#xf3;" d="M68 537q0 141 24 243t64 163t104 97t131 48t158 12q89 0 155.5 -12t130.5 -48t104.5 -97t65.5 -163t25 -243q0 -102 -12.5 -183t-33.5 -139.5t-55 -101t-72.5 -68.5t-90 -41.5t-102 -21t-115.5 -5.5q-64 0 -114.5 5.5t-102.5 21t-90 41.5t-72 69t-55.5 101t-34 139 t-12.5 183zM315 537q0 -69 4 -115t17.5 -93t38.5 -73.5t68.5 -43.5t105.5 -17q103 0 168 36q21 30 44 110.5t23 195.5q0 68 -4.5 115.5t-18.5 94.5t-39 75t-68.5 45.5t-104.5 17.5q-52 0 -117 -21l-53 -18q-9 -12 -22 -45t-27.5 -107t-14.5 -157zM416 1313v90l250 328 l227 -27v-129l-303 -293z" />
<glyph unicode="&#xf4;" d="M68 537q0 141 24 243t64 163t104 97t131 48t158 12q89 0 155.5 -12t130.5 -48t104.5 -97t65.5 -163t25 -243q0 -102 -12.5 -183t-33.5 -139.5t-55 -101t-72.5 -68.5t-90 -41.5t-102 -21t-115.5 -5.5q-64 0 -114.5 5.5t-102.5 21t-90 41.5t-72 69t-55.5 101t-34 139 t-12.5 183zM203 1309v133l319 289l133 -27l289 -262v-133l-227 -27l-144 186l-143 -186zM315 537q0 -69 4 -115t17.5 -93t38.5 -73.5t68.5 -43.5t105.5 -17q103 0 168 36q21 30 44 110.5t23 195.5q0 68 -4.5 115.5t-18.5 94.5t-39 75t-68.5 45.5t-104.5 17.5q-52 0 -117 -21 l-53 -18q-9 -12 -22 -45t-27.5 -107t-14.5 -157z" />
<glyph unicode="&#xf5;" d="M68 537q0 141 24 243t64 163t104 97t131 48t158 12q89 0 155.5 -12t130.5 -48t104.5 -97t65.5 -163t25 -243q0 -102 -12.5 -183t-33.5 -139.5t-55 -101t-72.5 -68.5t-90 -41.5t-102 -21t-115.5 -5.5q-64 0 -114.5 5.5t-102.5 21t-90 41.5t-72 69t-55.5 101t-34 139 t-12.5 183zM109 1360q43 246 237 246q71 0 218 -44t190 -51q23 10 63 86l184 -75q-39 -132 -104.5 -186t-157.5 -54q-74 0 -220.5 43.5t-170.5 48.5q-23 -19 -61 -88zM315 537q0 -69 4 -115t17.5 -93t38.5 -73.5t68.5 -43.5t105.5 -17q103 0 168 36q21 30 44 110.5t23 195.5 q0 68 -4.5 115.5t-18.5 94.5t-39 75t-68.5 45.5t-104.5 17.5q-52 0 -117 -21l-53 -18q-9 -12 -22 -45t-27.5 -107t-14.5 -157z" />
<glyph unicode="&#xf6;" d="M68 537q0 141 24 243t64 163t104 97t131 48t158 12q89 0 155.5 -12t130.5 -48t104.5 -97t65.5 -163t25 -243q0 -102 -12.5 -183t-33.5 -139.5t-55 -101t-72.5 -68.5t-90 -41.5t-102 -21t-115.5 -5.5q-64 0 -114.5 5.5t-102.5 21t-90 41.5t-72 69t-55.5 101t-34 139 t-12.5 183zM139 1458q0 61 57 116.5t119 55.5q58 0 115 -55.5t57 -116.5t-57 -118.5t-119 -57.5q-58 0 -115 57.5t-57 118.5zM315 537q0 -69 4 -115t17.5 -93t38.5 -73.5t68.5 -43.5t105.5 -17q103 0 168 36q21 30 44 110.5t23 195.5q0 68 -4.5 115.5t-18.5 94.5t-39 75 t-68.5 45.5t-104.5 17.5q-52 0 -117 -21l-53 -18q-9 -12 -22 -45t-27.5 -107t-14.5 -157zM588 1458q0 61 57 116.5t119 55.5q58 0 115 -55.5t57 -116.5t-57 -118.5t-119 -57.5q-58 0 -115 57.5t-57 118.5z" />
<glyph unicode="&#xf7;" horiz-adv-x="944" d="M43 510v227h848v-227h-848zM292 313q11 41 50 76q115 105 223 0q54 -50 55 -108.5t-53 -114.5q-115 -114 -227 -2q-32 32 -45.5 70t-2.5 79zM292 1003q11 41 50 76q115 105 223 0q54 -50 55 -108.5t-53 -114.5q-115 -114 -227 -2q-32 32 -45.5 70t-2.5 79z" />
<glyph unicode="&#xf8;" d="M68 537q0 141 24 243t64 163t104 97t131 48t158 12q59 0 115 -6l14 28h227v-80l-18 -41q143 -130 143 -464q0 -102 -12.5 -183t-33.5 -139.5t-55 -101t-72.5 -68.5t-90 -41.5t-102 -21t-115.5 -5.5q-66 0 -125 9l-8 -23h-232v74l19 41q-135 123 -135 459zM315 537 q0 -126 15 -181l239 529h-20q-52 0 -117 -21l-53 -18q-9 -12 -22 -45t-27.5 -107t-14.5 -157zM520 195h29q103 0 168 36q21 30 44 110.5t23 195.5q0 129 -20 198z" />
<glyph unicode="&#xf9;" horiz-adv-x="1206" d="M106 416v663h248v-661q2 -45 7 -77t17.5 -62.5t33 -49t54.5 -30t81 -11.5q117 0 229 101v790h248v-1079h-248v35q-104 -58 -229 -58q-81 0 -139.5 8.5t-116.5 35.5t-94.5 74t-61 127.5t-29.5 193.5zM274 1575v129l228 27l250 -328v-90l-174 -31z" />
<glyph unicode="&#xfa;" horiz-adv-x="1206" d="M106 416v663h248v-661q2 -45 7 -77t17.5 -62.5t33 -49t54.5 -30t81 -11.5q117 0 229 101v790h248v-1079h-248v35q-104 -58 -229 -58q-81 0 -139.5 8.5t-116.5 35.5t-94.5 74t-61 127.5t-29.5 193.5zM406 1313v90l249 328l228 -27v-129l-303 -293z" />
<glyph unicode="&#xfb;" horiz-adv-x="1206" d="M106 416v663h248v-661q2 -45 7 -77t17.5 -62.5t33 -49t54.5 -30t81 -11.5q117 0 229 101v790h248v-1079h-248v35q-104 -58 -229 -58q-81 0 -139.5 8.5t-116.5 35.5t-94.5 74t-61 127.5t-29.5 193.5zM219 1309v133l320 289l133 -27l289 -262v-133l-228 -27l-143 186 l-144 -186z" />
<glyph unicode="&#xfc;" horiz-adv-x="1206" d="M106 416v663h248v-661q2 -45 7 -77t17.5 -62.5t33 -49t54.5 -30t81 -11.5q117 0 229 101v790h248v-1079h-248v35q-104 -58 -229 -58q-81 0 -139.5 8.5t-116.5 35.5t-94.5 74t-61 127.5t-29.5 193.5zM172 1458q0 61 57 116.5t119 55.5q58 0 115 -55.5t57 -116.5 t-57 -118.5t-119 -57.5q-58 0 -115 57.5t-57 118.5zM621 1458q0 61 57 116.5t119 55.5q58 0 115 -55.5t57 -116.5t-57 -118.5t-119 -57.5q-58 0 -115 57.5t-57 118.5z" />
<glyph unicode="&#xfd;" horiz-adv-x="1112" d="M2 1079h256q29 -98 77.5 -263t69 -233.5t51 -161t58.5 -163.5h21q37 95 79.5 227.5t69.5 228t104 365.5h256q-113 -405 -215.5 -694.5t-322.5 -783.5h-270q29 58 64.5 134t72 157t49.5 108h-62q-90 191 -166 428t-192 651zM358 1313v90l250 328l228 -27v-129l-304 -293z " />
<glyph unicode="&#xfe;" horiz-adv-x="1177" d="M121 -399v1935h246v-492q91 56 217 56q74 0 131 -8.5t112.5 -30.5t95 -63t70 -102.5t45.5 -152t15 -208.5q0 -102 -12 -183t-32.5 -139t-53.5 -100.5t-70 -68t-87.5 -41t-100 -21t-113.5 -5.5q-27 -2 -76 -2q-77 0 -141 15v-389h-246zM367 205q78 -10 217 -10 q100 0 153 32q11 16 23.5 45t27.5 103t15 160q0 73 -3 116.5t-15 93.5t-34.5 77t-64 45t-102.5 18q-68 0 -117 -21t-100 -65v-594z" />
<glyph unicode="&#xff;" horiz-adv-x="1112" d="M2 1079h256q29 -98 77.5 -263t69 -233.5t51 -161t58.5 -163.5h21q37 95 79.5 227.5t69.5 228t104 365.5h256q-113 -405 -215.5 -694.5t-322.5 -783.5h-270q29 58 64.5 134t72 157t49.5 108h-62q-90 191 -166 428t-192 651zM125 1458q0 61 57 116.5t119 55.5 q58 0 115 -55.5t57 -116.5t-57 -118.5t-119 -57.5q-58 0 -115 57.5t-57 118.5zM573 1458q0 61 57.5 116.5t119.5 55.5q58 0 115 -55.5t57 -116.5t-57.5 -118.5t-119.5 -57.5q-58 0 -115 57.5t-57 118.5z" />
<glyph unicode="&#x152;" horiz-adv-x="1701" d="M59 686q0 113 13.5 205.5t40.5 161.5t61.5 121.5t83.5 88t99.5 59t116.5 36t127 17.5t138 5h869v-227h-615v-362l43 10h437v-228h-437l-43 -10v-336h615v-227h-869q-68 0 -123 3t-114.5 12.5t-106.5 25.5t-94.5 43t-82.5 63.5t-66 88t-51 116t-31 149t-11 185.5zM315 684 q0 -75 6 -130t22 -108.5t46 -89t76 -63t114.5 -40.5t159.5 -13v905q-118 0 -223 -25q-52 -9 -96 -24q-105 -177 -105 -412z" />
<glyph unicode="&#x153;" horiz-adv-x="1861" d="M90 537q0 141 24 243t64 163t104 97t131 48t158 12q122 0 209.5 -26t149.5 -93q62 67 150 93t210 26q67 0 115 -3.5t101 -16.5t89.5 -35.5t71 -61.5t55 -94t33 -134.5t12.5 -181.5l-30 -133l-639 -41l-35 -6q15 -95 67 -146.5t160 -51.5q53 0 92.5 3t113.5 21t155 51 l73 -190q-178 -103 -434 -103q-121 0 -208.5 25t-149.5 88q-62 -63 -151 -88t-210 -25q-64 0 -114.5 5.5t-102.5 21t-90 41.5t-72 69t-55.5 101t-34 139t-12.5 183zM338 537q0 -57 2.5 -97t10.5 -82t24 -69.5t41.5 -50t64 -33t90.5 -10.5q103 0 168 36q21 30 44.5 110.5 t23.5 195.5q0 68 -4.5 115.5t-18.5 94.5t-39.5 75t-69 45.5t-104.5 17.5q-51 0 -116 -21l-54 -18q-9 -12 -22 -45t-27 -107t-14 -157zM1061 616l29 5l434 28q-8 126 -56 181t-178 55q-112 0 -180 -49q-15 -18 -25 -48q-24 -60 -24 -172z" />
<glyph unicode="&#x178;" horiz-adv-x="1167" d="M-29 1380h279q133 -291 321 -651q182 342 326 651h264q-100 -231 -239 -509t-222 -427v-444h-254v444q-91 168 -237 453.5t-238 482.5zM152 1710q0 61 57 116.5t119 55.5q58 0 115 -55.5t57 -116.5t-57 -118.5t-119 -57.5q-58 0 -115 57.5t-57 118.5zM600 1710 q0 61 57 116.5t119 55.5q58 0 115 -55.5t57 -116.5t-57 -118.5t-119 -57.5q-58 0 -115 57.5t-57 118.5z" />
<glyph unicode="&#x2c6;" horiz-adv-x="737" d="M-35 1536v133l320 289l133 -27l289 -262v-133l-228 -27l-143 187l-143 -187z" />
<glyph unicode="&#x2dc;" horiz-adv-x="876" d="M-51 1614q43 246 237 246q71 0 218 -44t190 -51q23 10 63 86l185 -75q-39 -132 -104.5 -186t-157.5 -54q-74 0 -221.5 43.5t-170.5 48.5q-23 -19 -61 -88z" />
<glyph unicode="&#x2000;" horiz-adv-x="979" />
<glyph unicode="&#x2001;" horiz-adv-x="1958" />
<glyph unicode="&#x2002;" horiz-adv-x="979" />
<glyph unicode="&#x2003;" horiz-adv-x="1958" />
<glyph unicode="&#x2004;" horiz-adv-x="652" />
<glyph unicode="&#x2005;" horiz-adv-x="489" />
<glyph unicode="&#x2006;" horiz-adv-x="326" />
<glyph unicode="&#x2007;" horiz-adv-x="326" />
<glyph unicode="&#x2008;" horiz-adv-x="244" />
<glyph unicode="&#x2009;" horiz-adv-x="391" />
<glyph unicode="&#x200a;" horiz-adv-x="108" />
<glyph unicode="&#x2010;" horiz-adv-x="1044" d="M100 573v228h848v-228h-848z" />
<glyph unicode="&#x2011;" horiz-adv-x="1044" d="M100 573v228h848v-228h-848z" />
<glyph unicode="&#x2012;" horiz-adv-x="1044" d="M100 573v228h848v-228h-848z" />
<glyph unicode="&#x2013;" horiz-adv-x="995" d="M76 573v228h848v-228h-848z" />
<glyph unicode="&#x2014;" horiz-adv-x="1259" d="M109 573v228h1042v-228h-1042z" />
<glyph unicode="&#x2018;" horiz-adv-x="409" d="M37 1380v117q5 62 58.5 119t113.5 57q62 0 119 -55.5t57 -116.5q0 -57 -61 -121l51 -159v-82l-185 -33z" />
<glyph unicode="&#x2019;" horiz-adv-x="450" d="M37 1501q0 61 57 116.5t119 55.5q60 0 113.5 -57t58.5 -119v-117l-154 -274l-184 33v82l51 159q-61 64 -61 121z" />
<glyph unicode="&#x201a;" horiz-adv-x="430" d="M37 156q0 61 57 116.5t119 55.5q60 0 113.5 -57t58.5 -119v-117l-154 -275l-184 33v82l51 160q-61 64 -61 121z" />
<glyph unicode="&#x201c;" horiz-adv-x="847" d="M37 1380v117q5 62 58.5 119t113.5 57q62 0 119 -55.5t57 -116.5q0 -57 -61 -121l51 -159v-82l-185 -33zM453 1380v117q5 62 58.5 119t113.5 57q62 0 119 -55.5t57 -116.5q0 -33 -15 -60t-47 -61l52 -159v-82l-185 -33z" />
<glyph unicode="&#x201d;" horiz-adv-x="841" d="M37 1501q0 61 57 116.5t119 55.5q60 0 113.5 -57t58.5 -119v-117l-154 -274l-184 33v82l51 159q-61 64 -61 121zM453 1501q0 61 57 116.5t119 55.5q60 0 113.5 -57t58.5 -119v-117l-154 -274l-184 33v82l51 159q-61 64 -61 121z" />
<glyph unicode="&#x201e;" horiz-adv-x="845" d="M37 156q0 61 57 116.5t119 55.5q60 0 113.5 -57t58.5 -119v-117l-154 -275l-184 33v82l51 160q-61 64 -61 121zM453 156q0 61 57 116.5t119 55.5q60 0 113.5 -57t58.5 -119v-117l-154 -275l-184 33v82l51 160q-61 64 -61 121z" />
<glyph unicode="&#x2022;" horiz-adv-x="550" d="M66 635.5q-6 32.5 12.5 68.5t60.5 76q55 55 103.5 66.5t82.5 -6.5t76 -60q32 -32 49 -58.5t23.5 -59t-11 -68.5t-59.5 -76q-43 -44 -78.5 -62.5t-68 -12t-58 23.5t-59.5 51q-33 33 -50 59t-23 58.5z" />
<glyph unicode="&#x2026;" horiz-adv-x="1327" d="M54 180q11 41 50 76q115 106 224 0q54 -50 55 -108.5t-53 -114.5q-115 -115 -228 -2q-32 32 -45.5 70t-2.5 79zM493 180q11 41 50 76q115 105 223 0q54 -50 55 -108.5t-53 -114.5q-114 -115 -227 -2q-32 32 -45.5 70t-2.5 79zM935 180q11 41 50 76q115 105 223 0 q54 -50 55 -108.5t-53 -114.5q-114 -115 -227 -2q-32 32 -45.5 70t-2.5 79z" />
<glyph unicode="&#x202f;" horiz-adv-x="391" />
<glyph unicode="&#x2039;" horiz-adv-x="923" d="M41 524v168l674 408h127v-264l-469 -228l469 -227v-264h-127z" />
<glyph unicode="&#x203a;" horiz-adv-x="894" d="M41 117v264l469 227l-469 228v264h127l674 -408v-168l-674 -407h-127z" />
<glyph unicode="&#x205f;" horiz-adv-x="489" />
<glyph unicode="&#x20ac;" horiz-adv-x="1314" d="M59 379v227h60q-2 25 -2 80v31h-58v227h78q21 113 63 195.5t95 132.5t127.5 80t149 40.5t169.5 10.5q140 0 255 -46t216 -151l-165 -147q-56 59 -127.5 83.5t-178.5 24.5q-97 0 -184 -26q-41 -12 -78 -27q-37 -42 -73 -170h503v-227h-536v-33v-78h536v-227h-493 q37 -81 113.5 -122.5t211.5 -41.5q138 0 279 49q54 18 110 49l99 -190q-217 -146 -488 -146q-91 0 -162.5 9t-143.5 35t-125 70t-96 116.5t-67 171.5h-88z" />
<glyph unicode="&#x2122;" horiz-adv-x="1619" d="M57 1303l2 77h535v-77h-223v-689h-95v689h-219zM690 614v766h172q33 -92 69.5 -190t81 -217.5t70.5 -188.5h9q23 63 101.5 270t121.5 326h166v-766h-95v689h-4q-22 -56 -235 -617h-125q-27 71 -73.5 195.5t-85 226t-75.5 195.5h-4v-689h-94z" />
<glyph unicode="&#xe000;" horiz-adv-x="1075" d="M0 0v1075h1075v-1075h-1075z" />
</font>
</defs>
</svg>
