<?xml version="1.0" standalone="no"?>
<!DOCTYPE svg PUBLIC "-//W3C//DTD SVG 1.1//EN" "http://www.w3.org/Graphics/SVG/1.1/DTD/svg11.dtd" >
<svg xmlns="http://www.w3.org/2000/svg">
<metadata></metadata>
<defs>
<font id="korpo_sansregular" horiz-adv-x="1171" >
<font-face units-per-em="2048" ascent="1536" descent="-512" />
<missing-glyph horiz-adv-x="475" />
<glyph horiz-adv-x="0" />
<glyph horiz-adv-x="682" />
<glyph horiz-adv-x="0" />
<glyph horiz-adv-x="0" />
<glyph unicode="&#xd;" horiz-adv-x="475" />
<glyph unicode=" "  horiz-adv-x="475" />
<glyph unicode="&#x09;" horiz-adv-x="475" />
<glyph unicode="&#xa0;" horiz-adv-x="475" />
<glyph unicode="!" horiz-adv-x="479" d="M88 134q8 32 43 67q36 35 68 43t55.5 -3.5t50.5 -39.5q29 -29 40.5 -52t4 -55t-42.5 -67q-28 -30 -51.5 -42.5t-45.5 -8t-39 16t-40 34.5q-28 28 -39.5 51.5t-3.5 55.5zM125 1405l201 29l12 -54l-53 -1022h-121l-21 35z" />
<glyph unicode="&#x22;" horiz-adv-x="694" d="M49 1294v35l90 297l170 -20v-72l-141 -262zM358 1294v35l91 297l169 -20v-72l-141 -262z" />
<glyph unicode="#" horiz-adv-x="1366" d="M-2 295v141h240l108 510h-235v141h266l63 293h160v-32l-55 -261h364l64 293h160v-32l-56 -261h215v-141h-243l-109 -510h207v-141h-236l-61 -295h-166v25l57 270h-362l-62 -295h-165v25l57 270h-211zM408 436h362l109 510h-363z" />
<glyph unicode="$" horiz-adv-x="1054" d="M47 131l107 96q101 -98 338 -98h16q133 3 229 76q48 35 78 71q10 42 11.5 77.5t-6 63t-21 50t-35.5 40t-46 31.5t-55.5 26.5t-61.5 22.5t-67 21q-13 4 -20 6q-85 27 -137.5 47t-123 59t-108 82.5t-61.5 111.5t-14 151q19 152 117.5 237t265.5 97v133h170v-139 q207 -25 333 -148l-106 -90q-48 53 -127.5 74.5t-210.5 21.5q-84 0 -166 -32q-36 -14 -67 -33q-31 -56 -42 -104.5t-7 -83t27 -65t46.5 -49.5t66 -39t71.5 -30t75 -25q25 -8 37 -12q47 -16 71.5 -24.5t68.5 -25t69 -29.5t61.5 -34t57.5 -41t45.5 -48t37.5 -58t22 -68t9 -81 q0 -149 -102 -250t-270 -131v-146h-170v133q-265 10 -406 156z" />
<glyph unicode="%" horiz-adv-x="1630" d="M45 1110q0 83 16 143t41.5 95.5t67.5 56t84.5 27t101.5 6.5t102 -6.5t85.5 -27t68.5 -56t42 -95.5t16 -143t-16 -143t-41.5 -95.5t-68 -56t-85.5 -27t-103 -6.5q-59 0 -101.5 6.5t-84.5 27t-67.5 56t-41.5 95.5t-16 143zM125 0v25l1126 1380h197v-33l-1120 -1372h-203z M205 1110q0 -50 4.5 -79.5t19 -58.5t45.5 -41.5t82 -12.5q42 0 78 12l31 12q13 20 22 43q23 71 23 125q0 47 -5.5 79t-21 60.5t-47 42t-80.5 13.5q-41 0 -80 -13l-30 -12q-11 -17 -21 -43q-20 -62 -20 -127zM922 307q0 83 16 143t41.5 95.5t67.5 56t84.5 27t101.5 6.5 t102 -6.5t85 -27t68 -56t42 -95.5t16 -143t-15.5 -143t-41.5 -95.5t-68 -55.5t-85 -26.5t-103 -6.5q-59 0 -101.5 6.5t-84.5 26.5t-67.5 55.5t-41.5 95.5t-16 143zM1081 307q0 -50 4.5 -80t19 -58t46 -41t82.5 -13q42 0 78 12l30 12q16 24 23 43q22 68 22 125q0 48 -5 79 t-20.5 60t-47 42.5t-80.5 13.5q-41 0 -80 -13l-31 -12q-9 -13 -20 -43q-21 -65 -21 -127z" />
<glyph unicode="&#x26;" horiz-adv-x="1380" d="M61 305q0 152 74.5 270.5t196.5 188.5q-135 184 -135 332q0 86 36 148t99 96t136.5 49.5t160.5 15.5q323 0 323 -307q0 -47 -12.5 -87.5t-38 -74.5t-55 -62t-71.5 -55t-79 -48t-87 -47q-17 -9 -25 -13q61 -77 360 -410q70 113 70 260v141h160q0 -204 -16.5 -303 t-84.5 -192q106 -72 209 -88v-131q-100 0 -173 23t-159 81q-185 -117 -452 -117q-214 0 -325.5 85.5t-111.5 244.5zM238 319q0 -91 79.5 -143.5t198.5 -52.5q166 0 305 74q-263 290 -395 448q-188 -126 -188 -326zM360 1072.5q3 -36.5 24.5 -82t43.5 -77.5t57 -77 q8 4 39.5 18t45 21t43.5 22t45.5 26t39.5 27.5t37 31.5t27 34t20 39.5t6 42.5q0 100 -42 138t-142 38q-64 0 -135 -23q-30 -10 -45 -20q-38 -38 -52.5 -80t-11.5 -78.5z" />
<glyph unicode="'" horiz-adv-x="378" d="M55 1296v35l90 297l170 -20v-72l-141 -262z" />
<glyph unicode="(" horiz-adv-x="559" d="M47 698q0 88 1 149t5.5 139.5t13 132t23 115.5t35.5 103t52 82t70.5 64.5t92.5 38t117 14.5v-131q-46 0 -81.5 -15.5t-61 -42.5t-43 -75t-28.5 -100t-16.5 -132t-7.5 -157t-2 -187t2 -186.5t7.5 -155t16.5 -129.5t28.5 -97.5t43 -72t61 -40.5t81.5 -15v-129 q-82 0 -145.5 23.5t-106.5 59.5t-73 100.5t-46.5 125t-25.5 156t-11 171t-2 191.5z" />
<glyph unicode=")" horiz-adv-x="563" d="M47 0q46 0 81.5 15t61 40.5t43 72t28.5 97.5t16.5 129.5t7.5 155t2 186.5t-2 187t-7.5 157t-16.5 132t-28.5 100t-43 75t-61 42.5t-81.5 15.5v131q64 0 117 -14.5t92.5 -38t70.5 -64.5t52 -82t35.5 -103t23 -115.5t13 -132t5.5 -139.5t1 -149q0 -116 -2 -191.5t-11 -171 t-25.5 -156t-46.5 -125t-73 -100.5t-106.5 -59.5t-145.5 -23.5v129z" />
<glyph unicode="*" horiz-adv-x="710" d="M31 1554l63 109l19 -10l176 -117l-15 211v20h127v-20l-12 -211l176 117l17 10l63 -109l-16 -10l-191 -94l191 -94l16 -10l-63 -111l-17 10l-176 119l12 -213v-18h-127v18l15 213l-176 -119l-19 -10l-61 111l16 10l189 94l-191 94z" />
<glyph unicode="+" horiz-adv-x="919" d="M61 584v141h334v332h142v-332h331v-141h-331v-334h-142v334h-334z" />
<glyph unicode="," horiz-adv-x="403" d="M86.5 132.5q7.5 32.5 44.5 68.5q36 35 68 43t55.5 -3.5t50.5 -39.5q49 -49 49 -90v-111l-141 -262l-119 22v35l62 205q-43 40 -60 70t-9.5 62.5z" />
<glyph unicode="-" horiz-adv-x="888" d="M20 584v141h807v-141h-807z" />
<glyph unicode="." horiz-adv-x="442" d="M88 134q8 32 43 67q36 35 68 43t55.5 -3.5t50.5 -39.5q29 -29 40.5 -52t4 -55t-42.5 -67q-28 -30 -51.5 -42.5t-45.5 -8t-39 16t-40 34.5q-28 28 -39.5 51.5t-3.5 55.5z" />
<glyph unicode="/" horiz-adv-x="765" d="M35 0l540 1536h170v-33l-534 -1528h-176v25z" />
<glyph unicode="0" horiz-adv-x="1187" d="M82 684q0 170 19 292.5t56 206t98.5 132.5t139.5 69.5t187 20.5q108 0 186.5 -21t140 -70t98.5 -131.5t55.5 -203t18.5 -287.5q0 -170 -19 -292.5t-55.5 -205t-98 -130.5t-139.5 -68.5t-187 -20.5q-136 0 -226.5 32.5t-154 113.5t-91.5 218t-28 345zM254 682 q0 -72 2 -124t9.5 -114t21.5 -104.5t38 -85t58.5 -68t84.5 -41.5t114 -16q95 0 178 31q39 16 65 33q27 69 41 124q43 157 43 377q0 73 -2 125t-9.5 114.5t-21 105t-38 86t-58.5 69t-84 41.5t-114 16q-88 0 -179 -34q-39 -15 -65 -33q-27 -58 -43 -125q-41 -150 -41 -377z " />
<glyph unicode="1" horiz-adv-x="614" d="M6 1325l223 55h170v-1380h-170v1219h-202z" />
<glyph unicode="2" horiz-adv-x="1024" d="M86 141q21 24 103.5 118.5t160 181t133.5 145.5q53 57 86 94.5t72 86t59 84t39 79.5t22.5 83.5t-2 84.5t-24.5 92q-17 17 -45 31q-75 30 -182 30q-176 0 -311 -100l-84 98q131 156 395 156q84 0 143.5 -7t116 -29t91 -60t55 -101.5t20.5 -152.5q0 -77 -19.5 -144.5 t-67 -141.5t-94.5 -131t-135 -155l-313 -342h641l-12 -141h-838z" />
<glyph unicode="3" horiz-adv-x="1005" d="M80 59l74 111q52 -19 116.5 -28.5t103 -11t101.5 -1.5q79 0 136.5 18.5t87 44t46.5 62.5t21 63.5t4 57.5q0 98 -29 166q-14 31 -26 43q-15 7 -30.5 12.5t-27.5 10t-29.5 7.5t-27 5.5t-29 4t-27 2t-29 1t-27 0.5h-30h-28.5l-10 141q123 0 209 53.5t111.5 147t-23.5 221.5 q-17 17 -45 31q-75 30 -183 30q-100 0 -158 -20.5t-112 -59.5l-125 78q128 152 395 152q84 0 142.5 -7t114 -28t88 -58.5t52 -100.5t19.5 -152q0 -267 -155 -334q190 -79 190 -346q0 -204 -125.5 -302t-339.5 -98q-147 0 -230 20t-165 64z" />
<glyph unicode="4" horiz-adv-x="1038" d="M53 582l314 798h170v-32l-295 -764h399v385l170 22v-407h168v-111l-168 -14v-459h-170v442h-549z" />
<glyph unicode="5" horiz-adv-x="1103" d="M170 59l55 117q33 -11 63 -19.5t59 -13.5t49 -8.5t48.5 -4.5t40.5 -1.5t42 0t38 0.5q67 0 117.5 11.5t82 35t51.5 49.5t29 63.5t12 67.5t3 72q0 93 -35 178q-16 33 -32 51q-144 93 -469 35l-152 47l43 641h750l10 -141h-617l-26 -410q339 81 519.5 -25t180.5 -376 q0 -110 -23 -191t-62.5 -130.5t-100.5 -79.5t-127.5 -41t-153.5 -11q-147 0 -230 20t-165 64z" />
<glyph unicode="6" horiz-adv-x="1107" d="M82 684q0 171 18 293t54 205.5t96.5 132t138 69.5t186.5 21q131 0 216.5 -36.5t169.5 -123.5l-101 -82q-49 53 -110.5 70.5t-188.5 17.5q-83 0 -168 -39q-34 -15 -55 -36q-23 -51 -35 -99q-40 -148 -47 -297q94 43 276 43q453 0 453 -295q0 -103 -8 -182.5t-22.5 -138.5 t-40.5 -99.5t-56 -66.5t-74.5 -40.5t-91 -20t-110.5 -5.5q-115 0 -194 19t-140.5 64.5t-96.5 128t-52 203t-17 294.5zM254 623q2 -108 8 -182t21.5 -131.5t38 -90.5t61 -54.5t84.5 -28.5t115 -7q83 0 143 27q24 11 45 28q16 39 23 80q22 121 22 264q0 140 -283 140 q-103 0 -200 -19z" />
<glyph unicode="7" horiz-adv-x="1034" d="M66 1239l12 141h870l10 -141q-68 -145 -197.5 -386t-248 -467.5t-184.5 -385.5h-164v57q75 170 301.5 595t298.5 587h-698z" />
<glyph unicode="8" horiz-adv-x="1028" d="M53 322q0 141 59.5 227t239.5 186q-50 37 -78.5 59.5t-62 56.5t-50.5 64.5t-28.5 72.5t-11.5 91q0 64 24.5 119t65.5 92.5t93.5 64t108.5 38.5t111 12q196 0 304 -84.5t108 -243.5q0 -90 -51.5 -153t-198.5 -168q71 -39 122 -74.5t96.5 -80.5t69 -98t23.5 -114 q0 -178 -128.5 -296t-348.5 -118q-100 0 -183 20t-147.5 60.5t-100.5 108.5t-36 158zM233 352q2 -55 22 -96t49 -64.5t69.5 -38.5t77.5 -19.5t79 -4.5q81 0 162 29q30 10 58 28q7 7 16.5 20.5t26.5 63t18 107.5q0 84 -69.5 145.5t-225.5 143.5q-15 -9 -45.5 -26.5 t-46.5 -27.5t-43 -27t-42 -30t-35 -31.5t-31 -36t-22 -39t-15 -45.5t-3 -51zM289 1079q0 -83 47.5 -133.5t181.5 -118.5q240 119 240 238q0 186 -232 186q-60 0 -123 -14l-38 -12q-23 -16 -39 -39q-37 -51 -37 -107z" />
<glyph unicode="9" horiz-adv-x="1087" d="M111 842q0 111 7 190t26 145t49.5 107t79 69.5t113.5 40t155 11.5q82 0 141.5 -6t107.5 -26t79 -41.5t53.5 -69.5t34.5 -91.5t18.5 -126.5t8 -155.5t1.5 -196.5q0 -114 -3 -194.5t-12 -156.5t-24 -125.5t-40.5 -94t-59.5 -69.5t-83 -44t-109 -26t-140 -7 q-133 0 -214.5 34t-164.5 122l101 82q64 -52 121.5 -68t170.5 -16q115 0 191 31q38 16 57 33l15 90q11 79 20 270q-90 -41 -276 -41q-215 0 -319.5 88.5t-104.5 241.5zM281 807q0 -70 57.5 -104.5t196.5 -34.5q108 0 200 18l78 25q0 104 -1 171.5t-7 129.5t-12.5 96.5 t-23.5 64.5t-33.5 43t-49 22.5t-63 11t-82.5 1.5q-90 0 -162 -26q-32 -8 -62 -25q-10 -36 -18 -86q-18 -113 -18 -307z" />
<glyph unicode=":" horiz-adv-x="462" d="M88 134q8 32 43 67q36 35 68 43t55.5 -3.5t50.5 -39.5q29 -29 40.5 -52t4 -55t-42.5 -67q-28 -30 -51.5 -42.5t-45.5 -8t-39 16t-40 34.5q-28 28 -39.5 51.5t-3.5 55.5zM88 773q8 32 43 67q36 35 68 43t55.5 -3.5t50.5 -39.5q29 -29 40.5 -52t4 -55t-42.5 -67 q-28 -30 -51.5 -42.5t-45.5 -8t-39 16t-40 34.5q-28 28 -39.5 51.5t-3.5 55.5z" />
<glyph unicode=";" horiz-adv-x="462" d="M86.5 132.5q7.5 32.5 44.5 68.5q36 35 68 43t55.5 -3.5t50.5 -39.5q49 -49 49 -90v-111l-141 -262l-119 22v35l62 205q-43 40 -60 70t-9.5 62.5zM88 773q8 32 43 67q36 35 68 43t55.5 -3.5t50.5 -39.5q29 -29 40.5 -52t4 -55t-42.5 -67q-28 -30 -51.5 -42.5t-45.5 -8 t-39 16t-40 34.5q-28 28 -39.5 51.5t-3.5 55.5z" />
<glyph unicode="&#x3c;" horiz-adv-x="923" d="M63 543v123l685 413h71v-198l-571 -277l571 -276v-199h-71z" />
<glyph unicode="=" horiz-adv-x="942" d="M61 406v141h807v-141h-807zM61 768v141h807v-141h-807z" />
<glyph unicode="&#x3e;" horiz-adv-x="876" d="M63 129v199l572 276l-572 277v198h72l684 -413v-123l-684 -414h-72z" />
<glyph unicode="?" horiz-adv-x="964" d="M53 1079l15 170q131 156 395 156q84 0 143.5 -7t116 -29t91 -60t55 -101.5t20.5 -152.5q0 -38 -5.5 -71.5t-13 -60t-24.5 -57t-31 -51.5t-42 -54t-47.5 -54t-59 -62.5t-64.5 -69.5l-10.5 -10.5l-12.5 -12.5t-12.5 -13t-13.5 -16t-11 -16t-10.5 -17.5t-6.5 -16.5t-3 -18 l-4 -97h-121l-20 35l-2 62v32q0 66 80 146q141 148 186 209q85 118 77 229q-3 55 -28 119q-17 17 -45 31q-75 30 -182 30q-100 0 -158 -20.5t-112 -59.5l-27 -116zM319 134q8 32 43 67q36 35 68.5 43.5t56 -3.5t50.5 -40q29 -29 40.5 -52t4 -55t-42.5 -67q-28 -30 -52 -42.5 t-46 -8t-39 16t-40 34.5q-28 28 -39.5 51.5t-3.5 55.5z" />
<glyph unicode="@" horiz-adv-x="1794" d="M72 397q-4 229 66 415t199.5 310t313.5 191t408 67q176 0 311.5 -49.5t219.5 -140t126.5 -212t42.5 -271.5q0 -113 -45 -222.5t-121.5 -193t-186 -134t-230.5 -46.5q-60 3 -144 30q17 54 39 112t49 126t41 104h-31q-26 -59 -51.5 -107t-64.5 -103.5t-80.5 -92 t-97.5 -61.5t-117 -25q-132 0 -189.5 82t-37.5 264q47 437 253 579.5t564 -20.5l-92 -788q165 42 269.5 170t104.5 317q0 263 -141 408t-418 145q-186 0 -345.5 -72t-266.5 -214q-177 -230 -168 -537q2 -127 36.5 -231t93.5 -175t139.5 -120t170.5 -72t191 -25 q263 -8 610 156l35 -72q-160 -89 -335 -144t-339 -56q-156 -2 -292.5 39t-246 125t-174.5 223.5t-69 320.5zM665 319q6 -54 34 -85t77 -31q110 0 224.5 192t179.5 551q-240 89 -377 0q-79 -214 -115 -373q-17 -75 -23 -137.5t0 -116.5z" />
<glyph unicode="A" horiz-adv-x="1228" d="M43 0q219 818 379 1251l-154 23v106h494q180 -454 430 -1380h-178q-17 65 -70.5 258.5t-60.5 218.5l-90 -4h-355l-94 -8q-91 -316 -123 -465h-178zM385 608l53 6h355l51 2q-71 242 -199 623h-57q-103 -299 -203 -631z" />
<glyph unicode="B" horiz-adv-x="1146" d="M111 0v1380h292q68 0 102 -0.5t94.5 -3.5t92 -9t79 -18t72.5 -29.5t56 -44t46 -61t25.5 -81.5t10.5 -105q0 -103 -29.5 -169t-87.5 -120q102 -27 156.5 -105t54.5 -233q0 -99 -25 -171t-66.5 -116t-108.5 -70t-139 -35t-169 -9h-456zM281 141h251q160 0 244 25 q38 9 60 24q21 17 34 41q35 68 35 170q0 56 -10.5 94.5t-33.5 60.5t-41.5 32t-50.5 22q-7 3 -11 4h-385l-92 -10v-463zM281 748l92 8h329q36 29 54 61q55 88 55 209q0 62 -15.5 101.5t-39 62.5t-82 33.5t-111.5 13t-160 2.5h-122v-491z" />
<glyph unicode="C" horiz-adv-x="1216" d="M61 684q0 128 16.5 231.5t45 177.5t73 129t94.5 89t115.5 54.5t130 28t144.5 7.5q141 0 246 -36.5t184 -119.5l-100 -90q-48 53 -125 74.5t-205 21.5q-112 0 -229 -34q-35 -11 -86 -35q-41 -61 -66 -131q-66 -176 -66 -369q0 -77 4 -135.5t15.5 -119t32 -103t54 -81.5 t80 -63t112.5 -37.5t149 -13.5q172 0 293 41q51 16 104 43l60 -115q-185 -123 -457 -123q-80 0 -144 7t-130.5 26.5t-116 52.5t-94 87t-73 127.5t-45 176.5t-16.5 232z" />
<glyph unicode="D" horiz-adv-x="1247" d="M109 0v1380h436q60 0 109.5 -3.5t102.5 -13.5t95 -27t83.5 -44.5t73 -65t59 -90t44.5 -118t27 -149.5t10 -185t-9.5 -185t-26 -149t-43 -116t-57 -87.5t-72 -63t-82.5 -42.5t-95 -25.5t-104 -12.5t-113 -3h-438zM279 141h227q163 0 276 37q45 15 74 37q35 47 62 115 q61 157 61 352q0 79 -3.5 136.5t-14.5 119t-30 104.5t-51 82.5t-77.5 63t-110 37.5t-147.5 14h-266v-1098z" />
<glyph unicode="E" horiz-adv-x="1099" d="M141 0v1380h828v-141h-658v-494l92 11h422v-142h-422l-92 -10v-463h658v-141h-828z" />
<glyph unicode="F" horiz-adv-x="1064" d="M145 0v1380h828v-141h-658v-494l93 11h421v-142h-421l-93 -10v-604h-170z" />
<glyph unicode="G" horiz-adv-x="1323" d="M102 684q0 128 16.5 231.5t45 177.5t73 129t94.5 89t115.5 54.5t130 28t144.5 7.5q141 0 246 -36.5t184 -119.5l-100 -90q-48 53 -125 74.5t-205 21.5q-112 0 -229 -34q-35 -11 -86 -35q-41 -61 -66 -131q-66 -176 -66 -369q0 -77 4 -135.5t15.5 -119t32 -103t54 -81.5 t80 -63t112.5 -37.5t149 -13.5q172 0 287 39v416l-189 22v107h359v-615q-185 -123 -457 -123q-80 0 -144 7t-130.5 26.5t-116 52.5t-94 87t-73 127.5t-45 176.5t-16.5 232z" />
<glyph unicode="H" horiz-adv-x="1300" d="M119 0v1380h170v-635l92 11h532l93 8v616h170v-1380h-170v623l-93 -9h-534l-90 -10v-604h-170z" />
<glyph unicode="I" horiz-adv-x="460" d="M141 0v1380h170v-1380h-170z" />
<glyph unicode="J" horiz-adv-x="718" d="M57 25l31 147q69 -25 168 -39q38 -6 70 -6q8 22 18 66q18 106 18 225v962h170v-962q0 -81 -6 -145t-16.5 -112.5t-29 -82.5t-39.5 -56.5t-53 -33t-64 -13.5q-9 -1 -20 -1q-25 0 -56 5q-46 7 -89 17.5t-102 28.5z" />
<glyph unicode="K" horiz-adv-x="1208" d="M141 0v1380h170v-811l191 172l385 639h153v-55l-325 -549q100 -214 234.5 -425.5t193.5 -282.5v-68h-160q-27 37 -119 172q-148 224 -256 440l-297 -256v-356h-170z" />
<glyph unicode="L" horiz-adv-x="923" d="M137 0v1380h170v-1239h594v-141h-764z" />
<glyph unicode="M" horiz-adv-x="1710" d="M123 0v1380h311q79 -217 224.5 -601.5t177.5 -471.5h12q48 128 128 340t146.5 390.5t126.5 342.5h301v-1380h-170v1239h-10q-117 -297 -420 -1110h-227q-303 813 -420 1110h-10v-1239h-170z" />
<glyph unicode="N" horiz-adv-x="1327" d="M109 0v1380h299q103 -216 292.5 -637.5t272.5 -601.5h10v1239h170v-1380h-297q-332 755 -567 1239h-10v-1239h-170z" />
<glyph unicode="O" horiz-adv-x="1415" d="M66 684q0 128 17 231.5t46 177.5t74 129t96 89t117 54.5t131 28t145 7.5q78 0 142 -7.5t130 -28t116.5 -54.5t96 -89t75 -129t46.5 -177.5t17 -231.5q0 -129 -16.5 -232t-45 -176.5t-73.5 -127.5t-95 -87t-116.5 -52.5t-131 -26.5t-145.5 -7q-80 0 -144.5 7t-131.5 26.5 t-117 52.5t-95.5 87t-74.5 127.5t-46 176.5t-17 232zM238 682q0 -90 6.5 -157t23.5 -133.5t49 -111.5t81.5 -81t123 -53t170.5 -17q113 0 226 37q40 13 83 37q35 45 72 121q72 165 72 358q0 110 -9 188.5t-37.5 155t-77.5 123t-131.5 74.5t-197.5 28q-114 0 -235 -34 q-31 -9 -90 -35q-41 -61 -66 -131q-63 -168 -63 -369z" />
<glyph unicode="P" horiz-adv-x="1099" d="M111 0l2 1380h317q218 0 308 -16q189 -33 258 -163q48 -90 48 -234q0 -238 -120 -341.5t-377 -103.5h-174l-92 -10v-512h-170zM281 653l92 11h174q108 0 188 26q28 9 64 29q22 22 37 59q38 87 38 189q0 53 -9 92.5t-24.5 69t-44 49t-60.5 32t-82.5 19t-100.5 8.5t-123 2 h-149v-586z" />
<glyph unicode="Q" horiz-adv-x="1384" d="M57 684q0 128 17 231.5t46 177.5t74.5 129t96.5 89t117 54.5t131 28t145 7.5q78 0 142 -7.5t130 -28t116.5 -54.5t96 -89t75 -129t46.5 -177.5t17 -231.5q0 -129 -16.5 -232t-45.5 -176.5t-74.5 -127.5t-96 -87t-118.5 -52.5t-134.5 -26.5t-149.5 -7v-16q20 -12 43.5 -24 t41 -20.5t50 -22t49 -20t61 -24.5t64.5 -26l190 26l41 -71q-122 -88 -251 -88q-94 0 -241 84t-261 178v45q-93 19 -163 62.5t-125.5 122t-84.5 205t-29 298.5zM229 682q0 -77 4.5 -136t17 -118.5t33.5 -103t55.5 -82t81.5 -62.5t113.5 -37.5t149.5 -13.5q112 0 225 37 q42 14 84 37q35 45 72 121q72 165 72 358q0 110 -9 188.5t-37.5 155t-77.5 123t-131.5 74.5t-197.5 28q-114 0 -235 -34q-34 -10 -91 -35q-39 -58 -65 -131q-64 -171 -64 -369z" />
<glyph unicode="R" horiz-adv-x="1189" d="M125 0v1380h319q218 0 310 -16q188 -34 258 -164q47 -90 47 -233q0 -192 -79 -295.5t-243 -134.5q134 -236 299 -469v-68h-153q-63 82 -103 145q-115 169 -225 377h-168l-92 -10v-512h-170zM295 653l92 11h174q109 0 189 26q25 8 63 29q22 22 37 59q39 89 39 189 q0 53 -9 92.5t-24.5 69t-44.5 49t-61 32t-82.5 19t-100.5 8.5t-123 2h-149v-586z" />
<glyph unicode="S" horiz-adv-x="1083" d="M57 131l107 96q101 -98 338 -98q139 0 243 74q48 36 80 73q10 42 11.5 77.5t-6 63t-21 50t-35.5 40t-46 31.5t-55.5 26.5t-61.5 22.5t-67 21q-13 4 -20 6q-85 27 -137.5 47t-123 59t-108 82.5t-61.5 111.5q-17 48 -17 103q0 23 3 48q20 165 134.5 250.5t307.5 85.5 q145 -2 253.5 -38t191.5 -118l-107 -90q-48 53 -127.5 74.5t-210.5 21.5q-84 0 -166 -32q-36 -14 -67 -33q-31 -56 -42 -104q-8 -36 -8 -64q0 -10 1 -20q4 -34 27 -64.5t46.5 -49.5t66 -39t71.5 -30t75 -25q25 -8 37 -12q42 -14 64 -21.5t62.5 -22.5t63 -26t57 -28.5 t54.5 -34t46 -39t40.5 -47t29 -54t20.5 -63.5t6 -73q0 -176 -143.5 -285t-360.5 -109q-297 0 -445 156z" />
<glyph unicode="T" horiz-adv-x="1019" d="M27 1239l2 141h964v-141h-399v-1239h-170v1239h-397z" />
<glyph unicode="U" horiz-adv-x="1339" d="M131 559v821h170v-821q0 -53 1 -86.5t4.5 -77t11 -69.5t20 -57.5t31.5 -50t46.5 -38t63.5 -29t83 -16t106 -6.5q104 0 192 37q38 15 66 37q26 50 45 112q47 163 47 369v696h170v-696q0 -143 -13.5 -251.5t-43.5 -187t-71 -131t-101.5 -83t-129.5 -43.5t-161 -13 q-155 0 -254.5 27.5t-164.5 96t-91.5 178.5t-26.5 282z" />
<glyph unicode="V" horiz-adv-x="1251" d="M68 1380h176q147 -621 364 -1251h49q220 640 365 1251h176q-129 -482 -225 -806t-195 -574h-291q-69 174 -147 422t-132 442t-140 516z" />
<glyph unicode="W" horiz-adv-x="1863" d="M23 1380h176q147 -621 364 -1251h49q136 394 230 733q-72 260 -140 518h177q147 -621 364 -1251h49q220 640 365 1251h176q-129 -482 -225 -806t-195 -574h-291q-95 238 -194 569q-96 -321 -195 -569h-291q-69 174 -147 422t-132 442t-140 516z" />
<glyph unicode="X" horiz-adv-x="1224" d="M45 1380h193q139 -258 350 -606h30q24 42 152 257t205 349h184q-202 -376 -383 -663q63 -108 195.5 -361t189.5 -356h-188q-60 105 -177 319.5t-175 313.5h-37q-58 -100 -176 -314.5t-177 -318.5h-182q26 50 168.5 325.5t210.5 391.5q-133 211 -383 663z" />
<glyph unicode="Y" horiz-adv-x="1167" d="M31 1380h184q179 -394 369 -745h16q197 365 373 745h172q-100 -226 -244 -513.5t-223 -424.5v-442h-170v442q-72 124 -216 408t-261 530z" />
<glyph unicode="Z" horiz-adv-x="1089" d="M51 141q110 129 240.5 315.5t283 414.5t254.5 368h-753l12 141h932l10 -141q-115 -142 -248 -344.5t-267.5 -405t-252.5 -348.5h785l-13 -141h-973z" />
<glyph unicode="[" horiz-adv-x="483" d="M88 -129v1665h322v-131h-152v-1405h152v-129h-322z" />
<glyph unicode="\" horiz-adv-x="776" d="M10 1503v33h170l541 -1536v-25h-176z" />
<glyph unicode="]" horiz-adv-x="473" d="M88 0h152v1407h-152v129h322v-1665h-322v129z" />
<glyph unicode="^" horiz-adv-x="976" d="M20 991v72l398 471h119l397 -471v-72h-191l-260 389h-12l-260 -389h-191z" />
<glyph unicode="_" horiz-adv-x="923" d="M61 0v129h807v-129h-807z" />
<glyph unicode="`" horiz-adv-x="538" d="M0 1792v72l170 20l240 -313v-35l-119 -23z" />
<glyph unicode="a" horiz-adv-x="1093" d="M68 322q0 55 24 101t62.5 76.5t78.5 50t80 28.5l486 36q0 147 -22 221.5t-71.5 103t-146.5 28.5q-69 0 -101.5 -1t-112.5 -14.5t-171 -40.5l-33 107q76 40 171.5 61t246.5 21q69 0 123 -7.5t96 -25.5t72 -41.5t51.5 -60.5t34.5 -77t20.5 -98t10 -115t2.5 -136v-539h-170 v88q-126 -113 -310 -113q-210 0 -315.5 81.5t-105.5 265.5zM238 322q0 -106 67.5 -158.5t183.5 -52.5q99 0 173 28.5t137 91.5v242l-484 -37q-26 -15 -39 -28q-38 -30 -38 -86z" />
<glyph unicode="b" d="M154 55v1481h170v-590q61 76 136.5 115t194.5 39q79 0 139.5 -14t115.5 -51.5t90.5 -99.5t56 -161.5t20.5 -234.5q0 -102 -11.5 -183t-32 -140t-53 -102t-69.5 -69.5t-87 -42t-100 -21.5t-114 -6q-171 0 -269 19.5t-187 60.5zM324 129q118 -18 286 -18q82 0 154 26 q24 6 57 27q26 51 41 96q43 118 43 279q0 81 -4.5 137.5t-19 115.5t-41 94.5t-73 58t-112.5 22.5q-112 0 -185 -39.5t-146 -128.5v-670z" />
<glyph unicode="c" horiz-adv-x="1091" d="M84 539q0 102 12.5 183t34.5 139.5t56.5 101t73 69t89.5 42t101 21t112 5.5q259 0 414 -86l-47 -119q-185 72 -367 72q-81 0 -162 -29q-33 -12 -61 -27q-28 -47 -43 -94q-41 -112 -41 -278q0 -86 5.5 -144t23.5 -116t50.5 -92t89.5 -55t138 -21q190 0 367 69l47 -119 q-155 -86 -414 -86q-62 0 -112 6t-101 21.5t-89.5 42t-73 69.5t-56.5 101.5t-34.5 140t-12.5 183.5z" />
<glyph unicode="d" horiz-adv-x="1140" d="M88 539q0 141 23.5 243.5t62 163t100.5 96t127 47t154 11.5q63 0 115 -6q117 -11 172 -31v473h170v-1536h-170v86q-59 -56 -124 -83.5t-163 -27.5q-89 0 -154 12t-127 47.5t-100.5 97t-62 164t-23.5 243.5zM258 539q0 -61 2 -104.5t9 -91.5t20 -80.5t35 -63.5t53 -48.5 t76 -28.5t102 -11q97 0 159.5 27.5t127.5 92.5v703q-11 5 -42 11.5t-99.5 14t-145.5 7.5q-81 0 -154 -29q-35 -14 -53 -27q-26 -44 -45 -94q-45 -123 -45 -278z" />
<glyph unicode="e" horiz-adv-x="1140" d="M82 539q0 141 25 243.5t65.5 163t105 96t130.5 47t155 11.5q51 0 88 -1.5t81 -8t75 -17t65 -29.5t57 -46t44.5 -65.5t34.5 -88.5t20.5 -115.5t7.5 -144.5l-24 -101l-666 -45l-90 -14q6 -75 22 -127.5t49.5 -97t92 -66.5t143.5 -22q190 0 367 69l47 -119 q-155 -86 -414 -86q-89 0 -155.5 12t-130.5 48t-104.5 96.5t-65.5 163.5t-25 244zM254 565l92 15l526 34q-2 65 -7 109.5t-17 87.5t-33.5 69.5t-55 47.5t-82 30t-114.5 9q-83 0 -164 -29q-33 -12 -61 -27q-23 -38 -39 -84q-36 -90 -45 -262z" />
<glyph unicode="f" horiz-adv-x="733" d="M41 967v112h168q0 171 28 272.5t80.5 143t137.5 41.5q108 0 284 -72l-34 -139q-156 55 -291 55q-5 -15 -17 -69q-15 -95 -18 -232h260v-133h-260v-946h-170v946z" />
<glyph unicode="g" horiz-adv-x="1220" d="M63 -250q0 196 121 330q-109 53 -112 170v6q0 51 31 105q33 57 94 104q-50 69 -50 262q0 373 416 373q219 0 336 -70l33 70l276 -21v-112l-227 -21q43 -72 43 -233q0 -52 -14 -100.5t-48 -96t-85 -82.5t-132 -56.5t-182 -21.5q-190 0 -280 41l-82 -129q26 -48 92 -74 t149 -34t178 -12t183.5 -16t161.5 -38.5t117 -86.5t44 -152q0 -165 -157 -254.5t-441 -89.5q-94 0 -174.5 12.5t-147.5 39.5t-105 75t-38 112zM231 -203q0 -50 45 -81.5t112 -43.5q53 -9 117 -9q17 0 34 1q79 2 147.5 12t130.5 30t97.5 55t35.5 83q0 53 -40 86.5t-114 49.5 t-148.5 23.5t-176.5 16.5t-166 21q-74 -104 -74 -244zM319 727q0 -73 12.5 -119t44 -71.5t74.5 -35t113 -9.5q104 0 193 34q40 16 67 35q7 27 15 49q16 62 16 103q0 144 -74.5 199t-216.5 55q-102 0 -170 -29q-25 -11 -43 -29q-3 -8 -8.5 -26.5t-7.5 -24.5q-15 -62 -15 -131 z" />
<glyph unicode="h" horiz-adv-x="1185" d="M141 0v1536h170v-545q119 109 312 109q67 0 117.5 -6.5t101.5 -23.5t86.5 -50t64 -83t42.5 -125t14 -173v-639h-172v639q0 62 -5 107t-20.5 89t-42.5 71t-74 44t-112 17q-194 0 -312 -121v-846h-170z" />
<glyph unicode="i" horiz-adv-x="497" d="M76 909v170h282v-1079h-170v909h-112zM104 1469q8 32 43 67q37 36 69 44q13 4 25 3q17 0 31 -7q24 -12 50 -40q28 -29 40 -52q7 -14 8 -31q0 -11 -4 -24q-8 -32 -42 -67q-28 -30 -52 -42q-18 -9 -34 -10q-6 0 -12 2q-22 4 -39 15.5t-40 34.5q-27 28 -39 52q-7 14 -7 30 q0 12 3 25z" />
<glyph unicode="j" horiz-adv-x="581" d="M-55 -393l30 147q69 -25 168 -39q37 -6 70 -6q8 22 18 66q19 112 19 225v909h-113v170h283v-1079q0 -81 -6 -145t-16.5 -112.5t-29 -82.5t-39.5 -56.5t-53 -33t-64 -13.5q-9 -1 -20 -1q-25 0 -56 5q-46 7 -89 17.5t-102 28.5zM166 1469q8 32 43 67q36 35 68 43q13 3 25 3 q17 0 30 -6q24 -12 51 -40q29 -29 41 -52q6 -14 6 -31q0 -11 -2 -24q-8 -32 -43 -67q-28 -30 -51 -42q-18 -10 -34 -10q-6 0 -12 2q-22 4 -39 15.5t-40 34.5q-28 28 -39 52q-7 13 -7 30q0 12 3 25z" />
<glyph unicode="k" horiz-adv-x="1071" d="M113 0v1536h170v-952l194 92l348 403h150v-55l-320 -385q117 -305 349 -584v-55h-162q-42 37 -99 113q-128 178 -221 409l-239 -119v-403h-170z" />
<glyph unicode="l" horiz-adv-x="425" d="M125 0v1536h170v-1536h-170z" />
<glyph unicode="m" horiz-adv-x="1978" d="M166 0v1079h170v-92q120 113 303 113q144 0 237.5 -35.5t143.5 -134.5q132 170 362 170q78 0 136.5 -9t116.5 -36t95 -74t59.5 -126.5t22.5 -188.5v-666h-170v666q0 73 -10.5 124t-38.5 93t-80.5 63t-130.5 21q-109 0 -186 -33.5t-141 -106.5q16 -94 16 -161v-666h-170 v672q0 79 -26.5 140t-70.5 96t-102 50q-38 10 -78 10q-21 0 -43 -3q-62 -8 -126.5 -38.5t-118.5 -80.5v-846h-170z" />
<glyph unicode="n" horiz-adv-x="1224" d="M147 0v1079h170v-92q123 113 308 113q66 0 117 -6.5t102 -22.5t87 -47.5t65 -78t43 -117t14 -162.5v-666h-170v672q0 145 -57 220t-201 75q-190 0 -308 -121v-846h-170z" />
<glyph unicode="o" d="M96 539q0 119 15.5 210t47.5 151.5t72 100.5t97.5 61.5t114.5 29.5t132 8q73 0 129.5 -8t114 -29.5t97.5 -61.5t72.5 -100.5t48.5 -151.5t16 -210q0 -142 -24 -244.5t-63 -163.5t-103 -96.5t-130.5 -47.5t-157.5 -12q-75 0 -132 8.5t-114 30t-97.5 62t-72 101.5 t-47.5 152t-16 210zM266 539q0 -86 5 -144t23.5 -116.5t51.5 -92t90 -54.5t139 -21q86 0 158 26q26 9 62 29q26 44 45 94q45 123 45 279q0 85 -6 144t-25 116.5t-52.5 91.5t-90 55t-136.5 21t-161 -29q-26 -9 -62 -29q-26 -43 -43 -94q-43 -118 -43 -276z" />
<glyph unicode="p" horiz-adv-x="1177" d="M133 -440v1519h170v-92q60 56 125.5 84.5t163.5 28.5q89 0 154 -12t127 -47.5t100 -96.5t61 -163t23 -244t-23 -244.5t-61 -163t-100 -96t-126.5 -47t-154.5 -11.5q-13 -1 -29 -1q-33 0 -80 3q-116 4 -180 23v-440h-170zM303 129q126 -18 289 -18q84 0 156 26 q28 10 55 29q28 54 41 92q41 112 41 279q0 55 -1.5 92.5t-5.5 82t-13 74.5t-23 61.5t-36 51.5t-51.5 36.5t-70.5 24t-92 7.5q-95 0 -159 -28.5t-130 -94.5v-715z" />
<glyph unicode="q" horiz-adv-x="1175" d="M96 535q0 145 21.5 248t57.5 164.5t96.5 96t124 45.5t155.5 11q173 0 274.5 -19.5t194.5 -60.5v-1460h-170v581q-64 -83 -138 -125.5t-188 -42.5q-79 0 -140.5 14.5t-117 52t-92 100t-57.5 162t-21 233.5zM266 537q0 -82 4.5 -139.5t20.5 -116.5t43.5 -94.5t75 -58 t114.5 -22.5q111 0 182 39.5t144 130.5v670q-129 21 -301 21q-82 0 -146 -29q-26 -12 -47 -29q-23 -33 -45 -88q-45 -117 -45 -271v-13z" />
<glyph unicode="r" horiz-adv-x="780" d="M127 0v1079h170v-96q63 51 125 79q62 30 119 34q24 2 47 1q30 0 56 -3q46 -6 99 -23l-16 -182h-35q-88 57 -163 57q-18 0 -36 -4q-89 -18 -196 -127v-815h-170z" />
<glyph unicode="s" horiz-adv-x="983" d="M104 57l25 123q200 -72 351 -71q133 0 227 55q15 42 18.5 77t-1.5 60t-22 46.5t-34 34.5t-48.5 27t-54 21.5t-61 20t-60.5 20.5q-73 28 -112.5 45.5t-94 52t-79.5 71.5q-24 36 -38 96q-8 33 -8 72q0 30 5 62q14 91 77 146.5t149 71.5q64 12 134 12q25 0 49 -2 q96 -6 179 -28t139 -52l-25 -129q-56 23 -122 41q-67 16 -143 26q-32 4 -63 5q-43 0 -83 -8q-70 -13 -115 -52q-14 -41 -17 -73.5t14 -58.5t27.5 -41t54 -35t60.5 -26.5t78 -26.5q5 -2 8 -3q152 -54 208 -85q136 -76 160 -208q6 -32 6 -69q0 -33 -5 -70q-14 -87 -80 -142 q-65 -55 -157 -73q-78 -15 -165 -14h-30q-103 3 -195 25.5t-156 55.5z" />
<glyph unicode="t" horiz-adv-x="739" d="M59 967v112h168v123l37 178h133v-301h230v-133h-230v-629q0 -108 42.5 -157t164.5 -49v-111q-57 0 -85.5 1t-76 6.5t-72 17t-57 34.5t-48 56.5t-27 84.5t-11.5 117v629z" />
<glyph unicode="u" horiz-adv-x="1206" d="M139 408v671h170v-671q2 -59 8.5 -101t23.5 -82.5t45 -65.5t74.5 -40t110.5 -15q91 0 163 38t140 106v831h173v-1079h-173v88q-126 -113 -303 -113q-80 0 -138 8.5t-115 35.5t-93 73.5t-59.5 126t-26.5 189.5z" />
<glyph unicode="v" horiz-adv-x="1107" d="M39 1079h178q158 -551 305 -950h45q24 56 45.5 111t45 123.5t39 115t42 136.5t39.5 134t46.5 162t47.5 168h179q-113 -408 -187.5 -637.5t-173.5 -441.5h-291q-96 223 -177.5 468.5t-182.5 610.5z" />
<glyph unicode="w" horiz-adv-x="1751" d="M49 1079h178q12 -43 47.5 -167.5t47 -162.5t39 -132.5t42.5 -138t38.5 -114t45 -125t45.5 -110.5h46q96 224 206 608q-32 109 -94 342h178q10 -35 42.5 -148t41 -144t35 -120.5t37.5 -123.5t33.5 -104t38 -111t36.5 -95.5t42 -103.5h45q125 322 305 950h178 q-99 -358 -181.5 -604.5t-179.5 -474.5h-290q-102 226 -168 424h-17q-71 -214 -166 -424h-290q-99 212 -173.5 441.5t-187.5 637.5z" />
<glyph unicode="x" horiz-adv-x="1183" d="M35 0v20q183 207 420 527q-71 88 -197.5 253t-185.5 240v39h182q90 -114 188.5 -248t132.5 -176h17q13 18 118 158.5t201 265.5h170v-39q-124 -185 -358 -493q29 -38 86 -115.5t94.5 -127t99.5 -128.5t127 -156v-20h-223l-311 430h-18l-322 -430h-221z" />
<glyph unicode="y" horiz-adv-x="1030" d="M10 1079h178q10 -35 42.5 -148t41 -144t35 -120.5t37.5 -123.5t33.5 -104t38 -111t36.5 -95.5t42 -103.5h45q24 56 45.5 111t45 123.5t39 115t42 136.5t39.5 134t46.5 162t47.5 168h178q-62 -219 -98.5 -340t-100.5 -308t-149.5 -393t-208.5 -478h-184q41 84 76.5 160.5 t73.5 163t52 116.5h-112q-99 212 -173.5 441.5t-187.5 637.5z" />
<glyph unicode="z" horiz-adv-x="995" d="M37 129q100 93 208 226.5t236 301.5t226 281h-631l10 141h815l10 -133q-86 -82 -197 -228t-233 -310t-219 -267h662l-11 -141h-866z" />
<glyph unicode="{" horiz-adv-x="792" d="M31 639v133h20q105 2 159 56t54 182q0 118 9 196.5t34.5 146t71.5 105t118 58t177 20.5v-131q-163 0 -211 -122q-28 -70 -29 -235v-38q0 -220 -121 -305q121 -91 121 -306q0 -128 10.5 -204t40 -120.5t72.5 -59.5t117 -15v-129q-105 0 -177.5 21t-118 59t-71 105.5 t-34.5 146.5t-9 196q0 125 -54 180t-159 60h-20z" />
<glyph unicode="|" horiz-adv-x="440" d="M106 -311v1978h170v-1978h-170z" />
<glyph unicode="}" horiz-adv-x="718" d="M31 0q98 0 146.5 30.5t70.5 115t22 253.5q0 112 28 186t93 120q-64 43 -92.5 117.5t-28.5 187.5q0 167 -15 231q-29 126 -140 154q-38 10 -84 10v131q88 0 152 -13t109.5 -42.5t74 -69t45 -102.5t22.5 -132t6 -167q0 -128 53 -182t158 -56h23v-133q-117 0 -175.5 -53.5 t-58.5 -186.5q0 -117 -9 -196t-34 -146.5t-71 -105.5t-118 -59t-177 -21v129z" />
<glyph unicode="~" horiz-adv-x="1021" d="M39 571q17 72 56.5 114.5t92.5 54.5t113 9.5t126 -20t123.5 -35t113.5 -33t88 -16.5l32 17q39 30 58 65l123 -45q-29 -80 -80 -123.5t-107 -52t-129.5 1.5t-135 29.5t-137.5 41.5t-124 29l-33 -18q-40 -31 -57 -66z" />
<glyph unicode="&#xa1;" horiz-adv-x="479" d="M87.5 1246.5q-7.5 32.5 4 56t39.5 51.5q23 23 40 34.5t39 16t45.5 -8t51.5 -42.5q35 -35 42.5 -67t-4 -55t-40.5 -52q-27 -28 -50.5 -39.5t-55.5 -3.5t-68 43q-36 34 -43.5 66.5zM125 -25l18 1012l21 35h121l53 -1022l-12 -53z" />
<glyph unicode="&#xa2;" horiz-adv-x="929" d="M76 539q0 129 20 225.5t53.5 157t87 99t111.5 55.5t135 22v141h170v-141q115 -9 195 -29l-29 -123q-110 21 -264 21q-81 0 -162 -29q-33 -12 -61 -27q-26 -43 -43 -94q-41 -112 -41 -278q0 -86 5.5 -144t23.5 -116t50.5 -92t89.5 -55t138 -21q169 0 264 18l33 -119 q-80 -24 -199 -30v-138h-170v135q-77 5 -135 22t-111 56t-87 100.5t-54 158t-20 225.5z" />
<glyph unicode="&#xa3;" horiz-adv-x="1097" d="M35 0v111l164 18v485h-2l-162 -10v141l164 11v188q0 92 11 162.5t28 119.5t48.5 82.5t62.5 52.5t80.5 29t90.5 12.5t105 2.5q264 0 395 -156l-125 -78q-54 39 -112 59.5t-158 20.5q-163 0 -228 -61q-11 -33 -19.5 -120.5t-8.5 -125.5v-188h290l93 8v-141l-93 -9h-290 v-473h659v-141h-993z" />
<glyph unicode="&#xa4;" horiz-adv-x="1372" d="M109 111l114 114q-104 137 -104 324q0 182 104 323l-114 115l120 121l115 -115q146 107 324 107q174 0 323 -107l115 115l121 -121l-115 -115q107 -149 107 -323q0 -177 -107 -326l115 -114l-121 -119l-115 114q-141 -104 -323 -104q-181 0 -326 104l-115 -114zM285 549 q0 -160 111.5 -271.5t271.5 -111.5q159 0 272 112t113 271q0 158 -113.5 271.5t-271.5 113.5q-159 0 -271 -113t-112 -272z" />
<glyph unicode="&#xa5;" horiz-adv-x="1167" d="M31 1380h184q179 -394 369 -745h16q197 365 373 745h172q-125 -279 -363 -745h205v-141h-280l-29 -52v-170h309v-141h-309v-131h-170v131h-328v141h328v170q-27 47 -29 52h-299v141h223q-186 347 -372 745z" />
<glyph unicode="&#xa6;" horiz-adv-x="450" d="M106 -311v665h170v-665h-170zM106 999v666h170v-666h-170z" />
<glyph unicode="&#xa7;" horiz-adv-x="1189" d="M109 -209l106 96q101 -98 338 -98q140 0 244 74q46 34 80 74q10 42 12 77t-6.5 62.5t-21 49.5t-36 40t-45 31.5t-55.5 26.5t-60.5 22t-66.5 21q-5 1 -8 2t-7 2.5t-8 2.5q-85 27 -137.5 47t-123 59t-108 82.5t-61.5 111.5t-14 151q24 202 191 285q-103 56 -155 140 t-36 210q20 165 134.5 250.5t307.5 85.5q145 -2 253.5 -38t191.5 -118l-107 -90q-48 53 -127.5 74.5t-210.5 21.5q-80 0 -165 -33q-44 -18 -68 -32q-31 -56 -42 -104.5t-7 -83t27 -65t46.5 -49.5t66 -39t71.5 -30t75 -25q8 -3 12.5 -4.5t11.5 -3.5t13 -4q42 -14 64 -21.5 t62.5 -22.5t63 -26t57 -28.5t54.5 -34t46 -39t40.5 -47t29 -54t20.5 -63.5t6 -73q0 -106 -53 -187.5t-148 -134.5q96 -52 148.5 -126t52.5 -187q0 -176 -143.5 -285t-360.5 -109q-296 0 -444 156zM293 656.5q3 -34.5 31 -67t51.5 -51.5t76.5 -42t84 -33.5t96 -31.5 q2 -1 3 -1q96 17 182 82q43 31 60 59q12 48 11.5 87t-10 67.5t-30.5 52.5t-44.5 40.5t-58.5 31.5t-67 26t-75 24q-24 7 -36 11q-86 -3 -161 -32q-41 -17 -66 -33q-31 -57 -40.5 -106t-6.5 -83.5z" />
<glyph unicode="&#xa8;" horiz-adv-x="860" d="M53 1674q8 32 43 67q36 35 68 43t55.5 -3.5t50.5 -39.5q29 -29 40.5 -52t4 -55t-42.5 -67q-28 -30 -51.5 -42.5t-45.5 -8t-39 16t-40 34.5q-28 28 -39.5 51.5t-3.5 55.5zM557 1674q8 32 43 67q36 35 68 43t55.5 -3.5t50.5 -39.5q29 -29 40.5 -52t4 -55t-42.5 -67 q-28 -30 -51.5 -42.5t-45.5 -8t-39 16t-40 34.5q-28 28 -39.5 51.5t-3.5 55.5z" />
<glyph unicode="&#xab;" horiz-adv-x="1251" d="M63 543v123l461 413h72v-198l-389 -277l389 -276v-199h-72zM444 543v123l684 413h72v-198l-571 -277l571 -276v-199h-72z" />
<glyph unicode="&#xad;" horiz-adv-x="888" d="M20 584v141h807v-141h-807z" />
<glyph unicode="&#xae;" horiz-adv-x="1705" />
<glyph unicode="&#xaf;" horiz-adv-x="708" d="M20 1536v141h629v-141h-629z" />
<glyph unicode="&#xb0;" horiz-adv-x="620" d="M57 1403q0 80 18.5 133t55.5 79.5t79.5 36t104.5 9.5q61 0 103 -9.5t79 -36t55.5 -79.5t18.5 -133q0 -81 -18 -134t-55 -80t-79.5 -36.5t-105.5 -9.5q-61 0 -103 9.5t-79 36t-55.5 80t-18.5 134.5zM207 1403q0 -67 18.5 -92t87.5 -25q37 0 58 6l20 6q5 5 17 25 q16 32 16 80q0 63 -20 89t-89 26q-8 0 -57 -7l-20 -6q-6 -7 -17 -24q-14 -28 -14 -78z" />
<glyph unicode="&#xb4;" horiz-adv-x="403" d="M0 1536v35l240 313l170 -20v-72l-291 -279z" />
<glyph unicode="&#xb5;" horiz-adv-x="1214" d="M147 -512v1612h170v-846q118 -121 308 -121q144 0 201 75t57 220v672h170v-666q0 -111 -22 -190.5t-57.5 -126t-93.5 -73.5t-116 -35.5t-139 -8.5q-185 0 -308 113v-625h-170z" />
<glyph unicode="&#xb6;" horiz-adv-x="1052" d="M55 920q0 122 35.5 213t99.5 143.5t144.5 78t179.5 25.5h475v-106l-153 -23v-1282q0 -66 -5 -119t-19 -104.5t-36.5 -87.5t-59 -61.5t-85.5 -33t-117.5 4t-153.5 43.5l31 147q120 -45 238 -45q37 43 37 260v1278h-152v-790q-99 0 -179.5 25.5t-144.5 78.5t-99.5 143 t-35.5 212z" />
<glyph unicode="&#xb7;" horiz-adv-x="372" d="M53 910q8 32 43 67q36 35 68 43t55.5 -3.5t50.5 -39.5q29 -29 40.5 -52t4 -55t-42.5 -67q-28 -30 -51.5 -42.5t-45.5 -8t-39 16t-40 34.5q-28 28 -39.5 51.5t-3.5 55.5z" />
<glyph unicode="&#xb8;" horiz-adv-x="460" d="M82 -123l31 178h149l-33 -161q53 -23 84.5 -62.5t38.5 -84t-8 -90.5t-48 -83t-89 -60.5t-125 -23.5v174q60 0 90 23.5t27 53t-30.5 57.5t-70.5 36z" />
<glyph unicode="&#xba;" d="M96 539q0 119 15.5 210t47.5 151.5t72 100.5t97.5 61.5t114.5 29.5t132 8q73 0 129.5 -8t114 -29.5t97.5 -61.5t72.5 -100.5t48.5 -151.5t16 -210q0 -142 -24 -244.5t-63 -163.5t-103 -96.5t-130.5 -47.5t-157.5 -12q-75 0 -132 8.5t-114 30t-97.5 62t-72 101.5 t-47.5 152t-16 210zM266 539q0 -86 5 -144t23.5 -116.5t51.5 -92t90 -54.5t139 -21q86 0 158 26q26 9 62 29q26 44 45 94q45 123 45 279q0 85 -6 144t-25 116.5t-52.5 91.5t-90 55t-136.5 21t-161 -29q-26 -9 -62 -29q-26 -43 -43 -94q-43 -118 -43 -276z" />
<glyph unicode="&#xbb;" horiz-adv-x="1251" d="M63 129v199l572 276l-572 277v198h72l684 -413v-123l-684 -414h-72zM668 129v199l389 276l-389 277v198h71l461 -413v-123l-461 -414h-71z" />
<glyph unicode="&#xbf;" horiz-adv-x="964" d="M53 272l113 25l27 -117q55 -41 111.5 -60.5t158.5 -19.5q114 0 182 31q29 11 45 31q18 46 24 87t5.5 75t-16.5 72.5t-31.5 66.5t-50.5 71t-61.5 72t-76.5 83q-18 20 -28 30q-80 80 -80 145v33h147q0 -7 2 -14.5t4.5 -13.5t7 -14t8 -13.5t10 -13.5t10 -12t11 -12t10 -10.5 l9.5 -9.5l8 -8q27 -29 73 -78t65.5 -70.5t50.5 -59t44 -62t28.5 -60t20.5 -71t5 -78.5q0 -89 -20.5 -152.5t-55 -101.5t-91 -60t-116 -29t-143.5 -7q-265 0 -395 155zM318.5 1217.5q-7.5 32.5 4 56t39.5 51.5q23 23 40 34.5t39 16t46 -8t52 -42.5q35 -35 42.5 -67t-4 -55 t-40.5 -52q-27 -28 -50.5 -40t-56 -3.5t-68.5 43.5q-36 34 -43.5 66.5zM375 897l2 61l20 35h121l4 -96h-147z" />
<glyph unicode="&#xc0;" horiz-adv-x="1228" d="M43 0q219 818 379 1251l-154 23v106h494q180 -454 430 -1380h-178q-17 65 -70.5 258.5t-60.5 218.5l-90 -4h-355l-94 -8q-91 -316 -123 -465h-178zM385 608l53 6h355l51 2q-71 242 -199 623h-57q-103 -299 -203 -631zM410 1792v72l170 20l239 -313v-35l-119 -23z" />
<glyph unicode="&#xc1;" horiz-adv-x="1228" d="M43 0q219 818 379 1251l-154 23v106h494q180 -454 430 -1380h-178q-17 65 -70.5 258.5t-60.5 218.5l-90 -4h-355l-94 -8q-91 -316 -123 -465h-178zM385 608l53 6h355l51 2q-71 242 -199 623h-57q-103 -299 -203 -631zM410 1536v35l239 313l170 -20v-72l-291 -279z" />
<glyph unicode="&#xc2;" horiz-adv-x="1228" d="M43 0q219 818 379 1251l-154 23v106h494q180 -454 430 -1380h-178q-17 65 -70.5 258.5t-60.5 218.5l-90 -4h-355l-94 -8q-91 -316 -123 -465h-178zM268 1534v72l307 278l103 -22l283 -256v-72l-170 -21l-177 232l-176 -232zM385 608l53 6h355l51 2q-71 242 -199 623h-57 q-103 -299 -203 -631z" />
<glyph unicode="&#xc3;" horiz-adv-x="1228" d="M43 0q219 818 379 1251l-154 23v106h494q180 -454 430 -1380h-178q-17 65 -70.5 258.5t-60.5 218.5l-90 -4h-355l-94 -8q-91 -316 -123 -465h-178zM160 1581q18 84 63.5 128t102 50.5t127.5 -5.5t132 -34t124.5 -41.5t95.5 -21.5q7 3 29 16q36 32 53 66l110 -45 q-27 -80 -73.5 -123.5t-96.5 -52.5t-116.5 1t-121.5 29.5t-124 41t-113 28.5l-28 -19q-39 -34 -54 -65zM385 608l53 6h355l51 2q-71 242 -199 623h-57q-103 -299 -203 -631z" />
<glyph unicode="&#xc4;" horiz-adv-x="1228" d="M43 0q219 818 379 1251l-154 23v106h494q180 -454 430 -1380h-178q-17 65 -70.5 258.5t-60.5 218.5l-90 -4h-355l-94 -8q-91 -316 -123 -465h-178zM231 1674q8 32 43 67q36 35 68.5 43.5t56 -3.5t50.5 -40q29 -29 40.5 -52t4 -55t-42.5 -67q-28 -30 -52 -42.5t-46 -8 t-39 16t-40 34.5q-28 28 -39.5 51.5t-3.5 55.5zM385 608l53 6h355l51 2q-71 242 -199 623h-57q-103 -299 -203 -631zM735 1674q8 32 43 67q36 35 68 43t55.5 -3.5t50.5 -39.5q29 -29 40.5 -52t4 -55t-42.5 -67q-28 -30 -51.5 -42.5t-45.5 -8t-39 16t-40 34.5 q-28 28 -39.5 51.5t-3.5 55.5z" />
<glyph unicode="&#xc5;" horiz-adv-x="1228" d="M43 0q214 787 391 1276q-80 61 -80 221q0 80 18.5 133t55.5 79.5t79.5 36t104.5 9.5q61 0 103 -9.5t79 -36t55.5 -79.5t18.5 -133q0 -150 -69 -213q160 -446 393 -1284h-178q-17 65 -70.5 258.5t-60.5 218.5l-90 -4h-355l-94 -8q-91 -316 -123 -465h-178zM385 608l53 6 h355l51 2q-66 225 -199 621h-35h-24q-82 -240 -201 -629zM504 1497q0 -67 18.5 -92t87.5 -25q37 0 58 6l20 7q6 7 17 24q16 32 16 80q0 63 -20 89t-89 26q-15 0 -57 -6l-20 -7q-7 -7 -17 -24q-14 -28 -14 -78z" />
<glyph unicode="&#xc6;" horiz-adv-x="1757" d="M12 0q216 809 377 1251l-153 23v106h1394l17 -141h-697l70 -494l113 11h399l14 -142h-399l-107 -10l66 -463h614l15 -141h-783l-65 477l-82 -4h-404l-94 -8q-68 -229 -121 -465h-174zM350 608l51 6h404l61 4l-86 621h-229q-90 -253 -201 -631z" />
<glyph unicode="&#xc7;" horiz-adv-x="1216" d="M61 684q0 128 16.5 231.5t45 177.5t73 129t94.5 89t115.5 54.5t130 28t144.5 7.5q141 0 246 -36.5t184 -119.5l-100 -90q-48 53 -125 74.5t-205 21.5q-112 0 -229 -34q-35 -11 -86 -35q-41 -61 -66 -131q-66 -176 -66 -369q0 -77 4 -135.5t15.5 -119t32 -103t54 -81.5 t80 -63t112.5 -37.5t149 -13.5q172 0 293 41q51 16 104 43l60 -115q-163 -110 -404 -121l-16 -83q63 -27 96 -77.5t28.5 -105.5t-34 -105.5t-93 -83t-145.5 -32.5v174q60 0 90 23.5t27.5 53t-30 57.5t-70.5 36l-17 43l17 103q-96 5 -170.5 25.5t-143.5 69.5t-113.5 126 t-71 199t-26.5 284z" />
<glyph unicode="&#xc8;" horiz-adv-x="1099" d="M141 0v1380h828v-141h-658v-494l92 11h422v-142h-422l-92 -10v-463h658v-141h-828zM344 1792v72l170 20l240 -313v-35l-119 -23z" />
<glyph unicode="&#xc9;" horiz-adv-x="1099" d="M141 0v1380h828v-141h-658v-494l92 11h422v-142h-422l-92 -10v-463h658v-141h-828zM344 1536v35l240 313l170 -20v-72l-291 -279z" />
<glyph unicode="&#xca;" horiz-adv-x="1099" d="M141 0v1380h828v-141h-658v-494l92 11h422v-142h-422l-92 -10v-463h658v-141h-828zM203 1534v72l307 278l102 -22l283 -256v-72l-170 -21l-176 232l-176 -232z" />
<glyph unicode="&#xcb;" horiz-adv-x="1099" d="M141 0v1380h828v-141h-658v-494l92 11h422v-142h-422l-92 -10v-463h658v-141h-828zM168 1674q8 32 43 67q36 35 68 43t55.5 -3.5t50.5 -39.5q29 -29 40.5 -52t4 -55t-42.5 -67q-28 -30 -51.5 -42.5t-45.5 -8t-39 16t-40 34.5q-28 28 -39.5 51.5t-3.5 55.5zM672 1674 q8 32 43 67q36 35 68 43t55.5 -3.5t50.5 -39.5q29 -29 40.5 -52t4 -55t-42.5 -67q-28 -30 -51.5 -42.5t-45.5 -8t-39 16t-40 34.5q-28 28 -39.5 51.5t-3.5 55.5z" />
<glyph unicode="&#xcc;" horiz-adv-x="460" d="M25 1792v72l170 20l239 -313v-35l-119 -23zM141 0v1380h170v-1380h-170z" />
<glyph unicode="&#xcd;" horiz-adv-x="460" d="M25 1536v35l239 313l170 -20v-72l-291 -279zM141 0v1380h170v-1380h-170z" />
<glyph unicode="&#xce;" horiz-adv-x="460" d="M-115 1534v72l308 278l102 -22l283 -256v-72l-170 -21l-177 232l-176 -232zM141 0v1380h170v-1380h-170z" />
<glyph unicode="&#xcf;" horiz-adv-x="460" d="M-152 1674q8 32 43 67q36 35 68.5 43.5t56 -3.5t50.5 -40q29 -29 40.5 -52t4 -55t-42.5 -67q-28 -30 -52 -42.5t-46 -8t-39 16t-40 34.5q-28 28 -39.5 51.5t-3.5 55.5zM141 0v1380h170v-1380h-170zM352 1674q8 32 43 67q36 35 68 43t55.5 -3.5t50.5 -39.5 q29 -29 40.5 -52t4 -55t-42.5 -67q-28 -30 -51.5 -42.5t-45.5 -8t-39 16t-40 34.5q-28 28 -39.5 51.5t-3.5 55.5z" />
<glyph unicode="&#xd0;" horiz-adv-x="1277" d="M0 584v141h109v655h436q60 0 109.5 -3.5t102.5 -13.5t95 -27t83.5 -44.5t73 -65t59 -90t44.5 -118t27 -149.5t10 -185t-9.5 -185t-26 -149t-43 -116t-57 -87.5t-72 -63t-82.5 -42.5t-95 -25.5t-104 -12.5t-113 -3h-438v584h-109zM279 141h227q163 0 276 37q45 15 74 37 q35 47 62 115q61 157 61 352q0 79 -3.5 136.5t-14.5 119t-30 104.5t-51 82.5t-77.5 63t-110 37.5t-147.5 14h-266v-514h215v-141h-215v-443z" />
<glyph unicode="&#xd1;" horiz-adv-x="1327" d="M109 0v1380h299q103 -216 292.5 -637.5t272.5 -601.5h10v1239h170v-1380h-297q-332 755 -567 1239h-10v-1239h-170zM244 1581q18 84 63.5 128t102 50.5t127.5 -5.5t132 -34t124.5 -41.5t95.5 -21.5q7 3 29 16q36 32 53 66l110 -45q-27 -80 -73.5 -123.5t-96.5 -52.5 t-116.5 1t-121.5 29.5t-124 41t-113 28.5l-28 -19q-39 -34 -54 -65z" />
<glyph unicode="&#xd2;" horiz-adv-x="1415" d="M66 684q0 128 17 231.5t46 177.5t74 129t96 89t117 54.5t131 28t145 7.5q78 0 142 -7.5t130 -28t116.5 -54.5t96 -89t75 -129t46.5 -177.5t17 -231.5q0 -129 -16.5 -232t-45 -176.5t-73.5 -127.5t-95 -87t-116.5 -52.5t-131 -26.5t-145.5 -7q-80 0 -144.5 7t-131.5 26.5 t-117 52.5t-95.5 87t-74.5 127.5t-46 176.5t-17 232zM238 682q0 -90 6.5 -157t23.5 -133.5t49 -111.5t81.5 -81t123 -53t170.5 -17q113 0 226 37q40 13 83 37q35 45 72 121q72 165 72 358q0 110 -9 188.5t-37.5 155t-77.5 123t-131.5 74.5t-197.5 28q-114 0 -235 -34 q-31 -9 -90 -35q-41 -61 -66 -131q-63 -168 -63 -369zM502 1792v72l170 20l239 -313v-35l-118 -23z" />
<glyph unicode="&#xd3;" horiz-adv-x="1415" d="M66 684q0 128 17 231.5t46 177.5t74 129t96 89t117 54.5t131 28t145 7.5q78 0 142 -7.5t130 -28t116.5 -54.5t96 -89t75 -129t46.5 -177.5t17 -231.5q0 -129 -16.5 -232t-45 -176.5t-73.5 -127.5t-95 -87t-116.5 -52.5t-131 -26.5t-145.5 -7q-80 0 -144.5 7t-131.5 26.5 t-117 52.5t-95.5 87t-74.5 127.5t-46 176.5t-17 232zM238 682q0 -90 6.5 -157t23.5 -133.5t49 -111.5t81.5 -81t123 -53t170.5 -17q113 0 226 37q40 13 83 37q35 45 72 121q72 165 72 358q0 110 -9 188.5t-37.5 155t-77.5 123t-131.5 74.5t-197.5 28q-114 0 -235 -34 q-31 -9 -90 -35q-41 -61 -66 -131q-63 -168 -63 -369zM502 1536v35l239 313l170 -20v-72l-290 -279z" />
<glyph unicode="&#xd4;" horiz-adv-x="1415" d="M66 684q0 128 17 231.5t46 177.5t74 129t96 89t117 54.5t131 28t145 7.5q78 0 142 -7.5t130 -28t116.5 -54.5t96 -89t75 -129t46.5 -177.5t17 -231.5q0 -129 -16.5 -232t-45 -176.5t-73.5 -127.5t-95 -87t-116.5 -52.5t-131 -26.5t-145.5 -7q-80 0 -144.5 7t-131.5 26.5 t-117 52.5t-95.5 87t-74.5 127.5t-46 176.5t-17 232zM238 682q0 -90 6.5 -157t23.5 -133.5t49 -111.5t81.5 -81t123 -53t170.5 -17q113 0 226 37q40 13 83 37q35 45 72 121q72 165 72 358q0 110 -9 188.5t-37.5 155t-77.5 123t-131.5 74.5t-197.5 28q-114 0 -235 -34 q-31 -9 -90 -35q-41 -61 -66 -131q-63 -168 -63 -369zM360 1534v72l308 278l102 -22l283 -256v-72l-170 -21l-176 232l-177 -232z" />
<glyph unicode="&#xd5;" horiz-adv-x="1415" d="M66 684q0 128 17 231.5t46 177.5t74 129t96 89t117 54.5t131 28t145 7.5q78 0 142 -7.5t130 -28t116.5 -54.5t96 -89t75 -129t46.5 -177.5t17 -231.5q0 -129 -16.5 -232t-45 -176.5t-73.5 -127.5t-95 -87t-116.5 -52.5t-131 -26.5t-145.5 -7q-80 0 -144.5 7t-131.5 26.5 t-117 52.5t-95.5 87t-74.5 127.5t-46 176.5t-17 232zM238 682q0 -90 6.5 -157t23.5 -133.5t49 -111.5t81.5 -81t123 -53t170.5 -17q113 0 226 37q40 13 83 37q35 45 72 121q72 165 72 358q0 110 -9 188.5t-37.5 155t-77.5 123t-131.5 74.5t-197.5 28q-114 0 -235 -34 q-31 -9 -90 -35q-41 -61 -66 -131q-63 -168 -63 -369zM289 1581q18 84 63.5 128.5t102 50.5t127.5 -6t132 -34t124.5 -41.5t95.5 -21.5q7 3 29 16q36 32 53 66l110 -45q-27 -80 -73.5 -123.5t-96.5 -52.5t-116.5 1t-121.5 29.5t-124 41t-113 28.5l-28 -19q-39 -34 -54 -65z " />
<glyph unicode="&#xd6;" horiz-adv-x="1415" d="M66 684q0 128 17 231.5t46 177.5t74 129t96 89t117 54.5t131 28t145 7.5q78 0 142 -7.5t130 -28t116.5 -54.5t96 -89t75 -129t46.5 -177.5t17 -231.5q0 -129 -16.5 -232t-45 -176.5t-73.5 -127.5t-95 -87t-116.5 -52.5t-131 -26.5t-145.5 -7q-80 0 -144.5 7t-131.5 26.5 t-117 52.5t-95.5 87t-74.5 127.5t-46 176.5t-17 232zM238 682q0 -90 6.5 -157t23.5 -133.5t49 -111.5t81.5 -81t123 -53t170.5 -17q113 0 226 37q40 13 83 37q35 45 72 121q72 165 72 358q0 110 -9 188.5t-37.5 155t-77.5 123t-131.5 74.5t-197.5 28q-114 0 -235 -34 q-31 -9 -90 -35q-41 -61 -66 -131q-63 -168 -63 -369zM326 1674q8 32 43 67q36 35 68 43t55.5 -3.5t50.5 -39.5q29 -29 40.5 -52t4 -55t-42.5 -67q-28 -30 -51.5 -42.5t-45.5 -8t-39 16t-40 34.5q-28 28 -39.5 51.5t-3.5 55.5zM829 1674q8 32 43 67q36 35 68.5 43.5t56 -3.5 t50.5 -40q29 -29 40.5 -52t4 -55t-42.5 -67q-28 -30 -52 -42.5t-46 -8t-39 16t-40 34.5q-28 28 -39.5 51.5t-3.5 55.5z" />
<glyph unicode="&#xd7;" horiz-adv-x="897" d="M131 381l236 235l-236 236l98 100l236 -237l235 235l101 -98l-236 -236l236 -235l-101 -98l-235 233l-236 -235z" />
<glyph unicode="&#xd8;" horiz-adv-x="1415" d="M66 684q0 128 17 231.5t46 177.5t74 129t96 89t117 54.5t131 28t145 7.5q83 0 146 -8l32 94h170v-33l-36 -104q72 -30 127.5 -80t97.5 -128.5t64 -193.5t22 -264q0 -129 -16.5 -232t-45 -176.5t-73.5 -127.5t-95 -87t-116.5 -52.5t-131 -26.5t-145.5 -7q-65 0 -166 11 l-20 -60h-176v25l26 80q-92 41 -154 116.5t-99 210.5t-37 326zM238 682q0 -74 4 -131.5t15.5 -115.5t31 -101.5t51 -81.5t74.5 -64l370 1057q-43 6 -92 6q-114 0 -235 -34q-31 -9 -90 -35q-41 -61 -66 -131q-63 -168 -63 -369zM578 135q52 -6 114 -6q113 0 226 37 q40 13 83 37q35 45 72 121q72 165 72 358q0 97 -7.5 170t-28 142.5t-60 120.5t-99.5 83z" />
<glyph unicode="&#xd9;" horiz-adv-x="1339" d="M131 559v821h170v-821q0 -53 1 -86.5t4.5 -77t11 -69.5t20 -57.5t31.5 -50t46.5 -38t63.5 -29t83 -16t106 -6.5q104 0 192 37q38 15 66 37q26 50 45 112q47 163 47 369v696h170v-696q0 -143 -13.5 -251.5t-43.5 -187t-71 -131t-101.5 -83t-129.5 -43.5t-161 -13 q-155 0 -254.5 27.5t-164.5 96t-91.5 178.5t-26.5 282zM465 1792v72l170 20l239 -313v-35l-118 -23z" />
<glyph unicode="&#xda;" horiz-adv-x="1339" d="M131 559v821h170v-821q0 -53 1 -86.5t4.5 -77t11 -69.5t20 -57.5t31.5 -50t46.5 -38t63.5 -29t83 -16t106 -6.5q104 0 192 37q38 15 66 37q26 50 45 112q47 163 47 369v696h170v-696q0 -143 -13.5 -251.5t-43.5 -187t-71 -131t-101.5 -83t-129.5 -43.5t-161 -13 q-155 0 -254.5 27.5t-164.5 96t-91.5 178.5t-26.5 282zM465 1536v35l240 313l169 -20v-72l-290 -279z" />
<glyph unicode="&#xdb;" horiz-adv-x="1339" d="M131 559v821h170v-821q0 -53 1 -86.5t4.5 -77t11 -69.5t20 -57.5t31.5 -50t46.5 -38t63.5 -29t83 -16t106 -6.5q104 0 192 37q38 15 66 37q26 50 45 112q47 163 47 369v696h170v-696q0 -143 -13.5 -251.5t-43.5 -187t-71 -131t-101.5 -83t-129.5 -43.5t-161 -13 q-155 0 -254.5 27.5t-164.5 96t-91.5 178.5t-26.5 282zM324 1534v72l307 278l102 -22l283 -256v-72l-170 -21l-176 232l-176 -232z" />
<glyph unicode="&#xdc;" horiz-adv-x="1339" d="M131 559v821h170v-821q0 -53 1 -86.5t4.5 -77t11 -69.5t20 -57.5t31.5 -50t46.5 -38t63.5 -29t83 -16t106 -6.5q104 0 192 37q38 15 66 37q26 50 45 112q47 163 47 369v696h170v-696q0 -143 -13.5 -251.5t-43.5 -187t-71 -131t-101.5 -83t-129.5 -43.5t-161 -13 q-155 0 -254.5 27.5t-164.5 96t-91.5 178.5t-26.5 282zM287 1674q8 32 43 67q36 35 68 43t55.5 -3.5t50.5 -39.5q29 -29 40.5 -52t4 -55t-42.5 -67q-28 -30 -51.5 -42.5t-45.5 -8t-39 16t-40 34.5q-28 28 -39.5 51.5t-3.5 55.5zM791 1674q8 32 43 67q36 35 68 43t55.5 -3.5 t50.5 -39.5q29 -29 40.5 -52t4 -55t-42.5 -67q-28 -30 -51.5 -42.5t-45.5 -8t-39 16t-40 34.5q-28 28 -39.5 51.5t-3.5 55.5z" />
<glyph unicode="&#xdd;" horiz-adv-x="1167" d="M31 1380h184q179 -394 369 -745h16q197 365 373 745h172q-100 -226 -244 -513.5t-223 -424.5v-442h-170v442q-72 124 -216 408t-261 530zM379 1536v35l239 313l170 -20v-72l-290 -279z" />
<glyph unicode="&#xde;" horiz-adv-x="1112" d="M111 0l2 1085v295h168v-215h149q75 0 134.5 -4t125.5 -16t115.5 -32t96.5 -55.5t76.5 -83.5t47.5 -117.5t18 -156.5q0 -479 -497 -479h-174l-92 -10v-211h-170zM281 352l92 10h174q105 0 188 27q28 9 64 29q25 41 37 76q38 103 38 206q0 181 -102.5 252.5t-341.5 71.5 h-149v-672z" />
<glyph unicode="&#xdf;" horiz-adv-x="1130" d="M14 967v112h170q0 171 28 272.5t80.5 143t137.5 41.5q48 0 90 -3t95.5 -13t98 -26.5t90.5 -46t80.5 -69t62 -97.5t40.5 -130l-215 -293q138 -44 229 -154.5t91 -265.5q0 -112 -20 -195t-53 -133.5t-83.5 -81.5t-103.5 -42t-121 -11q-64 5 -112.5 18.5t-70.5 25t-71 40.5 v125q22 -13 43.5 -24t40.5 -18.5t35 -13t32 -8.5t27.5 -5.5t25 -3t20 -0.5h17.5h13q70 0 118 43t69 106t24 143q2 66 -12.5 119t-51 99t-104.5 76t-166 42v142l217 286q-18 65 -55.5 108.5t-94.5 65.5t-119 30.5t-147 8.5q-2 -6 -16 -69q-17 -102 -19 -232v-1079h-170v946z " />
<glyph unicode="&#xe0;" horiz-adv-x="1093" d="M68 322q0 55 24 101t62.5 76.5t78.5 50t80 28.5l486 36q0 147 -22 221.5t-71.5 103t-146.5 28.5q-69 0 -101.5 -1t-112.5 -14.5t-171 -40.5l-33 107q76 40 171.5 61t246.5 21q69 0 123 -7.5t96 -25.5t72 -41.5t51.5 -60.5t34.5 -77t20.5 -98t10 -115t2.5 -136v-539h-170 v88q-126 -113 -310 -113q-210 0 -315.5 81.5t-105.5 265.5zM238 322q0 -106 67.5 -158.5t183.5 -52.5q99 0 173 28.5t137 91.5v242l-484 -37q-26 -15 -39 -28q-38 -30 -38 -86zM270 1561v71l170 21l240 -314v-34l-119 -23z" />
<glyph unicode="&#xe1;" horiz-adv-x="1093" d="M68 322q0 55 24 101t62.5 76.5t78.5 50t80 28.5l486 36q0 147 -22 221.5t-71.5 103t-146.5 28.5q-69 0 -101.5 -1t-112.5 -14.5t-171 -40.5l-33 107q76 40 171.5 61t246.5 21q69 0 123 -7.5t96 -25.5t72 -41.5t51.5 -60.5t34.5 -77t20.5 -98t10 -115t2.5 -136v-539h-170 v88q-126 -113 -310 -113q-210 0 -315.5 81.5t-105.5 265.5zM238 322q0 -106 67.5 -158.5t183.5 -52.5q99 0 173 28.5t137 91.5v242l-484 -37q-26 -15 -39 -28q-38 -30 -38 -86zM401 1305v34l240 314l170 -21v-71l-291 -279z" />
<glyph unicode="&#xe2;" horiz-adv-x="1093" d="M68 322q0 55 24 101t62.5 76.5t78.5 50t80 28.5l486 36q0 147 -22 221.5t-71.5 103t-146.5 28.5q-69 0 -101.5 -1t-112.5 -14.5t-171 -40.5l-33 107q76 40 171.5 61t246.5 21q69 0 123 -7.5t96 -25.5t72 -41.5t51.5 -60.5t34.5 -77t20.5 -98t10 -115t2.5 -136v-539h-170 v88q-126 -113 -310 -113q-210 0 -315.5 81.5t-105.5 265.5zM201 1303v71l307 279l102 -23l283 -256v-71l-170 -21l-176 231l-176 -231zM238 322q0 -106 67.5 -158.5t183.5 -52.5q99 0 173 28.5t137 91.5v242l-484 -37q-26 -15 -39 -28q-38 -30 -38 -86z" />
<glyph unicode="&#xe3;" horiz-adv-x="1093" d="M68 322q0 55 24 101t62.5 76.5t78.5 50t80 28.5l486 36q0 147 -22 221.5t-71.5 103t-146.5 28.5q-69 0 -101.5 -1t-112.5 -14.5t-171 -40.5l-33 107q76 40 171.5 61t246.5 21q69 0 123 -7.5t96 -25.5t72 -41.5t51.5 -60.5t34.5 -77t20.5 -98t10 -115t2.5 -136v-539h-170 v88q-126 -113 -310 -113q-210 0 -315.5 81.5t-105.5 265.5zM127 1313q18 84 63.5 128t102 50.5t127.5 -5.5t132 -34t124.5 -41.5t95.5 -21.5q7 3 29 16q37 33 53 65l111 -45q-27 -80 -73.5 -123.5t-97 -52.5t-116.5 1t-121.5 30t-124.5 41.5t-113 28.5l-28 -19 q-37 -33 -53 -65zM238 322q0 -106 67.5 -158.5t183.5 -52.5q99 0 173 28.5t137 91.5v242l-484 -37q-26 -15 -39 -28q-38 -30 -38 -86z" />
<glyph unicode="&#xe4;" horiz-adv-x="1093" d="M68 322q0 55 24 101t62.5 76.5t78.5 50t80 28.5l486 36q0 147 -22 221.5t-71.5 103t-146.5 28.5q-69 0 -101.5 -1t-112.5 -14.5t-171 -40.5l-33 107q76 40 171.5 61t246.5 21q69 0 123 -7.5t96 -25.5t72 -41.5t51.5 -60.5t34.5 -77t20.5 -98t10 -115t2.5 -136v-539h-170 v88q-126 -113 -310 -113q-210 0 -315.5 81.5t-105.5 265.5zM164 1438q8 32 43 67q36 35 68 43t55.5 -3.5t50.5 -39.5q29 -29 40.5 -52t4 -55t-42.5 -67q-28 -30 -51.5 -42.5t-45.5 -8t-39 16t-40 34.5q-28 28 -39.5 51.5t-3.5 55.5zM238 322q0 -106 67.5 -158.5t183.5 -52.5 q99 0 173 28.5t137 91.5v242l-484 -37q-26 -15 -39 -28q-38 -30 -38 -86zM668 1438q8 32 43 67q36 35 68 43t55.5 -3.5t50.5 -39.5q29 -29 40.5 -52t4 -55t-42.5 -67q-28 -30 -51.5 -42.5t-45.5 -8t-39 16t-40 34.5q-28 28 -39.5 51.5t-3.5 55.5z" />
<glyph unicode="&#xe5;" horiz-adv-x="1071" d="M45 322q0 55 24 101t63 76.5t79 50t80 28.5l485 36q0 147 -22 221.5t-71 103t-146 28.5q-69 0 -101.5 -1t-112.5 -14.5t-171 -40.5l-33 107q76 40 171.5 61t246.5 21q69 0 123 -7.5t95.5 -25.5t72 -41.5t51.5 -61t34 -77t20.5 -97.5t10 -115t2.5 -136v-539h-170v88 q-126 -113 -309 -113q-210 0 -316 82t-106 265zM215 322q0 -106 68 -158.5t184 -52.5q99 0 172.5 28.5t136.5 91.5v242l-483 -37q-26 -15 -39 -28q-39 -31 -39 -86zM279 1542q0 80 18.5 133t55.5 79.5t79.5 36t104.5 9.5q61 0 103 -9.5t79 -36t55.5 -79.5t18.5 -133 q0 -81 -18 -134t-55 -80t-79.5 -36.5t-105.5 -9.5q-61 0 -103 9.5t-79 36t-55.5 80t-18.5 134.5zM428 1542q0 -66 19 -91.5t88 -25.5q33 0 57 7l20 6q7 6 17 24q16 32 16 80q0 63 -19.5 89t-88.5 26q-16 0 -58 -6l-20 -6q-5 -5 -17 -25q-14 -28 -14 -78z" />
<glyph unicode="&#xe6;" horiz-adv-x="1802" d="M70 322q0 55 23 101t61.5 75t77.5 47t81 28l484 37q0 3 1 6.5t1 6.5q0 141 -23.5 215t-73 101.5t-143.5 27.5q-69 0 -101.5 -1t-112.5 -14.5t-171 -40.5l-33 107q76 40 171.5 61t246.5 21q137 0 218.5 -33.5t123.5 -103.5q61 79 153.5 108t223.5 29q51 0 88 -1.5t81 -8 t75 -17t65 -29.5t57 -46t44.5 -65.5t34.5 -88.5t20.5 -115.5t7.5 -144.5l-25 -101l-665 -45l-90 -14q6 -75 22 -127.5t49.5 -97t92 -66.5t143.5 -22q190 0 367 69l47 -119q-155 -86 -414 -86q-150 0 -252.5 39t-159.5 146l-45 -49q-66 -66 -144 -101t-188 -35 q-209 0 -314 81.5t-105 265.5zM238 322q0 -106 67.5 -158.5t183.5 -52.5q99 0 173 28.5t137 91.5l28 31q-24 85 -30 207l-482 -37q-23 -10 -39 -26q-38 -30 -38 -84zM969 565l92 15l526 34q-2 65 -7 109.5t-17 87.5t-33.5 69.5t-55 47.5t-82 30t-114.5 9q-83 0 -164 -29 q-33 -12 -61 -27q-23 -37 -39 -82q-36 -87 -45 -251v-13z" />
<glyph unicode="&#xe7;" horiz-adv-x="1091" d="M84 539q0 102 12.5 183t34.5 139.5t56.5 101t73 69t89.5 42t101 21t112 5.5q259 0 414 -86l-47 -119q-185 72 -367 72q-81 0 -162 -29q-33 -12 -61 -27q-28 -47 -43 -94q-41 -112 -41 -278q0 -86 5.5 -144t23.5 -116t50.5 -92t89.5 -55t138 -21q190 0 367 69l47 -119 q-124 -73 -338 -84l-16 -83q63 -27 96 -77.5t28.5 -105.5t-34 -105.5t-93 -83t-145.5 -32.5v174q60 0 90 23.5t27.5 53t-30 57.5t-70.5 36l-17 43l17 100q-76 5 -134 22t-111 56t-87.5 100.5t-55 158t-20.5 225.5z" />
<glyph unicode="&#xe8;" horiz-adv-x="1140" d="M82 539q0 141 25 243.5t65.5 163t105 96t130.5 47t155 11.5q51 0 88 -1.5t81 -8t75 -17t65 -29.5t57 -46t44.5 -65.5t34.5 -88.5t20.5 -115.5t7.5 -144.5l-24 -101l-666 -45l-90 -14q6 -75 22 -127.5t49.5 -97t92 -66.5t143.5 -22q190 0 367 69l47 -119 q-155 -86 -414 -86q-89 0 -155.5 12t-130.5 48t-104.5 96.5t-65.5 163.5t-25 244zM254 565l92 15l526 34q-2 65 -7 109.5t-17 87.5t-33.5 69.5t-55 47.5t-82 30t-114.5 9q-83 0 -164 -29q-33 -12 -61 -27q-23 -38 -39 -84q-36 -90 -45 -262zM324 1561v71l170 21l239 -314 v-34l-119 -23z" />
<glyph unicode="&#xe9;" horiz-adv-x="1140" d="M82 539q0 141 25 243.5t65.5 163t105 96t130.5 47t155 11.5q51 0 88 -1.5t81 -8t75 -17t65 -29.5t57 -46t44.5 -65.5t34.5 -88.5t20.5 -115.5t7.5 -144.5l-24 -101l-666 -45l-90 -14q6 -75 22 -127.5t49.5 -97t92 -66.5t143.5 -22q190 0 367 69l47 -119 q-155 -86 -414 -86q-89 0 -155.5 12t-130.5 48t-104.5 96.5t-65.5 163.5t-25 244zM254 565l92 15l526 34q-2 65 -7 109.5t-17 87.5t-33.5 69.5t-55 47.5t-82 30t-114.5 9q-83 0 -164 -29q-33 -12 -61 -27q-23 -38 -39 -84q-36 -90 -45 -262zM383 1307v34l240 314l170 -21 v-71l-291 -279z" />
<glyph unicode="&#xea;" horiz-adv-x="1140" d="M82 539q0 141 25 243.5t65.5 163t105 96t130.5 47t155 11.5q51 0 88 -1.5t81 -8t75 -17t65 -29.5t57 -46t44.5 -65.5t34.5 -88.5t20.5 -115.5t7.5 -144.5l-24 -101l-666 -45l-90 -14q6 -75 22 -127.5t49.5 -97t92 -66.5t143.5 -22q190 0 367 69l47 -119 q-155 -86 -414 -86q-89 0 -155.5 12t-130.5 48t-104.5 96.5t-65.5 163.5t-25 244zM223 1303v71l307 279l103 -23l282 -256v-71l-170 -21l-176 231l-176 -231zM254 565l92 15l526 34q-2 65 -7 109.5t-17 87.5t-33.5 69.5t-55 47.5t-82 30t-114.5 9q-83 0 -164 -29 q-33 -12 -61 -27q-23 -38 -39 -84q-36 -90 -45 -262z" />
<glyph unicode="&#xeb;" horiz-adv-x="1140" d="M82 539q0 141 25 243.5t65.5 163t105 96t130.5 47t155 11.5q51 0 88 -1.5t81 -8t75 -17t65 -29.5t57 -46t44.5 -65.5t34.5 -88.5t20.5 -115.5t7.5 -144.5l-24 -101l-666 -45l-90 -14q6 -75 22 -127.5t49.5 -97t92 -66.5t143.5 -22q190 0 367 69l47 -119 q-155 -86 -414 -86q-89 0 -155.5 12t-130.5 48t-104.5 96.5t-65.5 163.5t-25 244zM180 1438q8 32 43 67q36 35 68 43t55.5 -3.5t50.5 -39.5q29 -29 40.5 -52t4 -55t-42.5 -67q-28 -30 -51.5 -42.5t-45.5 -8t-39 16t-40 34.5q-28 28 -39.5 51.5t-3.5 55.5zM254 565l92 15 l526 34q-2 65 -7 109.5t-17 87.5t-33.5 69.5t-55 47.5t-82 30t-114.5 9q-83 0 -164 -29q-33 -12 -61 -27q-23 -38 -39 -84q-36 -90 -45 -262zM684 1438q8 32 43 67q36 35 68 43t55.5 -3.5t50.5 -39.5q29 -29 40.5 -52t4 -55t-42.5 -67q-28 -30 -51.5 -42.5t-45.5 -8t-39 16 t-40 34.5q-28 28 -39.5 51.5t-3.5 55.5z" />
<glyph unicode="&#xec;" horiz-adv-x="497" d="M-4 1561v71l170 21l240 -314v-34l-119 -23zM76 909v170h282v-1079h-170v909h-112z" />
<glyph unicode="&#xed;" horiz-adv-x="497" d="M76 909v170h282v-1079h-170v909h-112zM160 1305v34l239 314l170 -21v-71l-290 -279z" />
<glyph unicode="&#xee;" horiz-adv-x="497" d="M-96 1303v71l307 279l102 -23l283 -256v-71l-170 -21l-176 231l-176 -231zM76 909v170h282v-1079h-170v909h-112z" />
<glyph unicode="&#xef;" horiz-adv-x="659" d="M-53 1469q8 32 43 67q36 35 68 43t55.5 -3.5t50.5 -39.5q29 -29 40.5 -52t4 -55t-42.5 -67q-28 -30 -51.5 -42.5t-45.5 -8t-39 16t-40 34.5q-28 28 -39.5 51.5t-3.5 55.5zM156 909v170h282v-1079h-170v909h-112zM451 1469q8 32 43 67q36 35 68 43t55.5 -3.5t50.5 -39.5 q29 -29 40.5 -52t4 -55t-42.5 -67q-28 -30 -51.5 -42.5t-45.5 -8t-39 16t-40 34.5q-28 28 -39.5 51.5t-3.5 55.5z" />
<glyph unicode="&#xf0;" horiz-adv-x="1087" d="M86 539q0 141 23.5 243.5t62 163t100.5 96t127 47t154 11.5q63 0 115 -6q117 -11 172 -31q0 223 -144 328l-69 -134l-99 50l58 145q-97 33 -156 43l16 117q86 -11 199 -43l70 129l112 -62l-61 -116q78 -41 129 -95t75 -117t32 -118.5t8 -126.5v-1063h-170v86 q-60 -55 -125 -83t-162 -28q-89 0 -154 12t-127 47.5t-100.5 97t-62 164t-23.5 243.5zM256 539q0 -61 2 -104.5t9 -91.5t20 -80.5t35 -63.5t53 -48.5t76 -28.5t102 -11q97 0 159.5 27.5t127.5 92.5v703q-11 5 -41.5 11.5t-99 14t-146.5 7.5q-81 0 -154 -29q-30 -10 -53 -27 q-31 -56 -45 -94q-45 -123 -45 -278z" />
<glyph unicode="&#xf1;" horiz-adv-x="1224" d="M147 0v1079h170v-92q123 113 308 113q66 0 117 -6.5t102 -22.5t87 -47.5t65 -78t43 -117t14 -162.5v-666h-170v672q0 145 -57 220t-201 75q-190 0 -308 -121v-846h-170zM193 1350q18 84 63.5 128t102 50t127.5 -6t132 -34t124.5 -41.5t95.5 -21.5l9 4.5t10.5 6.5t8.5 6 q39 34 54 65l110 -45q-27 -80 -73.5 -123.5t-96.5 -52.5t-116.5 1t-121.5 29.5t-124 41t-113 28.5l-29 -18q-37 -33 -53 -65z" />
<glyph unicode="&#xf2;" d="M96 539q0 119 15.5 210t47.5 151.5t72 100.5t97.5 61.5t114.5 29.5t132 8q73 0 129.5 -8t114 -29.5t97.5 -61.5t72.5 -100.5t48.5 -151.5t16 -210q0 -142 -24 -244.5t-63 -163.5t-103 -96.5t-130.5 -47.5t-157.5 -12q-75 0 -132 8.5t-114 30t-97.5 62t-72 101.5 t-47.5 152t-16 210zM266 539q0 -86 5 -144t23.5 -116.5t51.5 -92t90 -54.5t139 -21q86 0 158 26q26 9 62 29q26 44 45 94q45 123 45 279q0 85 -6 144t-25 116.5t-52.5 91.5t-90 55t-136.5 21t-161 -29q-26 -9 -62 -29q-26 -43 -43 -94q-43 -118 -43 -276zM367 1561v71 l170 21l239 -314v-34l-119 -23z" />
<glyph unicode="&#xf3;" d="M96 539q0 119 15.5 210t47.5 151.5t72 100.5t97.5 61.5t114.5 29.5t132 8q73 0 129.5 -8t114 -29.5t97.5 -61.5t72.5 -100.5t48.5 -151.5t16 -210q0 -142 -24 -244.5t-63 -163.5t-103 -96.5t-130.5 -47.5t-157.5 -12q-75 0 -132 8.5t-114 30t-97.5 62t-72 101.5 t-47.5 152t-16 210zM266 539q0 -86 5 -144t23.5 -116.5t51.5 -92t90 -54.5t139 -21q86 0 158 26q26 9 62 29q26 44 45 94q45 123 45 279q0 85 -6 144t-25 116.5t-52.5 91.5t-90 55t-136.5 21t-161 -29q-26 -9 -62 -29q-26 -43 -43 -94q-43 -118 -43 -276zM408 1305v34 l239 314l170 -21v-71l-291 -279z" />
<glyph unicode="&#xf4;" d="M96 539q0 119 15.5 210t47.5 151.5t72 100.5t97.5 61.5t114.5 29.5t132 8q73 0 129.5 -8t114 -29.5t97.5 -61.5t72.5 -100.5t48.5 -151.5t16 -210q0 -142 -24 -244.5t-63 -163.5t-103 -96.5t-130.5 -47.5t-157.5 -12q-75 0 -132 8.5t-114 30t-97.5 62t-72 101.5 t-47.5 152t-16 210zM240 1303v71l307 279l102 -23l283 -256v-71l-170 -21l-176 231l-176 -231zM266 539q0 -86 5 -144t23.5 -116.5t51.5 -92t90 -54.5t139 -21q86 0 158 26q26 9 62 29q26 44 45 94q45 123 45 279q0 85 -6 144t-25 116.5t-52.5 91.5t-90 55t-136.5 21 t-161 -29q-26 -9 -62 -29q-26 -43 -43 -94q-43 -118 -43 -276z" />
<glyph unicode="&#xf5;" d="M96 539q0 119 15.5 210t47.5 151.5t72 100.5t97.5 61.5t114.5 29.5t132 8q73 0 129.5 -8t114 -29.5t97.5 -61.5t72.5 -100.5t48.5 -151.5t16 -210q0 -142 -24 -244.5t-63 -163.5t-103 -96.5t-130.5 -47.5t-157.5 -12q-75 0 -132 8.5t-114 30t-97.5 62t-72 101.5 t-47.5 152t-16 210zM162 1350q18 84 63.5 128t102 50t127.5 -6t132 -34t124.5 -41.5t95.5 -21.5q2 1 29 17q37 33 53 65l110 -45q-27 -80 -73.5 -123.5t-96.5 -52.5t-116.5 1t-121.5 29.5t-124 41t-113 28.5l-28 -18q-39 -34 -54 -65zM266 539q0 -86 5 -144t23.5 -116.5 t51.5 -92t90 -54.5t139 -21q86 0 158 26q26 9 62 29q26 44 45 94q45 123 45 279q0 85 -6 144t-25 116.5t-52.5 91.5t-90 55t-136.5 21t-161 -29q-26 -9 -62 -29q-26 -43 -43 -94q-43 -118 -43 -276z" />
<glyph unicode="&#xf6;" d="M96 539q0 119 15.5 210t47.5 151.5t72 100.5t97.5 61.5t114.5 29.5t132 8q73 0 129.5 -8t114 -29.5t97.5 -61.5t72.5 -100.5t48.5 -151.5t16 -210q0 -142 -24 -244.5t-63 -163.5t-103 -96.5t-130.5 -47.5t-157.5 -12q-75 0 -132 8.5t-114 30t-97.5 62t-72 101.5 t-47.5 152t-16 210zM188 1438q8 32 43 67q36 35 68.5 43.5t56 -3.5t50.5 -40q29 -29 40.5 -52t4 -55t-42.5 -67q-28 -30 -52 -42.5t-46 -8t-39 16t-40 34.5q-28 28 -39.5 51.5t-3.5 55.5zM266 539q0 -86 5 -144t23.5 -116.5t51.5 -92t90 -54.5t139 -21q86 0 158 26 q26 9 62 29q26 44 45 94q45 123 45 279q0 85 -6 144t-25 116.5t-52.5 91.5t-90 55t-136.5 21t-161 -29q-26 -9 -62 -29q-26 -43 -43 -94q-43 -118 -43 -276zM692 1438q8 32 43 67q36 35 68 43t55.5 -3.5t50.5 -39.5q29 -29 40.5 -52t4 -55t-42.5 -67q-28 -30 -51.5 -42.5 t-45.5 -8t-39 16t-40 34.5q-28 28 -39.5 51.5t-3.5 55.5z" />
<glyph unicode="&#xf7;" horiz-adv-x="843" d="M16 547v141h807v-141h-807zM287 316q8 32 43 67q36 35 68 43t55.5 -3.5t50.5 -39.5q29 -29 40.5 -52t4 -55t-42.5 -67q-28 -30 -51.5 -42.5t-45.5 -8t-39 16t-40 34.5q-28 28 -39.5 51.5t-3.5 55.5zM287 955q8 32 43 67q36 35 68 43t55.5 -3.5t50.5 -39.5 q29 -29 40.5 -52t4 -55t-42.5 -67q-28 -30 -51.5 -42.5t-45.5 -8t-39 16t-40 34.5q-28 28 -39.5 51.5t-3.5 55.5z" />
<glyph unicode="&#xf8;" d="M96 539q0 119 15.5 210t47.5 151.5t72 100.5t97.5 61.5t114.5 29.5t132 8q81 0 140 -10l14 32h166v-24l-29 -62q92 -57 139.5 -174t47.5 -323q0 -142 -24 -244.5t-63 -163.5t-103 -96.5t-130.5 -47.5t-157.5 -12q-111 0 -186 19l-14 -31h-170v19l37 81q-146 127 -146 476 zM266 539q0 -224 51 -314l338 736q-38 6 -80 6q-80 0 -161 -29q-26 -9 -62 -29q-26 -43 -43 -94q-43 -118 -43 -276zM449 125q46 -14 126 -14q86 0 158 26q26 9 62 29q26 44 45 94q45 123 45 279q0 133 -17 217t-67 135z" />
<glyph unicode="&#xf9;" horiz-adv-x="1206" d="M139 408v671h170v-671q2 -59 8.5 -101t23.5 -82.5t45 -65.5t74.5 -40t110.5 -15q91 0 163 38t140 106v831h173v-1079h-173v88q-126 -113 -303 -113q-80 0 -138 8.5t-115 35.5t-93 73.5t-59.5 126t-26.5 189.5zM397 1561v71l170 21l240 -314v-34l-119 -23z" />
<glyph unicode="&#xfa;" horiz-adv-x="1206" d="M139 408v671h170v-671q2 -59 8.5 -101t23.5 -82.5t45 -65.5t74.5 -40t110.5 -15q91 0 163 38t140 106v831h173v-1079h-173v88q-126 -113 -303 -113q-80 0 -138 8.5t-115 35.5t-93 73.5t-59.5 126t-26.5 189.5zM397 1307v34l240 314l170 -21v-71l-291 -279z" />
<glyph unicode="&#xfb;" horiz-adv-x="1206" d="M139 408v671h170v-671q2 -59 8.5 -101t23.5 -82.5t45 -65.5t74.5 -40t110.5 -15q91 0 163 38t140 106v831h173v-1079h-173v88q-126 -113 -303 -113q-80 0 -138 8.5t-115 35.5t-93 73.5t-59.5 126t-26.5 189.5zM256 1303v71l307 279l103 -23l282 -256v-71l-170 -21 l-176 231l-176 -231z" />
<glyph unicode="&#xfc;" horiz-adv-x="1206" d="M139 408v671h170v-671q2 -59 8.5 -101t23.5 -82.5t45 -65.5t74.5 -40t110.5 -15q91 0 163 38t140 106v831h173v-1079h-173v88q-126 -113 -303 -113q-80 0 -138 8.5t-115 35.5t-93 73.5t-59.5 126t-26.5 189.5zM221 1438q8 32 43 67q36 35 68 43t55.5 -3.5t50.5 -39.5 q29 -29 40.5 -52t4 -55t-42.5 -67q-28 -30 -51.5 -42.5t-45.5 -8t-39 16t-40 34.5q-28 28 -39.5 51.5t-3.5 55.5zM725 1438q8 32 43 67q36 35 68 43t55.5 -3.5t50.5 -39.5q29 -29 40.5 -52t4 -55t-42.5 -67q-28 -30 -51.5 -42.5t-45.5 -8t-39 16t-40 34.5q-28 28 -39.5 51.5 t-3.5 55.5z" />
<glyph unicode="&#xfd;" horiz-adv-x="1112" d="M41 1079h178q12 -43 47.5 -167.5t47 -162.5t39 -132.5t42.5 -138t38.5 -114t45 -125t45.5 -110.5h45q24 56 45.5 111t45 123.5t39 115t42 136.5t39.5 134t46.5 162t47.5 168h179q-62 -219 -98.5 -340t-100.5 -308t-149.5 -393t-208.5 -478h-185q42 86 203 440h-113 q-98 211 -172 439t-188 640zM350 1305v34l240 314l170 -21v-71l-291 -279z" />
<glyph unicode="&#xfe;" horiz-adv-x="1177" d="M133 -440v1976h170v-549q60 56 125.5 84.5t163.5 28.5q89 0 154 -12t127 -47.5t100 -96.5t61 -163t23 -244t-23 -244.5t-61 -163t-100 -96t-126.5 -47t-154.5 -11.5q-38 -2 -109 2q-116 4 -180 23v-440h-170zM303 129q126 -18 289 -18q84 0 156 26q28 10 55 29 q28 54 41 92q41 112 41 279q0 55 -1.5 92.5t-5.5 82t-13 74.5t-23 61.5t-36 51.5t-51.5 36.5t-70.5 24t-92 7.5q-95 0 -159 -28.5t-130 -94.5v-715z" />
<glyph unicode="&#xff;" horiz-adv-x="1112" d="M41 1079h178q12 -43 47.5 -167.5t47 -162.5t39 -132.5t42.5 -138t38.5 -114t45 -125t45.5 -110.5h45q24 56 45.5 111t45 123.5t39 115t42 136.5t39.5 134t46.5 162t47.5 168h179q-62 -219 -98.5 -340t-100.5 -308t-149.5 -393t-208.5 -478h-185q42 86 203 440h-113 q-98 211 -172 439t-188 640zM174 1434q8 32 43 67q36 35 68 43t55.5 -3.5t50.5 -39.5q29 -29 40.5 -52t4 -55t-42.5 -67q-28 -30 -51.5 -42.5t-45.5 -8t-39 16t-40 34.5q-28 28 -39.5 51.5t-3.5 55.5zM678 1434q8 32 43 67q36 35 68 43t55.5 -3.5t50.5 -39.5 q29 -29 40.5 -52t4 -55t-42.5 -67q-28 -30 -51.5 -42.5t-45.5 -8t-39 16t-40 34.5q-28 28 -39.5 51.5t-3.5 55.5z" />
<glyph unicode="&#x152;" horiz-adv-x="1615" d="M66 684q0 100 10.5 184.5t28.5 150t46.5 118t61 90t75.5 65t86.5 44.5t98.5 27t106 13.5t113 3.5h828v-141h-658v-494l92 11h422v-142h-422l-92 -10v-463h658v-141h-828q-63 0 -113.5 3t-105.5 12.5t-98 25.5t-87 42.5t-76 62.5t-60.5 87.5t-46.5 116.5t-28.5 149 t-10.5 185zM238 682q0 -90 6.5 -155.5t23.5 -129t49 -105.5t81.5 -75t122.5 -48t171 -15v1077q-110 0 -235 -35q-31 -9 -90 -35q-42 -59 -66 -121q-63 -153 -63 -358z" />
<glyph unicode="&#x153;" horiz-adv-x="1861" d="M47 539q0 119 15.5 210t47.5 151.5t72 100.5t97.5 61.5t114.5 29.5t132 8q138 0 235 -35.5t159 -128.5q57 95 154.5 129.5t242.5 34.5q51 0 88 -1.5t81 -8t75 -17t65 -29.5t57 -46t44.5 -65.5t34.5 -88.5t20.5 -115.5t7.5 -144.5l-25 -101l-665 -45l-90 -14 q6 -75 22 -127.5t49.5 -97t92 -66.5t143.5 -22q189 0 366 69l48 -119q-155 -86 -414 -86q-141 0 -238.5 35t-158.5 129q-57 -94 -153.5 -129t-240.5 -35q-75 0 -132 8.5t-114 30t-97.5 62t-72 101.5t-47.5 152t-16 210zM217 539q0 -86 5 -144t23.5 -116.5t51.5 -92t90 -54.5 t139 -21q86 0 158 26q24 8 61 29q29 49 46 94q45 123 45 279q0 85 -6 144t-25 116.5t-52.5 91.5t-90 55t-136.5 21t-161 -29q-26 -9 -62 -29q-26 -43 -43 -94q-43 -118 -43 -276zM1004 563l96 17l526 34q-2 65 -7 109.5t-17 87.5t-33.5 69.5t-55 47.5t-82 30t-114.5 9 q-83 0 -164 -29q-33 -12 -61 -27q-28 -50 -41 -88q-40 -100 -43 -256q0 -4 -4 -4z" />
<glyph unicode="&#x178;" horiz-adv-x="1167" d="M31 1380h184q179 -394 369 -745h16q197 365 373 745h172q-100 -226 -244 -513.5t-223 -424.5v-442h-170v442q-72 124 -216 408t-261 530zM201 1674q8 32 43 67q36 35 68 43t55.5 -3.5t50.5 -39.5q29 -29 40.5 -52t4 -55t-42.5 -67q-28 -30 -51.5 -42.5t-45.5 -8t-39 16 t-40 34.5q-28 28 -39.5 51.5t-3.5 55.5zM705 1674q8 32 43 67q36 35 68 43t55.5 -3.5t50.5 -39.5q29 -29 40.5 -52t4 -55t-42.5 -67q-28 -30 -51.5 -42.5t-45.5 -8t-39 16t-40 34.5q-28 28 -39.5 51.5t-3.5 55.5z" />
<glyph unicode="&#x2c6;" horiz-adv-x="737" d="M2 1534v72l307 278l103 -22l282 -256v-72l-170 -21l-176 232l-176 -232z" />
<glyph unicode="&#x2dc;" horiz-adv-x="876" d="M2 1581q18 84 63.5 128t102 50.5t127.5 -5.5t132 -34t124.5 -41.5t95.5 -21.5q7 3 29 16q36 32 53 66l111 -45q-27 -80 -73.5 -123.5t-96.5 -52.5t-116.5 1t-121.5 29.5t-124 41t-113 28.5l-29 -19q-37 -33 -53 -65z" />
<glyph unicode="&#x2000;" horiz-adv-x="942" />
<glyph unicode="&#x2001;" horiz-adv-x="1884" />
<glyph unicode="&#x2002;" horiz-adv-x="942" />
<glyph unicode="&#x2003;" horiz-adv-x="1884" />
<glyph unicode="&#x2004;" horiz-adv-x="628" />
<glyph unicode="&#x2005;" horiz-adv-x="471" />
<glyph unicode="&#x2006;" horiz-adv-x="314" />
<glyph unicode="&#x2007;" horiz-adv-x="314" />
<glyph unicode="&#x2008;" horiz-adv-x="235" />
<glyph unicode="&#x2009;" horiz-adv-x="376" />
<glyph unicode="&#x200a;" horiz-adv-x="104" />
<glyph unicode="&#x2010;" horiz-adv-x="888" d="M20 584v141h807v-141h-807z" />
<glyph unicode="&#x2011;" horiz-adv-x="888" d="M20 584v141h807v-141h-807z" />
<glyph unicode="&#x2012;" horiz-adv-x="888" d="M20 584v141h807v-141h-807z" />
<glyph unicode="&#x2013;" horiz-adv-x="888" d="M20 584v141h807v-141h-807z" />
<glyph unicode="&#x2014;" horiz-adv-x="1110" d="M20 584v141h1059v-141h-1059z" />
<glyph unicode="&#x2018;" horiz-adv-x="409" d="M53 1425v111q0 41 49 90q27 28 50.5 39.5t55.5 3.5t68 -43q37 -36 44.5 -68.5t-9.5 -62.5t-59 -70l61 -204v-35l-118 -23z" />
<glyph unicode="&#x2019;" horiz-adv-x="450" d="M86.5 1557.5q7.5 32.5 44.5 68.5q36 35 68 43t55.5 -3.5t50.5 -39.5q49 -49 49 -90v-111l-141 -262l-119 23v35l62 204q-43 40 -60 70t-9.5 62.5z" />
<glyph unicode="&#x201a;" horiz-adv-x="430" d="M86.5 132.5q7.5 32.5 44.5 68.5q36 35 68 43t55.5 -3.5t50.5 -39.5q49 -49 49 -90v-111l-141 -262l-119 22v35l62 205q-43 40 -60 70t-9.5 62.5z" />
<glyph unicode="&#x201c;" horiz-adv-x="796" d="M53 1425v111q0 41 49 90q27 28 50.5 39.5t55.5 3.5t68 -43q37 -36 44.5 -68.5t-9.5 -62.5t-59 -70l61 -204v-35l-118 -23zM420 1425v111q0 41 49 90q27 28 50.5 39.5t55.5 3.5t68 -43q37 -36 44.5 -68.5t-9.5 -62.5t-60 -70l62 -204v-35l-119 -23z" />
<glyph unicode="&#x201d;" horiz-adv-x="817" d="M86.5 1557.5q7.5 32.5 44.5 68.5q36 35 68 43t55.5 -3.5t50.5 -39.5q49 -49 49 -90v-111l-141 -262l-119 23v35l62 204q-43 40 -60 70t-9.5 62.5zM451.5 1558q7.5 33 46.5 68q35 36 67.5 44t56 -4t50.5 -40q49 -49 49 -90v-111l-141 -262l-119 23v35l61 204 q-43 41 -60.5 70.5t-10 62.5z" />
<glyph unicode="&#x201e;" horiz-adv-x="790" d="M86.5 132.5q7.5 32.5 44.5 68.5q36 35 68 43t55.5 -3.5t50.5 -39.5q49 -49 49 -90v-111l-141 -262l-119 22v35l62 205q-43 40 -60 70t-9.5 62.5zM453.5 132.5q7.5 32.5 44.5 68.5q36 35 68 43t55.5 -3.5t50.5 -39.5q49 -49 49 -90v-111l-141 -262l-119 22v35l61 205 q-42 40 -59 70t-9.5 62.5z" />
<glyph unicode="&#x2022;" horiz-adv-x="550" d="M66 877.5q-6 32.5 12.5 68.5t60.5 76q55 55 103.5 66.5t82.5 -6.5t76 -60q32 -32 49 -58.5t23.5 -59t-11 -68.5t-59.5 -76q-43 -44 -78.5 -62.5t-68 -12t-58 23.5t-59.5 51q-33 33 -50 59t-23 58.5z" />
<glyph unicode="&#x2026;" horiz-adv-x="1327" d="M88 134q8 32 43 67q36 35 68 43t55.5 -3.5t50.5 -39.5q29 -29 40.5 -52t4 -55t-42.5 -67q-28 -30 -51.5 -42.5t-45.5 -8t-39 16t-40 34.5q-28 28 -39.5 51.5t-3.5 55.5zM530 134q8 32 43 67q36 35 68.5 43.5t56 -3.5t50.5 -40q29 -29 40.5 -52t4 -55t-42.5 -67 q-28 -30 -52 -42.5t-46 -8t-39 16t-40 34.5q-28 28 -39.5 51.5t-3.5 55.5zM973 134q8 32 43 67q36 35 68 43t55.5 -3.5t50.5 -39.5q29 -29 40.5 -52t4 -55t-42.5 -67q-28 -30 -51.5 -42.5t-45.5 -8t-39 16t-40 34.5q-28 28 -39.5 51.5t-3.5 55.5z" />
<glyph unicode="&#x202f;" horiz-adv-x="376" />
<glyph unicode="&#x2039;" horiz-adv-x="923" d="M63 543v123l685 413h71v-198l-571 -277l571 -276v-199h-71z" />
<glyph unicode="&#x203a;" horiz-adv-x="876" d="M63 129v199l572 276l-572 277v198h72l684 -413v-123l-684 -414h-72z" />
<glyph unicode="&#x205f;" horiz-adv-x="471" />
<glyph unicode="&#x20ac;" horiz-adv-x="1241" d="M53 406v141h66q-4 86 -4 137q0 57 2 84h-64v141h76q17 120 57 209t93.5 142.5t128.5 85.5t151.5 43.5t173.5 11.5q141 0 246 -36.5t184 -119.5l-100 -90q-48 53 -125 74.5t-205 21.5q-112 0 -229 -34q-35 -11 -86 -35q-12 -20 -39 -72q-50 -101 -70 -201h551v-141h-569 q-4 -62 -4 -86q0 -106 4 -135h569v-141h-549q29 -137 128 -207t294 -70q172 0 293 41q51 16 104 43l60 -115q-185 -123 -457 -123q-93 0 -165.5 9.5t-146.5 37.5t-127 74.5t-95 125t-62 184.5h-84z" />
<glyph unicode="&#x2122;" horiz-adv-x="1619" d="M57 1303l2 77h535v-77h-223v-689h-95v689h-219zM690 614v766h172q33 -92 69.5 -190t81 -217.5t70.5 -188.5h9q23 63 101.5 270t121.5 326h166v-766h-95v689h-4q-22 -56 -235 -617h-125q-27 71 -73.5 195.5t-85 226t-75.5 195.5h-4v-689h-94z" />
<glyph unicode="&#xe000;" horiz-adv-x="1075" d="M0 0v1075h1075v-1075h-1075z" />
</font>
</defs>
</svg>
